<?xml version="1.0" encoding="iso-8859-1"?>
<!-- Generator: Adobe Illustrator 19.0.0, SVG Export Plug-In . SVG Version: 6.00 Build 0)  -->
<svg version="1.1" id="Capa_1" xmlns="http://www.w3.org/2000/svg" xmlns:xlink="http://www.w3.org/1999/xlink" x="0px" y="0px"
	 viewBox="0 0 512 512" style="enable-background:new 0 0 512 512;" xml:space="preserve">
<g>
	<g>
		<path d="M487.774,126.119l-16.031-72.141c-1.204-5.419-7.965-7.699-12.203-4.095l-27.018,22.965
			C415.001,28.312,368.755,0,312.109,0c-29.215,0-57.916,13.129-79.917,36.299C210.32,13.434,180.834,0,151.796,0
			c-35.968,0-68.657,11.518-92.045,32.434c-23.025,20.59-35.705,48.747-35.705,79.284c0,71.848,25.72,101.038,44.501,122.353
			c15.553,17.651,23.36,26.511,12.282,50.882C48.388,356.326,66.926,452.451,92.141,491.61c8.712,13.529,17.995,20.39,27.593,20.39
			c17.894,0,24.526-25.897,33.703-61.74c6.597-25.763,14.074-54.963,26.542-77.746c13.573-24.802,30.574-36.859,51.974-36.859
			c21.401,0,38.401,12.057,51.975,36.859c12.467,22.781,19.944,51.983,26.541,77.746c9.178,35.843,15.809,61.74,33.704,61.74
			c13.35,0,26.674-14.032,37.517-39.513c10.004-23.506,16.694-54.177,18.356-84.149c0.229-4.144-2.944-7.69-7.087-7.919
			c-4.118-0.233-7.689,2.943-7.918,7.087c-1.569,28.301-7.831,57.132-17.18,79.096c-8.879,20.866-18.503,30.369-23.688,30.369
			c-0.03,0-3.107-0.133-7.78-11.675c-3.912-9.663-7.532-23.799-11.364-38.764c-13.604-53.135-32.238-125.906-93.075-125.906
			c-60.837,0-79.47,72.771-93.076,125.906c-3.831,14.965-7.452,29.101-11.363,38.764c-4.674,11.542-7.75,11.675-7.78,11.675
			c-3.029,0-8.549-3.546-14.956-13.497c-12.206-18.955-21.807-51.443-25.056-84.787c-3.881-39.813,1.373-77.995,14.791-107.515
			c15.104-33.227,1.298-48.896-14.688-67.037c-18.154-20.603-40.749-46.245-40.749-112.417c0-56.025,47.406-96.689,112.72-96.689
			c25.496,0,51.536,12.21,70.718,32.916c-0.373,0.535-0.75,1.075-1.118,1.604c-12.814,18.431-21.28,30.607-53.569,30.607
			c-4.15,0-7.515,3.365-7.515,7.515c0,4.15,3.365,7.515,7.515,7.515c40.144,0,52.084-17.173,65.908-37.056
			c1.121-1.611,2.274-3.261,3.457-4.93c0.279-0.248,0.547-0.51,0.79-0.802c19.748-23.748,46.766-37.369,74.128-37.369
			c52.368,0,94.532,26.701,108.182,68.215l-114.835,97.609l-35.327-49.457c-2.469-3.456-7.491-4.155-10.809-1.5l-40.078,32.063
			c-3.17,2.536-3.753,7.13-1.318,10.376l72.141,96.188c2.444,3.259,7.199,3.958,10.478,1.534l108.205-79.978
			c-7.48,14.541-16.47,24.748-24.669,34.055c-15.985,18.141-29.79,33.81-14.688,67.037c8.22,18.083,13.347,38.908,15.241,61.896
			c0.323,3.926,3.61,6.898,7.481,6.898c0.207,0,0.416-0.008,0.625-0.026c4.137-0.341,7.213-3.97,6.872-8.106
			c-2.035-24.716-7.6-47.218-16.536-66.881c-11.079-24.371-3.271-33.231,12.282-50.882c11.689-13.267,26.237-29.777,35.476-58.117
			c0.266-0.819,0.378-1.648,0.363-2.464l53.708-39.697C487.295,132.027,488.419,129.02,487.774,126.119z M297.612,253.537
			l-63.294-84.392l28.195-22.555l35.465,49.652c1.222,1.711,3.106,2.832,5.193,3.09c2.085,0.26,4.187-0.37,5.788-1.732
			L459.776,69.408l12.267,55.203L297.612,253.537z"/>
	</g>
</g>
<g>
</g>
<g>
</g>
<g>
</g>
<g>
</g>
<g>
</g>
<g>
</g>
<g>
</g>
<g>
</g>
<g>
</g>
<g>
</g>
<g>
</g>
<g>
</g>
<g>
</g>
<g>
</g>
<g>
</g>
</svg>
