<?xml version="1.0" encoding="iso-8859-1"?>
<!-- Generator: Adobe Illustrator 19.0.0, SVG Export Plug-In . SVG Version: 6.00 Build 0)  -->
<svg version="1.1" id="Capa_1" xmlns="http://www.w3.org/2000/svg" xmlns:xlink="http://www.w3.org/1999/xlink" x="0px" y="0px"
	 viewBox="0 0 512.001 512.001" style="enable-background:new 0 0 512.001 512.001;" xml:space="preserve">
<g>
	<g>
		<path d="M399.678,400.523c-4.115-0.532-7.883,2.378-8.412,6.493c-3.204,24.874-9.695,48.298-18.278,65.958
			c-8.056,16.576-16.248,23.997-20.793,23.997c-0.03,0-3.107-0.133-7.78-11.675c-3.912-9.663-7.532-23.798-11.363-38.764
			c-13.606-53.135-32.239-125.906-93.076-125.906c-60.837,0-79.47,72.771-93.076,125.906c-3.831,14.965-7.452,29.101-11.364,38.764
			c-4.673,11.542-7.749,11.675-7.779,11.675c-2.195,0-5.117-1.728-8.228-4.867c-16.62-16.771-33.521-66.732-33.032-121.309
			c0.037-4.15-3.297-7.545-7.447-7.582c-0.023,0-0.046,0-0.069,0c-4.118,0-7.476,3.32-7.513,7.448
			c-0.478,53.279,15.594,110.037,37.386,132.024c6.127,6.182,12.486,9.317,18.903,9.317c17.894,0,24.526-25.897,33.703-61.74
			c6.597-25.763,14.073-54.963,26.542-77.746c13.573-24.804,30.574-36.86,51.974-36.86s38.401,12.057,51.974,36.859
			c12.467,22.781,19.945,51.983,26.542,77.746c9.178,35.843,15.809,61.74,33.703,61.74c26.436,0,47.54-53.101,53.976-103.063
			C406.702,404.821,403.794,401.054,399.678,400.523z"/>
	</g>
</g>
<g>
	<g>
		<path d="M388.412,15.975C368.623,5.524,345.013,0,320.133,0c-29.216,0-57.916,13.129-79.917,36.299
			C218.343,13.434,188.856,0,159.819,0c-35.968,0-68.657,11.518-92.045,32.434C44.75,53.025,32.07,81.182,32.07,111.718
			c0,71.848,25.72,101.038,44.501,122.353c15.553,17.65,23.36,26.511,12.282,50.881c-6.817,14.997-11.705,31.788-14.527,49.904
			c-0.639,4.101,2.168,7.943,6.268,8.582c0.392,0.061,0.782,0.09,1.166,0.09c3.64,0,6.838-2.65,7.415-6.359
			c2.612-16.767,7.107-32.243,13.359-45.998c15.104-33.227,1.298-48.896-14.688-67.037c-18.153-20.603-40.748-46.245-40.748-112.417
			c0-56.025,47.406-96.689,112.72-96.689c25.496,0,51.536,12.21,70.718,32.917c-0.373,0.535-0.75,1.075-1.118,1.604
			c-12.814,18.43-21.28,30.606-53.569,30.606c-4.15,0-7.515,3.365-7.515,7.515c0,4.15,3.365,7.515,7.515,7.515
			c40.144,0,52.084-17.173,65.909-37.056c1.12-1.611,2.273-3.261,3.455-4.93c0.28-0.248,0.548-0.511,0.791-0.803
			c19.748-23.747,46.766-37.368,74.128-37.368c22.444,0,43.627,4.923,61.261,14.235c3.669,1.937,8.216,0.535,10.154-3.135
			C393.486,22.459,392.081,17.913,388.412,15.975z"/>
	</g>
</g>
<g>
	<g>
		<path d="M472.43,128.25h-28.806l35.743-85.783c2.029-4.869-1.672-10.405-6.937-10.405h-96.188c-3.034,0-5.77,1.824-6.937,4.624
			l-40.078,96.188c-2.029,4.869,1.672,10.405,6.937,10.405h29.758l-36.91,114.42c-0.954,2.956,0.058,6.283,2.497,8.205
			c2.853,2.248,7.033,2.103,9.718-0.346l136.266-124.243C482.463,136.787,479.138,128.25,472.43,128.25z M351.997,235.402
			l31.396-97.33c1.541-4.776-2.141-9.822-7.152-9.822h-28.806l33.816-81.159h79.906l-35.743,85.783
			c-2.029,4.868,1.672,10.405,6.937,10.405h20.683L351.997,235.402z"/>
	</g>
</g>
<g>
	<g>
		<path d="M464.414,264.517h-56.11c-2.696,0-5.186,1.445-6.525,3.786l-32.063,56.11c-2.815,4.926,0.87,11.243,6.525,11.243h20.499
			l-27.366,61.574c-1.316,2.959-0.542,6.527,1.882,8.673c2.826,2.504,7.205,2.491,10.013-0.035l80.157-72.141
			c5.015-4.513,1.71-13.101-5.027-13.101h-11.098l25.638-44.867C473.754,270.835,470.069,264.517,464.414,264.517z M425.827,324.413
			c-2.814,4.926,0.87,11.243,6.525,11.243h4.464l-39.379,35.441l17.735-39.904c2.172-4.887-1.529-10.567-6.867-10.567H389.19
			l23.475-41.08h38.8L425.827,324.413z"/>
	</g>
</g>
<g>
	<g>
		<path d="M318.617,164.055c-1.345-2.317-3.82-3.742-6.5-3.742h-56.11c-2.696,0-5.186,1.445-6.525,3.786l-32.063,56.11
			c-2.814,4.926,0.87,11.243,6.525,11.243h20.499l-27.366,61.574c-1.316,2.959-0.542,6.527,1.882,8.673
			c2.826,2.504,7.205,2.491,10.013-0.035l80.157-72.141c5.015-4.513,1.71-13.101-5.027-13.101h-11.098l25.638-44.867
			C319.97,169.231,319.96,166.373,318.617,164.055z M273.53,220.209c-2.815,4.926,0.87,11.243,6.525,11.243h4.464l-39.379,35.441
			l17.735-39.904c2.172-4.887-1.529-10.567-6.867-10.567h-19.113l23.475-41.08h38.8L273.53,220.209z"/>
	</g>
</g>
<g>
</g>
<g>
</g>
<g>
</g>
<g>
</g>
<g>
</g>
<g>
</g>
<g>
</g>
<g>
</g>
<g>
</g>
<g>
</g>
<g>
</g>
<g>
</g>
<g>
</g>
<g>
</g>
<g>
</g>
</svg>
