<?xml version="1.0" encoding="iso-8859-1"?>
<!-- Generator: Adobe Illustrator 19.0.0, SVG Export Plug-In . SVG Version: 6.00 Build 0)  -->
<svg version="1.1" id="Capa_1" xmlns="http://www.w3.org/2000/svg" xmlns:xlink="http://www.w3.org/1999/xlink" x="0px" y="0px"
	 viewBox="0 0 512 512" style="enable-background:new 0 0 512 512;" xml:space="preserve">
<g>
	<g>
		<path d="M342.202,245.229c9.413-10.685,23.641-26.831,23.641-64.91c0-16.654-6.91-32.005-19.458-43.227
			c-12.618-11.284-30.181-17.498-49.454-17.498c-14.77,0-29.266,6.117-40.807,17.018c-11.564-10.9-26.148-17.018-41.056-17.018
			c-19.273,0-36.836,6.214-49.454,17.498c-12.548,11.222-19.458,26.573-19.458,43.227c0,38.077,14.228,54.225,23.642,64.91
			c7.745,8.791,10.355,11.752,5.683,22.03c-9.822,21.609-10.054,44.937-8.517,60.701c1.852,18.996,7.29,37.068,14.548,48.34
			c5.169,8.028,10.95,12.099,17.182,12.099c9.21,0,13.188-9.825,14.495-13.054c2.284-5.64,4.134-12.869,6.278-21.238
			c7.811-30.506,15.951-55.757,36.531-55.757s28.72,25.251,36.531,55.757c2.143,8.37,3.994,15.598,6.278,21.238
			c1.308,3.228,5.285,13.054,14.495,13.054c6.232,0,12.012-4.071,17.182-12.099c7.258-11.272,12.697-29.344,14.548-48.34
			c1.536-15.764,1.306-39.091-8.517-60.701C331.847,256.981,334.457,254.02,342.202,245.229z M322.836,273.478
			c12.514,27.531,8.571,65.968-1.493,88.155c-3.006,6.627-5.711,9.808-7.236,11.08c-2.288-3.873-4.983-14.397-7.016-22.336
			c-3.534-13.804-7.541-29.45-14.591-42.334c-8.979-16.406-21.259-24.724-36.499-24.724c-15.241,0-27.521,8.318-36.499,24.724
			c-7.052,12.885-11.058,28.531-14.591,42.334c-2.033,7.938-4.727,18.462-7.016,22.336c-1.525-1.271-4.23-4.452-7.236-11.08
			c-10.064-22.188-14.006-60.624-1.493-88.155c8.697-19.134,0.163-28.819-8.089-38.186c-8.861-10.057-19.89-22.572-19.89-54.973
			c0-26.479,22.661-45.696,53.882-45.696c11.122,0,22.496,4.982,31.349,13.531c-5.778,8.237-9.497,12.37-23.163,12.37
			c-4.15,0-7.515,3.365-7.515,7.515c0,4.15,3.365,7.515,7.515,7.515c22.422,0,29.668-10.422,36.676-20.501
			c0.509-0.731,1.043-1.49,1.576-2.245c0.136-0.139,0.274-0.278,0.399-0.429c9.383-11.284,22.15-17.756,35.026-17.756
			c31.222,0,53.882,19.219,53.882,45.696c0.001,32.401-11.028,44.917-19.889,54.973
			C322.672,244.659,314.139,254.344,322.836,273.478z"/>
	</g>
</g>
<g>
	<g>
		<path d="M504.485,248.485H487.82c-1.87-59.139-25.77-114.468-67.804-156.501c-42.034-42.033-97.361-65.934-156.501-67.804V7.515
			C263.515,3.365,260.15,0,256,0s-7.515,3.365-7.515,7.515V24.18c-59.14,1.871-114.468,25.77-156.501,67.804
			c-42.033,42.034-65.934,97.361-67.804,156.501H7.515C3.365,248.485,0,251.85,0,256s3.365,7.515,7.515,7.515H24.18
			c1.871,59.14,25.77,114.468,67.804,156.501c42.034,42.033,97.361,65.934,156.501,67.804v16.666c0,4.15,3.365,7.515,7.515,7.515
			s7.515-3.365,7.515-7.515V487.82c59.14-1.87,114.468-25.77,156.501-67.804c42.033-42.034,65.934-97.361,67.804-156.501h16.666
			c4.15,0,7.515-3.365,7.515-7.515S508.635,248.485,504.485,248.485z M464.407,263.515h8.372
			c-3.891,113.649-95.616,205.374-209.265,209.265v-8.372c0-4.15-3.365-7.515-7.515-7.515s-7.515,3.365-7.515,7.515v8.372
			c-113.649-3.891-205.374-95.616-209.265-209.265h8.372c4.15,0,7.515-3.365,7.515-7.515s-3.365-7.515-7.515-7.515h-8.372
			c3.891-113.649,95.616-205.374,209.265-209.265v8.372c0,4.15,3.365,7.515,7.515,7.515s7.515-3.365,7.515-7.515v-8.372
			c113.649,3.891,205.374,95.616,209.265,209.265h-8.372c-4.15,0-7.515,3.365-7.515,7.515S460.257,263.515,464.407,263.515z"/>
	</g>
</g>
<g>
	<g>
		<path d="M386.789,126.778c-2.917-2.952-7.675-2.982-10.628-0.063c-2.952,2.917-2.981,7.675-0.063,10.627
			C407.524,169.144,424.83,211.286,424.83,256c0,93.093-75.737,168.83-168.83,168.83S87.17,349.093,87.17,256
			S162.907,87.17,256,87.17c33.187,0,65.304,9.62,92.876,27.819c3.464,2.286,8.126,1.333,10.411-2.132
			c2.286-3.464,1.332-8.125-2.132-10.411C327.118,82.62,292.14,72.141,256,72.141C154.62,72.141,72.141,154.62,72.141,256
			S154.62,439.859,256,439.859S439.859,357.38,439.859,256C439.859,207.305,421.011,161.413,386.789,126.778z"/>
	</g>
</g>
<g>
</g>
<g>
</g>
<g>
</g>
<g>
</g>
<g>
</g>
<g>
</g>
<g>
</g>
<g>
</g>
<g>
</g>
<g>
</g>
<g>
</g>
<g>
</g>
<g>
</g>
<g>
</g>
<g>
</g>
</svg>
