<?xml version="1.0" encoding="iso-8859-1"?>
<!-- Generator: Adobe Illustrator 19.0.0, SVG Export Plug-In . SVG Version: 6.00 Build 0)  -->
<svg version="1.1" id="Capa_1" xmlns="http://www.w3.org/2000/svg" xmlns:xlink="http://www.w3.org/1999/xlink" x="0px" y="0px"
	 viewBox="0 0 512 512" style="enable-background:new 0 0 512 512;" xml:space="preserve">
<g>
	<g>
		<path d="M507.446,309.211c-9.071-3.888-18.555-9.271-28.995-16.46c-3.422-2.354-8.099-1.489-10.451,1.928
			c-2.355,3.419-1.491,8.098,1.927,10.451c4.76,3.277,9.353,6.215,13.825,8.837c-38.607,12.861-60.845,35.935-82.444,58.347
			c-31.987,33.19-62.198,64.541-145.309,64.541s-113.323-31.349-145.309-64.541c-13.315-13.816-26.879-27.881-44.364-39.652
			c35.158,6.674,61.646,14.237,84.406,20.74c35.833,10.238,64.136,18.325,105.267,18.325c41.993,0,71.865-8.789,106.452-18.968
			c12.675-3.729,25.782-7.587,40.764-11.449c4.02-1.036,6.438-5.134,5.402-9.153c-1.035-4.018-5.127-6.435-9.153-5.401
			c-15.228,3.927-28.459,7.82-41.255,11.586c-34.852,10.255-62.381,18.356-102.209,18.356c-39.026,0-66.436-7.831-101.137-17.746
			c-22.683-6.481-48.996-13.999-83.768-20.689c57.788-4.653,140.92-10.662,184.907-10.662c28.726,0,75.622,2.493,139.381,7.411
			c4.152,0.312,7.751-2.776,8.071-6.915c0.319-4.138-2.776-7.751-6.914-8.07c-64.145-4.947-111.428-7.455-140.539-7.455
			c-52.463,0-159.584,8.421-214.712,13.069c10.817-7.393,21.175-15.596,31.341-23.667c30.129-23.92,58.587-46.513,95.198-46.513
			c39.482,0,80.228,27.998,80.662,40.833c0.137,4.049,3.46,7.261,7.511,7.261c4.052,0,7.373-3.212,7.511-7.261
			c0.124-3.676,3.917-9.119,10.147-14.557c3.126-2.729,3.448-7.477,0.718-10.604c-2.728-3.126-7.476-3.448-10.603-0.718
			c-3.051,2.664-5.666,5.357-7.826,8.047c-16.052-19.95-54.769-38.032-88.12-38.032c-41.852,0-73.722,25.303-104.542,49.772
			c-18.621,14.783-37.874,30.069-58.732,39.008c-2.955,1.267-4.831,4.412-4.52,7.615c0.313,3.218,2.737,5.964,5.907,6.64
			c46.381,9.94,69.477,33.904,93.929,59.277c32.758,33.992,66.632,69.141,156.131,69.141s123.373-35.149,156.131-69.141
			c24.452-25.373,47.548-49.339,93.93-59.278c3.116-0.667,5.522-3.318,5.89-6.482C512.327,313.719,510.468,310.506,507.446,309.211z
			"/>
	</g>
</g>
<g>
	<g>
		<path d="M448.376,132.258c-26.796,0-48.595-28.992-48.595-64.627c0-4.15-3.364-7.515-7.515-7.515
			c-4.151,0-7.515,3.365-7.515,7.515c0,35.635-21.8,64.627-48.595,64.627c-4.151,0-7.515,3.365-7.515,7.515s3.364,7.515,7.515,7.515
			c26.796,0,48.595,28.992,48.595,64.627c0,4.15,3.364,7.515,7.515,7.515c4.151,0,7.515-3.365,7.515-7.515
			c0-35.635,21.8-64.627,48.595-64.627c4.151,0,7.515-3.365,7.515-7.515S452.527,132.258,448.376,132.258z M392.266,174.383
			c-6.469-15.096-16.716-27.299-29.141-34.611c12.425-7.311,22.672-19.515,29.141-34.611c6.469,15.096,16.716,27.3,29.141,34.611
			C408.982,147.084,398.735,159.288,392.266,174.383z"/>
	</g>
</g>
<g>
	<g>
		<path d="M352.187,220.43c-17.652,0-32.564-22.254-32.564-48.595c0-4.15-3.364-7.515-7.515-7.515s-7.515,3.365-7.515,7.515
			c0,26.342-14.912,48.595-32.564,48.595c-4.151,0-7.515,3.365-7.515,7.515c0,4.15,3.364,7.515,7.515,7.515
			c17.652,0,32.564,22.254,32.564,48.595c0,4.15,3.364,7.515,7.515,7.515s7.515-3.365,7.515-7.515
			c0-26.342,14.912-48.595,32.564-48.595c4.151,0,7.515-3.365,7.515-7.515C359.702,223.795,356.338,220.43,352.187,220.43z
			 M317.731,240.012c-2.116,2.963-3.995,6.162-5.623,9.553c-1.628-3.391-3.507-6.59-5.623-9.553
			c-3.502-4.903-7.489-8.95-11.828-12.067c4.341-3.117,8.326-7.164,11.828-12.067c2.116-2.963,3.995-6.162,5.623-9.553
			c1.628,3.391,3.507,6.59,5.623,9.553c3.502,4.903,7.489,8.95,11.828,12.067C325.219,231.062,321.233,235.109,317.731,240.012z"/>
	</g>
</g>
<g>
	<g>
		<path d="M472.423,268.525c-17.652,0-32.564-22.254-32.564-48.595c0-4.15-3.364-7.515-7.515-7.515s-7.515,3.365-7.515,7.515
			c0,26.342-14.912,48.595-32.564,48.595c-4.151,0-7.515,3.365-7.515,7.515s3.364,7.515,7.515,7.515
			c17.652,0,32.564,22.254,32.564,48.595c0,4.15,3.364,7.515,7.515,7.515s7.515-3.365,7.515-7.515
			c0-26.342,14.912-48.595,32.564-48.595c4.151,0,7.515-3.365,7.515-7.515S476.574,268.525,472.423,268.525z M437.967,288.106
			c-2.116,2.963-3.995,6.162-5.623,9.553c-1.628-3.391-3.507-6.59-5.623-9.553c-3.502-4.903-7.489-8.95-11.828-12.067
			c4.34-3.117,8.326-7.164,11.828-12.067c2.116-2.963,3.995-6.162,5.623-9.553c1.628,3.391,3.507,6.59,5.623,9.553
			c3.502,4.903,7.489,8.95,11.828,12.067C445.456,279.157,441.469,283.204,437.967,288.106z"/>
	</g>
</g>
<g>
</g>
<g>
</g>
<g>
</g>
<g>
</g>
<g>
</g>
<g>
</g>
<g>
</g>
<g>
</g>
<g>
</g>
<g>
</g>
<g>
</g>
<g>
</g>
<g>
</g>
<g>
</g>
<g>
</g>
</svg>
