<?xml version="1.0" encoding="iso-8859-1"?>
<!-- Generator: Adobe Illustrator 19.0.0, SVG Export Plug-In . SVG Version: 6.00 Build 0)  -->
<svg version="1.1" id="Capa_1" xmlns="http://www.w3.org/2000/svg" xmlns:xlink="http://www.w3.org/1999/xlink" x="0px" y="0px"
	 viewBox="0 0 512 512" style="enable-background:new 0 0 512 512;" xml:space="preserve">
<g>
	<g>
		<path d="M504.479,424.83h-35.89l-28.381-78.048c-3.946-10.85-14.352-18.139-25.897-18.139h-46.6V7.515
			c0-4.151-3.365-7.515-7.515-7.515H255.993c-1.993,0-3.905,0.792-5.313,2.2l-32.416,32.417l-0.355-0.355
			c-2.935-2.934-7.693-2.934-10.627,0l-11.691,11.691l-6.023-6.022c-1.867-1.866-4.576-2.616-7.136-1.977L137.089,49.29
			c-5.557,1.389-7.549,8.546-3.491,12.605l68.015,68.015c4.058,4.058,11.216,2.061,12.604-3.491l11.336-45.344
			c0.64-2.561-0.11-5.27-1.977-7.137l-6.022-6.022l11.69-11.69c2.935-2.936,2.935-7.693,0-10.628l-0.354-0.354l30.216-30.216h93.577
			v313.612h-89.174v-33.065h24.548c4.15,0,7.515-3.364,7.515-7.515s-3.365-7.515-7.515-7.515h-64.125
			c-4.15,0-7.515,3.364-7.515,7.515s3.365,7.515,7.515,7.515h24.548v33.065h-25.158l-176.29-176.29
			c-10.743-10.742-28.224-10.742-38.967,0c-10.744,10.744-10.744,28.225,0,38.969l34.569,34.568
			c2.935,2.936,7.693,2.935,10.627,0.001c2.935-2.935,2.935-7.693,0-10.628l-34.569-34.57c-4.884-4.884-4.884-12.829,0-17.713
			c4.884-4.885,12.829-4.885,17.713,0l178.491,178.492c1.409,1.409,3.32,2.2,5.313,2.2h194.104c5.247,0,9.977,3.314,11.771,8.245
			l26.514,72.912h-26.653l-18.605-51.163c-1.08-2.97-3.903-4.947-7.062-4.947H211.908c-3.346,0-6.491-1.303-8.856-3.668
			L80.147,242.147c-2.935-2.934-7.693-2.934-10.627,0c-2.935,2.936-2.935,7.693,0,10.628L192.426,375.68
			c5.204,5.203,12.124,8.07,19.483,8.07h4.509v113.221h-17.534c-4.15,0-7.515,3.364-7.515,7.515s3.365,7.515,7.515,7.515h113.221
			c4.15,0,7.515-3.364,7.515-7.515s-3.365-7.515-7.515-7.515h-16.532V383.75h99.441l18.604,51.163
			c1.08,2.97,3.903,4.947,7.062,4.947h83.8c4.15,0,7.515-3.364,7.515-7.515S508.629,424.83,504.479,424.83z M202.855,109.898
			L153.61,60.653l28.339-7.085l27.991,27.991L202.855,109.898z M206.927,57.289l-0.708-0.708l6.376-6.376l0.708,0.708
			L206.927,57.289z M280.542,496.971h-49.096V383.75h49.096V496.971z"/>
	</g>
</g>
<g>
</g>
<g>
</g>
<g>
</g>
<g>
</g>
<g>
</g>
<g>
</g>
<g>
</g>
<g>
</g>
<g>
</g>
<g>
</g>
<g>
</g>
<g>
</g>
<g>
</g>
<g>
</g>
<g>
</g>
</svg>
