<?xml version="1.0" encoding="iso-8859-1"?>
<!-- Generator: Adobe Illustrator 19.0.0, SVG Export Plug-In . SVG Version: 6.00 Build 0)  -->
<svg version="1.1" id="Capa_1" xmlns="http://www.w3.org/2000/svg" xmlns:xlink="http://www.w3.org/1999/xlink" x="0px" y="0px"
	 viewBox="0 0 512 512" style="enable-background:new 0 0 512 512;" xml:space="preserve">
<g>
	<g>
		<path d="M480.438,80.157h-45.357c-7.136-22.963-21.796-42.586-42.579-56.864C370.322,8.055,342.522,0,312.11,0
			c-29.215,0-57.916,13.129-79.918,36.299C210.319,13.434,180.833,0,151.796,0c-35.968,0-68.657,11.518-92.045,32.433
			c-23.025,20.591-35.705,48.748-35.705,79.285c0,71.848,25.72,101.039,44.501,122.352c15.552,17.651,23.36,26.512,12.282,50.882
			c-11.9,26.183-17.904,58.139-17.361,92.414c0.064,4.109,3.417,7.395,7.511,7.395c0.041,0,0.081,0,0.122-0.001
			c4.15-0.065,7.46-3.484,7.394-7.633c-0.508-32.064,5.031-61.787,16.016-85.956c15.103-33.227,1.298-48.896-14.688-67.037
			c-18.154-20.603-40.749-46.245-40.749-112.417c0-56.025,47.406-96.689,112.72-96.689c25.496,0,51.536,12.211,70.718,32.916
			c-0.373,0.535-0.75,1.075-1.118,1.604c-12.814,18.431-21.279,30.607-53.569,30.607c-4.151,0-7.515,3.364-7.515,7.515
			c0,4.151,3.364,7.515,7.515,7.515c40.144,0,52.084-17.173,65.908-37.056c1.121-1.612,2.274-3.262,3.458-4.932
			c0.279-0.248,0.546-0.51,0.789-0.801c19.748-23.747,46.766-37.368,74.128-37.368c51.248,0,92.443,25.333,107.111,65.127H256
			c-4.151,0-7.515,3.364-7.515,7.515v160.313c0,4.081,3.43,7.515,7.515,7.515h108.101c-2.593,10.606-0.871,22.114,5.292,35.674
			c13.418,29.52,18.672,67.702,14.791,107.515c-3.249,33.343-12.85,65.832-25.056,84.787c-6.409,9.95-11.928,13.496-14.956,13.496
			c-0.03,0-3.107-0.133-7.78-11.674c-3.912-9.664-7.532-23.798-11.364-38.764c-13.604-53.136-32.238-125.907-93.075-125.907
			c-60.837,0-79.469,72.771-93.076,125.906c-3.833,14.966-7.453,29.101-11.364,38.764c-4.672,11.542-7.749,11.675-7.779,11.675
			c-4.488,0-12.593-7.285-20.58-23.561c-8.512-17.345-15.013-40.434-18.309-65.016c-0.552-4.114-4.336-7.004-8.447-6.451
			c-4.113,0.552-7.001,4.332-6.451,8.446C72.551,459.649,93.646,512,119.734,512c17.894,0,24.526-25.898,33.703-61.74
			c6.598-25.763,14.075-54.963,26.542-77.746c13.573-24.802,30.575-36.859,51.974-36.859c21.4,0,38.401,12.057,51.975,36.859
			c12.467,22.781,19.945,51.983,26.541,77.746c9.178,35.842,15.81,61.74,33.704,61.74c9.597,0,18.881-6.86,27.593-20.391
			c25.215-39.159,43.753-135.285,11.311-206.657c-7.025-15.454-5.492-23.861-3.239-29.453h100.602c4.085,0,7.515-3.434,7.515-7.515
			V87.671C487.953,83.52,484.59,80.157,480.438,80.157z M263.515,126.32l67.025,47.875l-67.025,57.45V126.32z M276.314,240.47
			l66.823-57.277l20.715,14.797c2.584,1.847,6.152,1.847,8.736,0l20.714-14.796l66.823,57.276H276.314z M472.924,231.645
			l-67.026-57.45l67.026-47.874V231.645z M472.924,107.852l-104.705,74.789l-104.705-74.789V95.186h209.409V107.852z"/>
	</g>
</g>
<g>
</g>
<g>
</g>
<g>
</g>
<g>
</g>
<g>
</g>
<g>
</g>
<g>
</g>
<g>
</g>
<g>
</g>
<g>
</g>
<g>
</g>
<g>
</g>
<g>
</g>
<g>
</g>
<g>
</g>
</svg>
