<?xml version="1.0" encoding="iso-8859-1"?>
<!-- Generator: Adobe Illustrator 19.0.0, SVG Export Plug-In . SVG Version: 6.00 Build 0)  -->
<svg version="1.1" id="Capa_1" xmlns="http://www.w3.org/2000/svg" xmlns:xlink="http://www.w3.org/1999/xlink" x="0px" y="0px"
	 viewBox="0 0 511.999 511.999" style="enable-background:new 0 0 511.999 511.999;" xml:space="preserve">
<g>
	<g>
		<path d="M392.628,0h-273.26c-4.162,0-7.535,3.373-7.535,7.535v121.058c0,4.162,3.373,7.535,7.535,7.535s7.535-3.372,7.535-7.535
			V15.069h258.19v177.82h-258.19v-28.13c0-4.162-3.373-7.535-7.535-7.535s-7.535,3.372-7.535,7.535v35.664
			c0,4.162,3.373,7.535,7.535,7.535h64.799v40.396c-7.006,2.893-13.361,6.807-18.795,11.668
			c-12.581,11.251-19.511,26.644-19.511,43.343c0,38.18,14.266,54.37,23.705,65.083c7.766,8.814,10.383,11.783,5.698,22.089
			c-9.848,21.667-10.079,45.057-8.539,60.862c1.857,19.048,7.31,37.167,14.588,48.469c5.183,8.05,10.98,12.131,17.227,12.131
			c9.234,0,13.223-9.851,14.534-13.087c2.29-5.656,4.146-12.905,6.295-21.296c7.832-30.586,15.995-55.905,36.629-55.905
			s28.797,25.319,36.629,55.905c2.149,8.393,4.004,15.64,6.295,21.296c1.311,3.237,5.299,13.087,14.534,13.087
			c6.249,0,12.045-4.082,17.227-12.131c7.278-11.302,12.732-29.422,14.588-48.469c1.54-15.805,1.309-39.195-8.539-60.862
			c-4.685-10.305-2.069-13.275,5.698-22.089c9.44-10.713,23.705-26.903,23.705-65.083c0-16.698-6.929-32.091-19.511-43.343
			c-5.434-4.859-11.787-8.774-18.795-11.668v-40.396h64.799c4.162,0,7.535-3.373,7.535-7.535V7.535
			C400.163,3.373,396.789,0,392.628,0z M199.237,207.959H312.76v35.972c-5.061-0.948-10.321-1.452-15.721-1.452
			c-14.809,0-29.344,6.133-40.916,17.063c-11.595-10.929-26.219-17.063-41.167-17.063c-5.4,0-10.659,0.503-15.72,1.452V207.959z
			 M351.066,303.365c0,32.488-11.058,45.038-19.943,55.121c-8.274,9.391-16.831,19.102-8.11,38.286
			c12.548,27.604,8.595,66.144-1.497,88.39c-3.014,6.645-5.725,9.833-7.255,11.108c-2.295-3.882-4.997-14.435-7.034-22.394
			c-3.543-13.84-7.561-29.528-14.63-42.447c-9.003-16.45-21.315-24.79-36.597-24.79c-15.281,0-27.594,8.34-36.597,24.79
			c-7.07,12.919-11.087,28.607-14.63,42.447c-2.037,7.96-4.74,18.512-7.034,22.394c-1.529-1.275-4.242-4.463-7.255-11.108
			c-10.091-22.247-14.045-60.787-1.497-88.39c8.72-19.185,0.164-28.896-8.11-38.286c-8.885-10.083-19.943-22.633-19.943-55.121
			c0-26.548,22.721-45.817,54.026-45.817c11.151,0,22.555,4.995,31.433,13.568c-5.795,8.258-9.523,12.403-23.225,12.403
			c-4.162,0-7.535,3.372-7.535,7.535c0,4.162,3.372,7.535,7.535,7.535c22.481,0,29.746-10.449,36.772-20.555
			c0.51-0.733,1.046-1.493,1.58-2.25c0.138-0.141,0.275-0.28,0.403-0.433c9.408-11.314,22.208-17.803,35.119-17.803
			C328.345,257.547,351.066,276.817,351.066,303.365z"/>
	</g>
</g>
<g>
	<g>
		<path d="M320.295,72.333h-32.651V39.683c0-4.162-3.374-7.535-7.535-7.535h-48.222c-4.162,0-7.535,3.373-7.535,7.535v32.651
			h-32.651c-4.162,0-7.535,3.372-7.535,7.535v48.222c0,4.162,3.373,7.535,7.535,7.535h32.651v32.651
			c0,4.162,3.373,7.535,7.535,7.535h48.222c4.162,0,7.535-3.373,7.535-7.535v-32.651h32.651c4.162,0,7.535-3.372,7.535-7.535V79.868
			C327.83,75.706,324.457,72.333,320.295,72.333z M312.76,120.556H280.11c-4.162,0-7.535,3.373-7.535,7.535v32.651h-33.153V128.09
			c0-4.162-3.373-7.535-7.535-7.535h-32.651V87.403h32.651c4.162,0,7.535-3.373,7.535-7.535V47.218h33.153v32.651
			c0,4.162,3.373,7.535,7.535,7.535h32.651V120.556z"/>
	</g>
</g>
<g>
</g>
<g>
</g>
<g>
</g>
<g>
</g>
<g>
</g>
<g>
</g>
<g>
</g>
<g>
</g>
<g>
</g>
<g>
</g>
<g>
</g>
<g>
</g>
<g>
</g>
<g>
</g>
<g>
</g>
</svg>
