<?xml version="1.0" encoding="iso-8859-1"?>
<!-- Generator: Adobe Illustrator 19.0.0, SVG Export Plug-In . SVG Version: 6.00 Build 0)  -->
<svg version="1.1" id="Capa_1" xmlns="http://www.w3.org/2000/svg" xmlns:xlink="http://www.w3.org/1999/xlink" x="0px" y="0px"
	 viewBox="0 0 512.002 512.002" style="enable-background:new 0 0 512.002 512.002;" xml:space="preserve">
<g>
	<g>
		<path d="M340.266,265.546c9.408-10.677,23.626-26.813,23.626-64.862c0-16.642-6.905-31.982-19.445-43.196
			c-12.608-11.276-30.159-17.485-49.417-17.485c-14.759,0-29.245,6.112-40.777,17.006c-11.555-10.892-26.13-17.006-41.027-17.006
			c-19.258,0-36.809,6.21-49.417,17.485c-12.538,11.213-19.444,26.553-19.444,43.196c0,38.049,14.217,54.185,23.625,64.862
			c7.74,8.784,10.348,11.743,5.679,22.014c-9.815,21.593-10.046,44.904-8.51,60.656c1.85,18.982,7.285,37.041,14.538,48.305
			c5.166,8.023,10.942,12.09,17.17,12.09c9.203,0,13.178-9.818,14.484-13.044c2.282-5.636,4.131-12.86,6.274-21.223
			c7.805-30.483,15.939-55.716,36.504-55.716s28.699,25.233,36.505,55.716c2.142,8.364,3.991,15.587,6.274,21.223
			c1.307,3.226,5.281,13.044,14.485,13.044c6.228,0,12.004-4.068,17.169-12.09c7.253-11.264,12.687-29.322,14.538-48.305
			c1.536-15.752,1.305-39.062-8.51-60.656C329.918,277.29,332.525,274.331,340.266,265.546z M320.916,293.775
			c12.504,27.51,8.564,65.919-1.492,88.09c-3.004,6.622-5.707,9.801-7.231,11.071c-2.287-3.87-4.979-14.387-7.011-22.319
			c-3.531-13.793-7.535-29.428-14.581-42.303c-8.972-16.394-21.243-24.706-36.472-24.706c-15.23,0-27.5,8.312-36.472,24.706
			c-7.047,12.876-11.049,28.51-14.581,42.304c-2.031,7.932-4.724,18.448-7.01,22.318c-1.524-1.271-4.227-4.448-7.231-11.07
			c-10.057-22.172-13.997-60.58-1.493-88.091c8.692-19.12,0.164-28.798-8.083-38.156c-8.855-10.05-19.875-22.557-19.875-54.934
			c0-26.458,22.645-45.663,53.843-45.663c11.114,0,22.479,4.978,31.326,13.521c-5.775,8.231-9.491,12.361-23.146,12.361
			c-4.147,0-7.509,3.362-7.509,7.509c0,4.147,3.362,7.509,7.509,7.509c22.405,0,29.646-10.415,36.649-20.486
			c0.508-0.731,1.041-1.487,1.574-2.242c0.137-0.14,0.274-0.279,0.4-0.432c9.376-11.276,22.133-17.743,35-17.743
			c31.199,0,53.844,19.204,53.844,45.663c-0.001,32.378-11.02,44.885-19.875,54.935
			C320.752,264.978,312.225,274.655,320.916,293.775z"/>
	</g>
</g>
<g>
	<g>
		<path d="M503.219,126.999c-13.058-41.065-39.633-74.377-72.912-91.391c-28.882-14.768-60.17-16.272-90.484-4.35
			c-31.026,12.202-59.186,37.523-83.822,75.336c-24.635-37.813-52.795-63.135-83.822-75.336
			c-30.314-11.922-61.603-10.418-90.484,4.35C48.417,52.624,21.842,85.934,8.783,126.999c-14.03,44.122-11.178,93.107,8.032,137.93
			c20.012,46.696,65.784,98.416,136.042,153.724c51.981,40.921,98.855,68.734,99.323,69.01c2.333,1.379,5.307,1.379,7.64,0
			c0.73-0.432,73.756-43.81,139.305-102.494c3.09-2.766,3.352-7.513,0.586-10.603c-2.766-3.09-7.514-3.351-10.603-0.586
			c-55.899,50.046-117.371,88.797-133.103,98.438c-26.57-16.304-183.518-115.721-225.383-213.406
			c-17.79-41.509-20.462-86.776-7.524-127.462C34.949,94.278,58.8,64.183,88.533,48.98c55.413-28.333,115.611-0.054,161.029,75.643
			c2.865,4.773,10.013,4.774,12.878,0C307.859,48.925,368.058,20.648,423.469,48.98c29.733,15.204,53.584,45.299,65.436,82.571
			c12.938,40.687,10.266,85.954-7.524,127.462c-11.705,27.312-33.522,57.233-64.846,88.929c-2.916,2.95-2.887,7.704,0.063,10.619
			c2.951,2.916,7.704,2.885,10.619-0.063c32.651-33.04,55.519-64.522,67.968-93.57C514.397,220.106,517.249,171.122,503.219,126.999
			z"/>
	</g>
</g>
<g>
</g>
<g>
</g>
<g>
</g>
<g>
</g>
<g>
</g>
<g>
</g>
<g>
</g>
<g>
</g>
<g>
</g>
<g>
</g>
<g>
</g>
<g>
</g>
<g>
</g>
<g>
</g>
<g>
</g>
</svg>
