<?xml version="1.0" encoding="iso-8859-1"?>
<!-- Generator: Adobe Illustrator 19.0.0, SVG Export Plug-In . SVG Version: 6.00 Build 0)  -->
<svg version="1.1" id="Capa_1" xmlns="http://www.w3.org/2000/svg" xmlns:xlink="http://www.w3.org/1999/xlink" x="0px" y="0px"
	 viewBox="0 0 512 512" style="enable-background:new 0 0 512 512;" xml:space="preserve">
<g>
	<g>
		<path d="M302.122,279.295c9.414-10.685,23.642-26.831,23.642-64.91c0-16.655-6.91-32.005-19.458-43.227
			c-12.618-11.284-30.181-17.498-49.454-17.498c-14.77,0-29.266,6.117-40.807,17.018c-11.564-10.9-26.148-17.018-41.056-17.018
			c-19.273,0-36.836,6.214-49.454,17.498c-12.548,11.222-19.458,26.573-19.458,43.227c0,38.077,14.228,54.225,23.642,64.91
			c7.745,8.791,10.355,11.752,5.683,22.03c-9.822,21.609-10.054,44.937-8.517,60.701c1.852,18.996,7.29,37.068,14.548,48.34
			c5.169,8.028,10.95,12.099,17.182,12.099c9.21,0,13.188-9.825,14.495-13.054c2.284-5.64,4.134-12.869,6.278-21.238
			c7.811-30.506,15.951-55.757,36.531-55.757s28.72,25.251,36.531,55.757c2.143,8.37,3.994,15.598,6.278,21.238
			c1.308,3.228,5.285,13.054,14.495,13.054c6.232,0,12.012-4.071,17.182-12.099c7.258-11.272,12.697-29.344,14.548-48.34
			c1.536-15.764,1.306-39.09-8.518-60.701C291.767,291.047,294.377,288.087,302.122,279.295z M282.757,307.545
			c12.514,27.531,8.571,65.968-1.493,88.155c-3.006,6.627-5.711,9.808-7.236,11.08c-2.288-3.873-4.983-14.397-7.016-22.336
			c-3.534-13.804-7.541-29.45-14.591-42.334c-8.979-16.406-21.258-24.724-36.499-24.724s-27.521,8.318-36.499,24.724
			c-7.052,12.885-11.058,28.531-14.591,42.334c-2.033,7.938-4.727,18.462-7.016,22.336c-1.525-1.271-4.23-4.452-7.236-11.08
			c-10.064-22.188-14.006-60.624-1.493-88.155c8.697-19.134,0.163-28.819-8.089-38.186c-8.861-10.057-19.89-22.572-19.89-54.973
			c0-26.479,22.661-45.696,53.882-45.696c11.122,0,22.496,4.982,31.349,13.531c-5.778,8.237-9.497,12.37-23.163,12.37
			c-4.15,0-7.515,3.365-7.515,7.515c0,4.15,3.365,7.515,7.515,7.515c22.422,0,29.668-10.422,36.676-20.501
			c0.509-0.732,1.043-1.49,1.576-2.245c0.136-0.139,0.273-0.279,0.399-0.429c9.383-11.284,22.15-17.756,35.026-17.756
			c31.222,0,53.882,19.219,53.882,45.696c0,32.401-11.029,44.917-19.89,54.973C282.594,278.725,274.06,288.41,282.757,307.545z"/>
	</g>
</g>
<g>
	<g>
		<path d="M504.485,32.063H351.687V7.515c0-4.15-3.365-7.515-7.515-7.515c-4.15,0-7.515,3.365-7.515,7.515v24.548H223.436V7.515
			c0-4.15-3.365-7.515-7.515-7.515c-4.15,0-7.515,3.365-7.515,7.515v24.548H95.186V7.515c0-4.15-3.365-7.515-7.515-7.515
			c-4.15,0-7.515,3.365-7.515,7.515v24.548H7.515C3.365,32.063,0,35.427,0,39.577v464.908C0,508.635,3.365,512,7.515,512h496.971
			c4.15,0,7.515-3.365,7.515-7.515V39.577C512,35.427,508.635,32.063,504.485,32.063z M344.172,71.139
			c4.696,0,8.517,3.82,8.517,8.517s-3.82,8.517-8.517,8.517c-4.696,0-8.517-3.82-8.517-8.517S339.476,71.139,344.172,71.139z
			 M215.922,71.139c4.696,0,8.517,3.82,8.517,8.517s-3.82,8.517-8.517,8.517s-8.517-3.82-8.517-8.517S211.226,71.139,215.922,71.139
			z M87.671,71.139c4.696,0,8.517,3.82,8.517,8.517s-3.82,8.517-8.517,8.517s-8.517-3.82-8.517-8.517S82.975,71.139,87.671,71.139z
			 M416.814,496.971h-78.547l78.547-78.547V496.971z M327.64,486.344v-78.547h78.547L327.64,486.344z M416.814,392.767h-96.689
			c-4.15,0-7.515,3.365-7.515,7.515v96.689H15.029V127.249h401.785V392.767z M416.814,112.219H15.029V47.092h65.127v10.254
			c-9.308,3.144-16.031,11.953-16.031,22.31c0,12.983,10.563,23.546,23.546,23.546c12.983,0,23.546-10.563,23.546-23.546
			c0-10.356-6.723-19.165-16.031-22.31V47.092h113.221v10.254c-9.308,3.144-16.031,11.953-16.031,22.31
			c0,12.983,10.563,23.546,23.546,23.546c12.983,0,23.546-10.563,23.546-23.546c0-10.356-6.723-19.165-16.031-22.31V47.092h113.221
			v10.254c-9.308,3.144-16.031,11.953-16.031,22.31c0,12.983,10.563,23.546,23.546,23.546c12.983,0,23.546-10.563,23.546-23.546
			c0-10.356-6.723-19.165-16.031-22.31V47.092h65.127V112.219z M472.924,496.971H455.89V195.883c0-4.15-3.365-7.515-7.515-7.515
			s-7.515,3.365-7.515,7.515v301.088h-9.018V47.092h9.018v112.72c0,4.15,3.365,7.515,7.515,7.515s7.515-3.365,7.515-7.515V47.092
			h17.033V496.971z M496.971,496.971h-9.018V47.092h9.018V496.971z"/>
	</g>
</g>
<g>
</g>
<g>
</g>
<g>
</g>
<g>
</g>
<g>
</g>
<g>
</g>
<g>
</g>
<g>
</g>
<g>
</g>
<g>
</g>
<g>
</g>
<g>
</g>
<g>
</g>
<g>
</g>
<g>
</g>
</svg>
