<?xml version="1.0" encoding="iso-8859-1"?>
<!-- Generator: Adobe Illustrator 19.0.0, SVG Export Plug-In . SVG Version: 6.00 Build 0)  -->
<svg version="1.1" id="Capa_1" xmlns="http://www.w3.org/2000/svg" xmlns:xlink="http://www.w3.org/1999/xlink" x="0px" y="0px"
	 viewBox="0 0 511.999 511.999" style="enable-background:new 0 0 511.999 511.999;" xml:space="preserve">
<g>
	<g>
		<path d="M488.419,23.595C473.215,8.389,452.998,0.015,431.495,0.015s-41.72,8.375-56.927,23.579
			c-29.576,29.576-31.271,76.625-5.11,108.22l-75.252,75.253l-6.086-6.086c-2.967-2.966-7.775-2.966-10.741,0l-84.235,84.235
			l-48.908,5.434c-1.694,0.191-3.326,0.971-4.532,2.178L2.225,430.309c-2.966,2.966-2.966,7.775,0,10.74l68.74,68.74
			c2.926,2.926,7.815,2.926,10.74,0l81.011-81.011c2.966-2.966,2.966-7.775,0-10.74c-2.966-2.966-7.775-2.966-10.74,0
			l-75.641,75.641l-57.999-58l126.74-126.74l58,58l-22.626,22.625c-2.966,2.966-2.966,7.775,0,10.74
			c2.966,2.966,7.775,2.966,10.74,0l27.997-27.995c1.207-1.206,1.986-2.837,2.178-4.532l5.434-48.908l84.236-84.235
			c2.924-2.923,2.924-7.817,0-10.74l-6.087-6.087l75.245-75.245c14.404,11.952,32.35,18.464,51.302,18.464
			c21.503,0,41.72-8.375,56.926-23.579c15.206-15.205,23.579-35.422,23.579-56.926S503.625,38.8,488.419,23.595z M208.013,350.394
			l-46.393-46.393l32.222-3.581l17.752,17.752L208.013,350.394z M219.545,304.643l-12.173-12.173l75.378-75.378l12.173,12.173
			L219.545,304.643z M477.678,126.706c-12.336,12.336-28.738,19.131-46.184,19.131s-33.849-6.794-46.185-19.131
			c-25.466-25.467-25.466-66.904,0-92.37C397.647,22,414.049,15.205,431.495,15.205s33.849,6.794,46.184,19.131
			c12.337,12.337,19.132,28.739,19.132,46.185S490.015,114.369,477.678,126.706z"/>
	</g>
</g>
<g>
	<g>
		<path d="M465.506,46.509c-18.755-18.755-49.269-18.755-68.025,0c-18.754,18.754-18.754,49.27,0,68.024
			c9.378,9.377,21.695,14.066,34.013,14.066c12.318,0,24.635-4.689,34.013-14.066C484.26,95.779,484.26,65.263,465.506,46.509z
			 M454.766,103.792c-12.833,12.831-33.712,12.831-46.543,0c-12.832-12.832-12.832-33.712,0-46.543
			c6.415-6.416,14.843-9.624,23.271-9.624c8.427,0,16.856,3.208,23.271,9.624C467.597,70.081,467.597,90.961,454.766,103.792z"/>
	</g>
</g>
<g>
</g>
<g>
</g>
<g>
</g>
<g>
</g>
<g>
</g>
<g>
</g>
<g>
</g>
<g>
</g>
<g>
</g>
<g>
</g>
<g>
</g>
<g>
</g>
<g>
</g>
<g>
</g>
<g>
</g>
</svg>
