<?xml version="1.0" encoding="iso-8859-1"?>
<!-- Generator: Adobe Illustrator 19.0.0, SVG Export Plug-In . SVG Version: 6.00 Build 0)  -->
<svg version="1.1" id="Capa_1" xmlns="http://www.w3.org/2000/svg" xmlns:xlink="http://www.w3.org/1999/xlink" x="0px" y="0px"
	 viewBox="0 0 512 512" style="enable-background:new 0 0 512 512;" xml:space="preserve">
<g>
	<g>
		<path d="M191.875,24.047h-32.063c-4.151,0-7.515,3.365-7.515,7.515s3.364,7.515,7.515,7.515h32.063
			c4.151,0,7.515-3.365,7.515-7.515S196.026,24.047,191.875,24.047z"/>
	</g>
</g>
<g>
	<g>
		<path d="M175.843,440.861c-12.983,0-23.546,10.563-23.546,23.546s10.563,23.546,23.546,23.546s23.546-10.563,23.546-23.546
			S188.827,440.861,175.843,440.861z M175.843,472.924c-4.696,0-8.517-3.82-8.517-8.517s3.82-8.517,8.517-8.517
			s8.517,3.82,8.517,8.517S180.54,472.924,175.843,472.924z"/>
	</g>
</g>
<g>
	<g>
		<path d="M328.141,80.157c-0.167,0-0.334,0.005-0.501,0.006V39.577C327.64,17.755,309.885,0,288.063,0H63.624
			C41.802,0,24.047,17.755,24.047,39.577v432.845c0,21.823,17.755,39.577,39.577,39.577h224.438
			c21.823,0,39.577-17.755,39.577-39.577V367.713c0.167,0,0.334,0.005,0.501,0.005c88.12,0,159.812-64.5,159.812-143.781
			S416.261,80.157,328.141,80.157z M312.611,472.423c0,13.535-11.012,24.548-24.548,24.548H63.624
			c-13.536,0-24.548-11.013-24.548-24.548v-40.579h273.534V472.423z M312.611,416.814H39.076V63.123h32.897
			c4.151,0,7.515-3.365,7.515-7.515c0-4.15-3.364-7.515-7.515-7.515H39.076v-8.517c0-13.535,11.012-24.548,24.548-24.548h224.438
			c13.536,0,24.548,11.013,24.548,24.548v8.517H116.06c-4.151,0-7.515,3.365-7.515,7.515c0,4.15,3.364,7.515,7.515,7.515h196.551
			v17.714c-80.86,7.049-144.282,68.533-144.282,143.1c0,41.193,19.481,80.125,53.599,107.434l-5.474,60.215
			c-0.512,5.625,5.435,9.867,10.593,7.522l73.707-33.502c3.925,0.61,7.884,1.081,11.857,1.428V416.814z M328.141,352.689
			c-9.098,0-18.241-0.766-27.177-2.275c-1.476-0.25-2.996-0.052-4.362,0.568l-64.012,29.096l4.675-51.432
			c0.234-2.583-0.878-5.104-2.945-6.67c-32.387-24.539-50.963-60.273-50.963-98.037c0-70.994,64.949-128.751,144.783-128.751
			s144.783,57.758,144.783,128.751S407.975,352.689,328.141,352.689z"/>
	</g>
</g>
<g>
	<g>
		<path d="M392.051,222.979c7.017-7.964,17.62-19.998,17.62-48.325c0-26.226-22.323-46.003-51.924-46.003
			c-10.616,0-21.029,4.146-29.518,11.58c-8.507-7.434-18.984-11.58-29.695-11.58c-29.602,0-51.923,19.777-51.923,46.003
			c0,28.327,10.604,40.362,17.62,48.324c5.463,6.2,6.6,7.491,3.777,13.7c-12.839,28.25-5.632,65.11,4.508,80.857
			c4.147,6.439,8.915,9.704,14.176,9.704c10.288,0,13.267-11.636,17.039-26.367c5.432-21.209,11.016-38.766,24.41-38.766
			s18.978,17.556,24.409,38.766c3.772,14.732,6.751,26.367,17.039,26.367c5.26,0,10.03-3.265,14.176-9.705
			c10.14-15.748,17.348-52.607,4.508-80.856C385.451,230.47,386.587,229.18,392.051,222.979z M380.775,213.043
			c-6.109,6.932-13.032,14.789-6.185,29.854c5.424,11.93,6.925,28.065,4.119,44.266c-1.954,11.286-5.415,19.086-7.95,22.834
			c-1.235-3.423-2.58-8.673-3.651-12.853c-5.106-19.938-12.82-50.068-38.969-50.068c-26.149,0-33.864,30.13-38.969,50.068
			c-1.07,4.18-2.415,9.43-3.652,12.853c-2.533-3.746-5.995-11.548-7.95-22.834c-2.805-16.202-1.304-32.336,4.119-44.266
			c6.847-15.065-0.075-22.922-6.184-29.854c-6.178-7.012-13.867-15.738-13.867-38.388c0-17.947,15.516-30.973,36.894-30.973
			c6.973,0,14.111,2.921,19.913,7.992c-3.389,4.614-5.96,6.585-13.991,6.585c-4.151,0-7.515,3.365-7.515,7.515
			c0,4.15,3.364,7.515,7.515,7.515c17.305,0,23.111-8.351,28.235-15.721c0.345-0.496,0.708-1.01,1.068-1.521
			c0.083-0.091,0.172-0.175,0.251-0.271c6.391-7.685,15.043-12.094,23.735-12.094c21.379,0,36.895,13.026,36.895,30.973
			C394.642,197.304,386.953,206.031,380.775,213.043z"/>
	</g>
</g>
<g>
</g>
<g>
</g>
<g>
</g>
<g>
</g>
<g>
</g>
<g>
</g>
<g>
</g>
<g>
</g>
<g>
</g>
<g>
</g>
<g>
</g>
<g>
</g>
<g>
</g>
<g>
</g>
<g>
</g>
</svg>
