<?xml version="1.0" encoding="iso-8859-1"?>
<!-- Generator: Adobe Illustrator 19.0.0, SVG Export Plug-In . SVG Version: 6.00 Build 0)  -->
<svg version="1.1" id="Capa_1" xmlns="http://www.w3.org/2000/svg" xmlns:xlink="http://www.w3.org/1999/xlink" x="0px" y="0px"
	 viewBox="0 0 512 512" style="enable-background:new 0 0 512 512;" xml:space="preserve">
<g>
	<g>
		<path d="M368.219,0H143.781c-21.823,0-39.577,17.755-39.577,39.577v432.845c0,21.823,17.755,39.577,39.577,39.577h224.438
			c21.823,0,39.577-17.755,39.577-39.577V39.577C407.796,17.755,390.042,0,368.219,0z M392.767,472.423
			c0,13.536-11.012,24.548-24.548,24.548H143.781c-13.535,0-24.548-11.011-24.548-24.548v-40.579h273.534V472.423z M392.767,48.094
			H196.216c-4.15,0-7.515,3.364-7.515,7.515c0,4.151,3.365,7.515,7.515,7.515h196.551v353.691H119.233V63.123h32.897
			c4.15,0,7.515-3.364,7.515-7.515c0-4.151-3.365-7.515-7.515-7.515h-32.897v-8.517c0-13.536,11.013-24.548,24.548-24.548h224.438
			c13.536,0,24.548,11.011,24.548,24.548V48.094z"/>
	</g>
</g>
<g>
	<g>
		<path d="M272.031,24.047h-32.063c-4.15,0-7.515,3.364-7.515,7.515s3.365,7.515,7.515,7.515h32.063
			c4.151,0,7.515-3.364,7.515-7.515S276.182,24.047,272.031,24.047z"/>
	</g>
</g>
<g>
	<g>
		<path d="M256,440.861c-12.983,0-23.546,10.563-23.546,23.546s10.563,23.546,23.546,23.546s23.546-10.563,23.546-23.546
			S268.983,440.861,256,440.861z M256,472.924c-4.696,0-8.517-3.82-8.517-8.517s3.82-8.517,8.517-8.517s8.517,3.82,8.517,8.517
			S260.696,472.924,256,472.924z"/>
	</g>
</g>
<g>
	<g>
		<path d="M319.91,294.719c7.017-7.963,17.62-19.997,17.62-48.324c0-26.226-22.323-46.003-51.924-46.003
			c-10.616,0-21.03,4.146-29.517,11.58c-8.508-7.434-18.985-11.58-29.695-11.58c-29.602,0-51.924,19.777-51.924,46.003
			c0,28.327,10.604,40.361,17.619,48.324c5.464,6.201,6.601,7.491,3.778,13.7c-12.84,28.248-5.633,65.108,4.508,80.856
			c4.146,6.44,8.915,9.705,14.176,9.705c10.288,0,13.267-11.636,17.039-26.367c5.431-21.209,11.016-38.766,24.41-38.766
			s18.978,17.556,24.409,38.766c3.772,14.732,6.751,26.367,17.039,26.367c5.26,0,10.03-3.265,14.176-9.705
			c10.14-15.748,17.348-52.608,4.508-80.856C313.309,302.21,314.445,300.92,319.91,294.719z M308.634,284.783
			c-6.109,6.933-13.032,14.79-6.185,29.855c5.424,11.929,6.925,28.065,4.119,44.266c-1.954,11.285-5.415,19.086-7.95,22.833
			c-1.235-3.422-2.58-8.672-3.651-12.853c-5.106-19.937-12.82-50.068-38.969-50.068c-26.149,0-33.864,30.13-38.969,50.068
			c-1.07,4.181-2.415,9.431-3.651,12.853c-2.534-3.747-5.996-11.549-7.95-22.833c-2.805-16.202-1.304-32.336,4.119-44.266
			c6.847-15.065-0.075-22.923-6.183-29.855c-6.179-7.012-13.867-15.738-13.867-38.388c0.002-17.948,15.518-30.974,36.897-30.974
			c6.973,0,14.11,2.921,19.913,7.992c-3.39,4.614-5.961,6.586-13.992,6.586c-4.15,0-7.515,3.364-7.515,7.515
			s3.365,7.515,7.515,7.515c17.305,0,23.111-8.352,28.235-15.721c0.345-0.496,0.707-1.01,1.068-1.521
			c0.084-0.091,0.173-0.176,0.253-0.272c6.39-7.685,15.042-12.093,23.734-12.093c21.379,0,36.895,13.026,36.895,30.973
			C322.501,269.045,314.812,277.771,308.634,284.783z"/>
	</g>
</g>
<g>
	<g>
		<path d="M323.662,116.197C305.588,98.126,281.559,88.172,256,88.172s-49.588,9.953-67.66,28.026
			c-2.895,2.896-2.896,7.733,0,10.628c2.895,2.895,7.732,2.894,10.627,0c15.235-15.235,35.489-23.624,57.033-23.624
			c21.545,0,41.8,8.389,57.033,23.624c3.057,3.055,8.218,2.852,11.028-0.432C326.579,123.452,326.398,118.933,323.662,116.197z"/>
	</g>
</g>
<g>
	<g>
		<path d="M295.321,144.537C284.817,134.034,270.853,128.25,256,128.25s-28.817,5.783-39.321,16.287
			c-4.629,4.629-1.258,12.829,5.313,12.829c1.923,0,3.847-0.733,5.313-2.2c7.665-7.664,17.855-11.885,28.694-11.885
			s21.029,4.221,28.695,11.885c2.933,2.933,7.691,2.934,10.627-0.002C298.257,152.229,298.257,147.471,295.321,144.537z"/>
	</g>
</g>
<g>
	<g>
		<path d="M272.65,167.21c-4.448-4.448-10.361-6.896-16.65-6.896c-6.289,0-12.203,2.449-16.65,6.897
			c-2.736,2.736-2.917,7.255-0.399,10.196c2.81,3.281,7.971,3.487,11.027,0.43c1.608-1.608,3.746-2.494,6.022-2.494
			s4.413,0.886,6.022,2.495c2.896,2.894,7.733,2.895,10.628,0C275.545,174.943,275.544,170.104,272.65,167.21z"/>
	</g>
</g>
<g>
</g>
<g>
</g>
<g>
</g>
<g>
</g>
<g>
</g>
<g>
</g>
<g>
</g>
<g>
</g>
<g>
</g>
<g>
</g>
<g>
</g>
<g>
</g>
<g>
</g>
<g>
</g>
<g>
</g>
</svg>
