<?xml version="1.0" encoding="iso-8859-1"?>
<!-- Generator: Adobe Illustrator 19.0.0, SVG Export Plug-In . SVG Version: 6.00 Build 0)  -->
<svg version="1.1" id="Capa_1" xmlns="http://www.w3.org/2000/svg" xmlns:xlink="http://www.w3.org/1999/xlink" x="0px" y="0px"
	 viewBox="0 0 512 512" style="enable-background:new 0 0 512 512;" xml:space="preserve">
<g>
	<g>
		<path d="M486.459,253.514l-53.15-100.393c0.047-0.185,0.094-0.37,0.127-0.56c2.169-12.438,3.27-26.18,3.27-40.843
			c0-30.537-12.68-58.694-35.705-79.285C377.616,11.518,344.927,0,308.958,0c-29.215,0-57.916,13.129-79.918,36.299
			C207.167,13.434,177.682,0,148.645,0C112.676,0,79.987,11.518,56.6,32.433c-23.025,20.591-35.705,48.748-35.705,79.285
			c0,71.848,25.721,101.039,44.501,122.352c15.552,17.651,23.36,26.512,12.282,50.882C45.237,356.324,63.774,452.45,88.989,491.609
			C97.701,505.14,106.985,512,116.582,512c17.894,0,24.526-25.898,33.703-61.74c6.597-25.763,14.074-54.963,26.542-77.746
			c13.574-24.802,30.575-36.859,51.975-36.859c21.4,0,38.401,12.057,51.974,36.859c12.467,22.781,19.945,51.983,26.542,77.746
			c9.178,35.842,15.809,61.74,33.703,61.74c8.511,0,16.819-5.441,24.695-16.171c12.937-17.622,23.615-48.165,28.564-81.703
			c5.288-35.842,3.567-71.933-4.793-102.518h61.996c14.006,0,26.681-7.163,33.905-19.162
			C492.612,280.447,493.013,265.892,486.459,253.514z M472.511,284.694c-4.48,7.442-12.342,11.885-21.029,11.885H269.424
			c-8.688,0-16.55-4.444-21.03-11.886c-4.482-7.443-4.73-16.47-0.664-24.148l50.39-95.184c1.942-3.667,0.543-8.215-3.125-10.157
			c-3.669-1.945-8.215-0.542-10.158,3.125l-50.39,95.184c-6.554,12.378-6.154,26.933,1.071,38.931
			c7.224,12,19.899,19.163,33.906,19.163H373.84c8.8,29.401,10.797,64.909,5.571,100.324c-4.538,30.76-14.428,59.499-25.81,75.003
			c-4.613,6.283-9.315,10.035-12.581,10.035c-0.03,0-3.107-0.133-7.78-11.674c-3.912-9.664-7.532-23.799-11.364-38.764
			c-13.604-53.135-32.238-125.906-93.075-125.906c-60.837,0-79.469,72.771-93.076,125.906c-3.832,14.966-7.453,29.101-11.364,38.764
			c-4.673,11.542-7.749,11.674-7.78,11.674c-3.028,0-8.548-3.546-14.956-13.497c-12.206-18.955-21.807-51.443-25.056-84.787
			c-3.881-39.812,1.373-77.995,14.791-107.515c15.102-33.227,1.298-48.895-14.688-67.037
			c-18.153-20.602-40.748-46.244-40.748-112.416c0-56.025,47.406-96.689,112.72-96.689c25.496,0,51.536,12.211,70.718,32.916
			c-0.373,0.535-0.75,1.076-1.118,1.604c-12.814,18.431-21.279,30.607-53.569,30.607c-4.151,0-7.515,3.364-7.515,7.515
			c0,4.151,3.364,7.515,7.515,7.515c40.144,0,52.084-17.173,65.908-37.056c1.121-1.612,2.274-3.262,3.458-4.932
			c0.279-0.247,0.546-0.51,0.789-0.801c19.749-23.747,46.766-37.368,74.128-37.368c65.315,0,112.72,40.663,112.72,96.689
			c0,6.278-0.223,12.352-0.645,18.213l-25.603-48.36c-6.981-13.187-20.057-21.06-34.977-21.06c-14.92,0-27.997,7.872-34.977,21.06
			l-23.028,43.498c-1.942,3.667-0.543,8.215,3.125,10.157c3.666,1.943,8.214,0.541,10.157-3.125l23.028-43.498
			c4.33-8.179,12.441-13.062,21.695-13.062c9.254,0,17.365,4.883,21.695,13.062l91.029,171.943
			C477.242,268.223,476.993,277.252,472.511,284.694z"/>
	</g>
</g>
<g>
	<g>
		<path d="M360.453,112.219c-12.983,0-23.546,10.563-23.546,23.546v64.624c0,12.983,10.563,23.546,23.546,23.546
			c12.983,0,23.546-10.563,23.546-23.546v-64.624C383.999,122.782,373.436,112.219,360.453,112.219z M368.97,200.389
			c0,4.696-3.82,8.517-8.517,8.517s-8.517-3.82-8.517-8.517v-64.624c0-4.696,3.82-8.517,8.517-8.517s8.517,3.82,8.517,8.517V200.389
			z"/>
	</g>
</g>
<g>
	<g>
		<path d="M359.545,239.472c-12.709,0-23.047,10.338-23.047,23.047s10.338,23.047,23.047,23.047s23.047-10.338,23.047-23.047
			S372.254,239.472,359.545,239.472z M359.545,270.536c-4.421,0-8.018-3.597-8.018-8.018s3.597-8.018,8.018-8.018
			s8.018,3.597,8.018,8.018C367.563,266.939,363.966,270.536,359.545,270.536z"/>
	</g>
</g>
<g>
</g>
<g>
</g>
<g>
</g>
<g>
</g>
<g>
</g>
<g>
</g>
<g>
</g>
<g>
</g>
<g>
</g>
<g>
</g>
<g>
</g>
<g>
</g>
<g>
</g>
<g>
</g>
<g>
</g>
</svg>
