<?xml version="1.0" encoding="iso-8859-1"?>
<!-- Generator: Adobe Illustrator 19.0.0, SVG Export Plug-In . SVG Version: 6.00 Build 0)  -->
<svg version="1.1" id="Capa_1" xmlns="http://www.w3.org/2000/svg" xmlns:xlink="http://www.w3.org/1999/xlink" x="0px" y="0px"
	 viewBox="0 0 512 512" style="enable-background:new 0 0 512 512;" xml:space="preserve">
<g>
	<g>
		<path d="M453.787,66.429c-1.781-3.749-6.265-5.344-10.013-3.562c-3.748,1.781-5.343,6.263-3.563,10.013
			c5.75,12.099,8.665,25.166,8.665,38.839c0,66.172-22.592,91.814-40.747,112.419c-7.298,8.283-13.767,15.627-17.604,24.349H121.473
			c-3.838-8.722-10.306-16.065-17.604-24.349c-18.154-20.604-40.746-46.246-40.746-112.419c0-56.025,47.406-96.689,112.72-96.689
			c25.496,0,51.537,12.21,70.718,32.916c-0.373,0.535-0.75,1.075-1.118,1.604c-12.814,18.431-21.28,30.607-53.569,30.607
			c-4.15,0-7.515,3.365-7.515,7.515c0,4.15,3.365,7.515,7.515,7.515c40.144,0,52.084-17.173,65.909-37.056
			c1.12-1.611,2.273-3.261,3.455-4.93c0.28-0.248,0.548-0.511,0.791-0.802c19.748-23.748,46.765-37.369,74.128-37.369
			c33.016,0,62.611,10.583,83.333,29.797c3.044,2.823,7.797,2.642,10.62-0.401c2.822-3.043,2.642-7.798-0.401-10.62
			C406.199,12.005,372.975,0,336.157,0c-29.216,0-57.916,13.129-79.917,36.299C234.367,13.434,204.881,0,175.843,0
			c-35.968,0-68.657,11.518-92.045,32.434c-23.025,20.59-35.705,48.747-35.705,79.284c0,71.848,25.719,101.04,44.499,122.354
			c7.878,8.941,14.101,16.004,16.418,24.015c0.93,3.214,3.873,5.428,7.219,5.428h84.161v66.108l-19.047,9.524
			c-11.613,5.806-16.336,19.978-10.53,31.591c4.016,8.031,12.09,13.019,21.072,13.019c2.894,0,5.793-0.558,8.505-1.609v27.626
			l-19.047,9.524c-11.613,5.806-16.336,19.978-10.53,31.591c4.016,8.031,12.09,13.019,21.072,13.019
			c2.894,0,5.793-0.558,8.505-1.609v10.125c0,2.513,1.255,4.859,3.347,6.252l48.094,32.063c1.262,0.842,2.715,1.262,4.168,1.262
			s2.906-0.421,4.168-1.262l48.094-32.063c2.09-1.394,3.347-3.739,3.347-6.252v-65.608l19.047-9.524
			c11.613-5.806,16.336-19.978,10.53-31.59c-5.475-10.948-18.385-15.769-29.577-11.417v-27.619l19.047-9.524
			c11.613-5.806,16.336-19.978,10.53-31.59c-5.475-10.948-18.385-15.769-29.577-11.417v-10.62h84.162
			c3.346,0,6.289-2.212,7.219-5.428c2.318-8.011,8.54-15.073,16.418-24.015c18.779-21.314,44.498-50.506,44.498-122.354
			C463.906,95.796,460.502,80.558,453.787,66.429z M215.421,263.515h81.159v18.014l-81.159,40.579V263.515z M296.579,468.401
			L256,495.454l-40.579-27.053v-13.492l81.159-40.579V468.401z M316.316,368.615c1.219-0.61,2.516-0.899,3.794-0.899
			c3.126,0,6.142,1.726,7.633,4.707c2.099,4.2,0.391,9.326-3.809,11.426l-128.25,64.125c-4.166,2.082-9.348,0.348-11.427-3.808
			c-2.1-4.2-0.391-9.326,3.809-11.426L316.316,368.615z M215.421,402.259v-27.5l81.159-40.579v27.5L215.421,402.259z
			 M316.316,288.464c1.219-0.61,2.516-0.899,3.794-0.899c3.126,0,6.142,1.726,7.633,4.707c2.099,4.2,0.391,9.326-3.809,11.426
			l-128.25,64.125c-4.166,2.082-9.348,0.348-11.427-3.808c-2.1-4.2-0.391-9.326,3.809-11.426L316.316,288.464z"/>
	</g>
</g>
<g>
</g>
<g>
</g>
<g>
</g>
<g>
</g>
<g>
</g>
<g>
</g>
<g>
</g>
<g>
</g>
<g>
</g>
<g>
</g>
<g>
</g>
<g>
</g>
<g>
</g>
<g>
</g>
<g>
</g>
</svg>
