<?xml version="1.0" encoding="iso-8859-1"?>
<!-- Generator: Adobe Illustrator 19.0.0, SVG Export Plug-In . SVG Version: 6.00 Build 0)  -->
<svg version="1.1" id="Capa_1" xmlns="http://www.w3.org/2000/svg" xmlns:xlink="http://www.w3.org/1999/xlink" x="0px" y="0px"
	 viewBox="0 0 512 512" style="enable-background:new 0 0 512 512;" xml:space="preserve">
<g>
	<g>
		<path d="M417.005,380.418c-4.139-0.238-7.689,2.944-7.918,7.087c-1.569,28.301-7.83,57.131-17.179,79.096
			c-8.88,20.867-18.504,30.37-23.689,30.37c-0.03,0-3.107-0.133-7.78-11.675c-3.912-9.663-7.532-23.799-11.363-38.764
			C335.47,393.397,316.837,320.626,256,320.626s-79.47,72.771-93.076,125.906c-3.831,14.965-7.452,29.101-11.363,38.764
			c-4.673,11.542-7.75,11.675-7.78,11.675c-3.029,0-8.549-3.546-14.956-13.497c-12.206-18.955-21.807-51.443-25.056-84.787
			c-3.881-39.813,1.373-77.995,14.791-107.515c15.103-33.227,1.298-48.896-14.688-67.037
			c-18.154-20.603-40.749-46.245-40.749-112.417c0-56.025,47.406-96.689,112.72-96.689c25.496,0,51.537,12.21,70.718,32.916
			c-0.373,0.535-0.75,1.075-1.118,1.604c-12.814,18.431-21.28,30.607-53.569,30.607c-4.15,0-7.515,3.365-7.515,7.515
			c0,4.15,3.365,7.515,7.515,7.515c40.144,0,52.084-17.173,65.909-37.056c1.12-1.611,2.273-3.261,3.455-4.93
			c0.28-0.248,0.548-0.511,0.791-0.802c19.748-23.748,46.765-37.369,74.128-37.369c65.315,0,112.72,40.663,112.72,96.689
			c0,66.171-22.594,91.813-40.748,112.417c-15.986,18.141-29.791,33.81-14.688,67.037c8.22,18.083,13.347,38.909,15.24,61.895
			c0.341,4.136,3.955,7.208,8.106,6.872c4.136-0.341,7.213-3.97,6.872-8.106c-2.035-24.716-7.599-47.218-16.536-66.882
			c-11.078-24.371-3.271-33.231,12.282-50.882c18.781-21.313,44.501-50.503,44.501-122.351c0-30.537-12.68-58.694-35.705-79.284
			C404.814,11.518,372.125,0,336.157,0c-29.216,0-57.916,13.129-79.917,36.299C234.367,13.434,204.881,0,175.843,0
			c-35.968,0-68.657,11.518-92.045,32.434c-23.025,20.59-35.705,48.747-35.705,79.284c0,71.848,25.72,101.038,44.501,122.353
			c15.553,17.651,23.36,26.511,12.282,50.882c-32.441,71.372-13.904,167.497,11.311,206.657C124.9,505.14,134.183,512,143.781,512
			c17.894,0,24.526-25.897,33.703-61.74c6.597-25.763,14.073-54.963,26.542-77.746c13.573-24.802,30.575-36.859,51.974-36.859
			s38.401,12.057,51.974,36.859c12.467,22.781,19.945,51.983,26.542,77.746c9.177,35.843,15.809,61.74,33.703,61.74
			c13.35,0,26.675-14.032,37.518-39.513c10.004-23.506,16.694-54.178,18.356-84.149C424.323,384.193,421.15,380.647,417.005,380.418
			z"/>
	</g>
</g>
<g>
	<g>
		<path d="M400.282,96.188h-32.564V63.624c0-4.15-3.365-7.515-7.515-7.515H312.11c-4.15,0-7.515,3.365-7.515,7.515v32.564h-32.564
			c-4.15,0-7.515,3.365-7.515,7.515v48.094c0,4.15,3.365,7.515,7.515,7.515h32.564v32.564c0,4.15,3.365,7.515,7.515,7.515h48.094
			c4.15,0,7.515-3.365,7.515-7.515v-32.564h32.564c4.15,0,7.515-3.365,7.515-7.515v-48.094
			C407.796,99.552,404.432,96.188,400.282,96.188z M319.624,71.139h33.065v25.049h-33.065V71.139z M352.689,184.36h-33.065v-25.049
			h33.065V184.36z M392.767,144.282H279.546v-33.065h113.221V144.282z"/>
	</g>
</g>
<g>
</g>
<g>
</g>
<g>
</g>
<g>
</g>
<g>
</g>
<g>
</g>
<g>
</g>
<g>
</g>
<g>
</g>
<g>
</g>
<g>
</g>
<g>
</g>
<g>
</g>
<g>
</g>
<g>
</g>
</svg>
