<?xml version="1.0" encoding="iso-8859-1"?>
<!-- Generator: Adobe Illustrator 19.0.0, SVG Export Plug-In . SVG Version: 6.00 Build 0)  -->
<svg version="1.1" id="Capa_1" xmlns="http://www.w3.org/2000/svg" xmlns:xlink="http://www.w3.org/1999/xlink" x="0px" y="0px"
	 viewBox="0 0 512 512" style="enable-background:new 0 0 512 512;" xml:space="preserve">
<g>
	<g>
		<path d="M504.485,436.836H39.577c-13.536,0-24.548-11.013-24.548-24.548v-32.063c0-13.535,11.011-24.548,24.548-24.548h464.908
			c4.151,0,7.515-3.365,7.515-7.515c0-4.15-3.364-7.515-7.515-7.515h-168.83V203.881c0-4.15-3.364-7.515-7.515-7.515H71.64
			c-22.376,0-40.579-18.204-40.579-40.579c0-22.376,18.204-40.579,40.579-40.579h211.904c15.018,0,29.417-4.614,41.64-13.344
			l27.505-19.646v57.538c0,13.271-4.684,26.172-13.19,36.326c-2.665,3.181-2.246,7.92,0.935,10.586
			c3.184,2.665,7.922,2.246,10.586-0.936c10.768-12.854,16.699-29.182,16.699-45.976V67.615c0-5.984-6.997-9.605-11.882-6.115
			l-39.388,28.134c-9.658,6.898-21.036,10.545-32.904,10.545H71.64c-30.663,0-55.609,24.946-55.609,55.609
			c0,28.113,20.975,51.405,48.094,55.087v129.774H39.577C17.755,340.648,0,358.403,0,380.225v32.063
			c0,21.823,17.755,39.577,39.577,39.577h464.908c4.151,0,7.515-3.365,7.515-7.515C512,440.2,508.636,436.836,504.485,436.836z
			 M79.155,211.396h241.472v129.252h-17.033V259.99c0-4.15-3.364-7.515-7.515-7.515c-4.151,0-7.515,3.365-7.515,7.515v80.658
			h-49.096v-56.611c0-4.15-3.364-7.515-7.515-7.515c-4.151,0-7.515,3.365-7.515,7.515v56.611h-49.121
			c0.011-0.166,0.025-0.332,0.025-0.501V235.944c0-4.15-3.364-7.515-7.515-7.515c-4.151,0-7.515,3.365-7.515,7.515v104.203
			c0,0.169,0.014,0.335,0.025,0.501h-49.121V259.99c0-4.15-3.364-7.515-7.515-7.515c-4.151,0-7.515,3.365-7.515,7.515v80.658H79.155
			V211.396z"/>
	</g>
</g>
<g>
</g>
<g>
</g>
<g>
</g>
<g>
</g>
<g>
</g>
<g>
</g>
<g>
</g>
<g>
</g>
<g>
</g>
<g>
</g>
<g>
</g>
<g>
</g>
<g>
</g>
<g>
</g>
<g>
</g>
</svg>
