<?xml version="1.0" encoding="iso-8859-1"?>
<!-- Generator: Adobe Illustrator 19.0.0, SVG Export Plug-In . SVG Version: 6.00 Build 0)  -->
<svg version="1.1" id="Capa_1" xmlns="http://www.w3.org/2000/svg" xmlns:xlink="http://www.w3.org/1999/xlink" x="0px" y="0px"
	 viewBox="0 0 512 512" style="enable-background:new 0 0 512 512;" xml:space="preserve">
<g>
	<g>
		<path d="M459.939,32.952c-2.443-1.307-5.408-1.165-7.714,0.374c-20.04,13.36-136.307,23.481-190.912-31.124
			c-2.936-2.935-7.693-2.935-10.628,0c-31.87,31.87-84.73,41.691-127.217,41.689c-30.313-0.001-55.35-5.003-63.694-10.565
			c-4.905-3.27-11.683,0.371-11.683,6.252v216.426c0,34.341,10.919,69.223,32.454,103.679
			c17.008,27.213,40.659,54.234,70.293,80.313c50.208,44.183,99.616,70.083,101.695,71.164c2.152,1.119,4.781,1.119,6.934,0
			c2.079-1.081,51.487-26.981,101.695-71.164c29.634-26.079,53.286-53.101,70.293-80.313
			c21.534-34.456,32.454-69.339,32.454-103.679V39.578C463.908,36.806,462.383,34.259,459.939,32.952z M448.879,256.004
			c0,71.633-52.973,133.346-97.414,172.505c-41.404,36.484-83.347,60.738-95.466,67.438c-12.12-6.7-54.061-30.955-95.466-67.438
			c-44.44-39.158-97.414-100.872-97.414-172.505V51.224c18.934,6.359,50.163,9.198,81.221,6.868
			c27.498-2.062,77.315-10.075,111.659-40.283c34.344,30.207,84.161,38.221,111.659,40.283c31.055,2.33,62.286-0.51,81.221-6.87
			V256.004z"/>
	</g>
</g>
<g>
	<g>
		<path d="M424.33,135.6c4.151,0,7.515-3.365,7.515-7.515V81.312c0-4.452-4.023-8.002-8.441-7.458
			c-14.591,1.811-27.656,2.081-34.145,2.081c-23.567,0-83.325-3.272-129.112-33.584c-2.515-1.664-5.781-1.664-8.296,0
			C206.066,72.66,146.307,75.934,122.739,75.935c-6.49,0-19.555-0.271-34.147-2.08c-4.417-0.545-8.44,3.009-8.44,7.458v174.691
			c0,64.988,49.427,122.369,90.892,159.063c31.896,28.225,64.515,49.086,81.12,59.007c2.349,1.404,5.357,1.405,7.705,0.002
			c16.28-9.716,48.336-30.189,80.11-58.151c41.909-36.88,91.866-94.561,91.866-159.922v-91.848c0-4.15-3.364-7.515-7.515-7.515
			s-7.515,3.365-7.515,7.515v91.848c0,59.745-47.184,113.807-86.766,148.64c-28.533,25.109-57.328,44.021-74.03,54.203
			c-17.013-10.381-46.334-29.653-75.015-55.034c-39.152-34.646-85.823-88.414-85.823-147.807V89.68
			c11.866,1.096,22,1.285,27.557,1.285c24.234-0.001,84.718-3.325,133.259-33.423c48.544,30.1,109.029,33.423,133.26,33.423
			c5.556,0,15.692-0.188,27.556-1.285v38.405C416.815,132.235,420.179,135.6,424.33,135.6z"/>
	</g>
</g>
<g>
	<g>
		<path d="M342.203,240.583c9.413-10.685,23.641-26.833,23.641-64.911c0-16.655-6.911-32.006-19.459-43.228
			c-12.618-11.284-30.18-17.498-49.453-17.498c-14.77,0-29.268,6.117-40.807,17.019c-11.565-10.9-26.15-17.019-41.058-17.019
			c-19.273,0-36.837,6.214-49.453,17.498c-12.548,11.221-19.459,26.573-19.459,43.228c0,38.078,14.228,54.226,23.643,64.911
			c7.745,8.79,10.355,11.752,5.683,22.03c-9.822,21.61-10.053,44.938-8.517,60.702c1.852,18.997,7.29,37.069,14.55,48.341
			c5.169,8.029,10.951,12.099,17.182,12.099c9.21,0,13.188-9.825,14.496-13.054c2.284-5.64,4.135-12.869,6.278-21.24
			c7.811-30.506,15.952-55.758,36.532-55.758s28.721,25.252,36.532,55.758c2.143,8.37,3.994,15.599,6.278,21.24
			c1.308,3.228,5.284,13.054,14.496,13.054c6.232,0,12.013-4.071,17.182-12.099c7.258-11.272,12.698-29.344,14.55-48.341
			c1.536-15.764,1.306-39.091-8.517-60.702C331.848,252.336,334.457,249.375,342.203,240.583z M322.835,268.833
			c12.515,27.531,8.572,65.969-1.493,88.157c-3.006,6.627-5.71,9.808-7.236,11.08c-2.287-3.873-4.984-14.397-7.016-22.336
			c-3.534-13.804-7.541-29.45-14.592-42.334c-8.979-16.406-21.259-24.725-36.5-24.725c-15.241,0-27.521,8.318-36.5,24.725
			c-7.051,12.885-11.058,28.531-14.592,42.334c-2.032,7.938-4.728,18.462-7.016,22.336c-1.525-1.272-4.23-4.452-7.236-11.08
			c-10.065-22.189-14.008-60.625-1.493-88.157c8.697-19.135,0.163-28.82-8.089-38.185c-8.861-10.058-19.89-22.573-19.89-54.975
			c0-26.478,22.661-45.697,53.883-45.697c11.122,0,22.495,4.982,31.35,13.532c-5.779,8.237-9.498,12.37-23.164,12.37
			c-4.151,0-7.515,3.365-7.515,7.515s3.364,7.515,7.515,7.515c22.422,0,29.667-10.422,36.676-20.5
			c0.509-0.732,1.044-1.491,1.578-2.247c0.135-0.139,0.273-0.278,0.399-0.429c9.383-11.284,22.15-17.756,35.026-17.756
			c31.222,0,53.883,19.219,53.883,45.697c0,32.403-11.029,44.918-19.89,54.976C322.672,240.014,314.138,249.699,322.835,268.833z"/>
	</g>
</g>
<g>
</g>
<g>
</g>
<g>
</g>
<g>
</g>
<g>
</g>
<g>
</g>
<g>
</g>
<g>
</g>
<g>
</g>
<g>
</g>
<g>
</g>
<g>
</g>
<g>
</g>
<g>
</g>
<g>
</g>
</svg>
