<?xml version="1.0" encoding="iso-8859-1"?>
<!-- Generator: Adobe Illustrator 19.0.0, SVG Export Plug-In . SVG Version: 6.00 Build 0)  -->
<svg version="1.1" id="Capa_1" xmlns="http://www.w3.org/2000/svg" xmlns:xlink="http://www.w3.org/1999/xlink" x="0px" y="0px"
	 viewBox="0 0 512.003 512.003" style="enable-background:new 0 0 512.003 512.003;" xml:space="preserve">
<g>
	<g>
		<path d="M489.25,193.487c-1.804-3.742-6.301-5.31-10.041-3.509c-3.742,1.804-5.313,6.3-3.509,10.042
			c13.129,27.23,20.281,66.332,21.255,116.222c0.075,3.831-2.457,7.259-6.159,8.335c-15.622,4.539-45.026,12.154-66.431,12.154
			c-21.407,0-50.809-7.616-66.43-12.154c-3.702-1.076-6.236-4.503-6.16-8.335c0.306-15.644,1.198-29.729,2.562-42.426
			c10.32-1.034,20.791-2.576,31.07-4.786c2.302,10.598,11.749,18.562,23.026,18.562h32.091c12.995,0,23.567-10.572,23.567-23.567
			v-32.091c0-12.995-10.572-23.567-23.567-23.567h-32.091c-12.995,0-23.567,10.572-23.567,23.567v21.771
			c-9.364,2.116-18.983,3.636-28.543,4.688c13.782-91.027,54.228-99.165,68.042-99.165c8.238,0,20.675,2.523,33.133,14.544
			c2.99,2.885,7.751,2.8,10.635-0.19c2.884-2.988,2.799-7.751-0.19-10.634c-16.072-15.507-32.569-18.762-43.579-18.762
			c-12.745,0-37.106,4.59-57.07,35.329c-12.692,19.544-21.486,46.407-26.309,80.192c-1.421,0.089-2.838,0.172-4.247,0.244
			c-5.119-26.456-13.022-47.997-23.668-64.391C293.107,164.82,268.746,160.23,256,160.23c-12.745,0-37.106,4.59-57.07,35.329
			c-10.505,16.176-18.337,37.369-23.461,63.345c-1.557-0.172-3.104-0.356-4.644-0.546c-4.862-33.157-13.596-59.559-26.12-78.845
			c-19.964-30.739-44.325-35.329-57.07-35.329c-12.745,0-37.106,4.59-57.07,35.329C11.484,208.897,1.202,254.8,0.005,315.946
			c-0.208,10.616,6.784,20.105,17.002,23.074c16.391,4.762,47.361,12.752,70.629,12.752c23.269,0,54.239-7.99,70.628-12.752
			c3.931-1.142,7.378-3.256,10.128-6.021c0.24,10.203,7.087,19.192,16.98,22.067c16.391,4.763,47.361,12.752,70.629,12.752
			c23.268,0,54.239-7.99,70.629-12.752c9.893-2.875,16.74-11.864,16.98-22.067c2.75,2.765,6.197,4.879,10.128,6.021
			c16.389,4.762,47.359,12.752,70.628,12.752c23.268,0,54.239-7.99,70.629-12.752c10.218-2.969,17.21-12.457,17.002-23.073
			C510.978,263.88,503.324,222.678,489.25,193.487z M399.908,231.933L399.908,231.933c0.001-4.7,3.825-8.524,8.525-8.524h32.091
			c4.7,0,8.524,3.824,8.524,8.524v32.091c0,4.7-3.824,8.524-8.524,8.524h-32.091c-4.239,0-7.756-3.115-8.407-7.173
			c9.722-2.804,19.1-6.311,27.816-10.669c3.715-1.857,5.221-6.375,3.364-10.091c-1.857-3.716-6.372-5.222-10.092-3.364
			c-6.652,3.325-13.781,6.11-21.206,8.435V231.933z M154.066,324.575c-15.621,4.539-45.024,12.154-66.43,12.154
			c-21.406,0-50.809-7.616-66.431-12.154c-3.702-1.076-6.235-4.503-6.159-8.335c2.849-145.691,56.282-157.014,72.591-157.014
			c13.701,0,53.594,8.006,67.696,96.932c-10.127-1.627-19.6-3.506-28.024-5.38v-18.845c0-12.995-10.572-23.567-23.567-23.567H71.65
			c-12.995,0-23.567,10.572-23.567,23.567v32.091c0,12.995,10.572,23.567,23.567,23.567h32.091c12.237,0,22.322-9.376,23.458-21.32
			c9.138,1.984,19.355,3.933,30.247,5.565c1.487,13.209,2.461,27.942,2.783,44.406C160.302,320.073,157.769,323.499,154.066,324.575
			z M85.144,255.113c1.257,0.419,11.456,3.772,27.121,7.677v1.234c0,4.7-3.824,8.524-8.524,8.524H71.65
			c-4.7,0-8.524-3.824-8.524-8.524v-32.091c0-4.7,3.824-8.524,8.524-8.524h32.091c4.7,0,8.524,3.824,8.524,8.524v15.256
			c-13.602-3.47-22.086-6.254-22.365-6.347c-3.938-1.312-8.2,0.817-9.512,4.76C79.075,249.543,81.204,253.801,85.144,255.113z
			 M172.814,274.381c-0.019-0.179-0.035-0.359-0.054-0.537c0.045,0.004,0.089,0.01,0.134,0.015
			C172.868,274.035,172.84,274.206,172.814,274.381z M256,175.272c13.069,0,49.975,7.288,65.588,85.155
			c-9.276,0.117-18.055-0.079-25.976-0.438v-12.011c0-12.995-10.572-23.567-23.567-23.567h-32.091
			c-12.995,0-23.567,10.572-23.567,23.567v12.939c-8.652,0.18-17.359-0.083-25.941-0.67
			C206.082,182.548,242.941,175.272,256,175.272z M231.431,275.222c8.43-0.695,16.761-1.836,24.831-3.558
			c3.384,0.482,12.131,1.637,24.308,2.576v5.828c0,4.7-3.824,8.524-8.524,8.524h-32.091c-4.7,0-8.524-3.824-8.524-8.524
			L231.431,275.222L231.431,275.222z M231.431,260.123v-12.143c0-4.7,3.824-8.524,8.524-8.524h32.091c4.7,0,8.524,3.824,8.524,8.524
			v11.089c-14.119-1.093-23.128-2.433-23.427-2.479c-0.92-0.14-1.862-0.11-2.774,0.092
			C246.961,258.329,239.265,259.441,231.431,260.123z M322.432,340.621c-15.622,4.539-45.026,12.154-66.431,12.154
			s-50.809-7.616-66.431-12.154c-3.701-1.076-6.235-4.503-6.159-8.335c0.428-21.927,2.01-40.792,4.432-57.051
			c7.454,0.533,15.028,0.835,22.617,0.835c1.976,0,3.953-0.022,5.93-0.064v4.063c0,12.995,10.572,23.567,23.567,23.567h32.091
			c12.995,0,23.567-10.572,23.567-23.567v-4.909c8.693,0.393,18.359,0.59,28.594,0.397c2.395,16.187,3.958,34.946,4.384,56.729
			C328.667,336.118,326.134,339.545,322.432,340.621z"/>
	</g>
</g>
<g>
</g>
<g>
</g>
<g>
</g>
<g>
</g>
<g>
</g>
<g>
</g>
<g>
</g>
<g>
</g>
<g>
</g>
<g>
</g>
<g>
</g>
<g>
</g>
<g>
</g>
<g>
</g>
<g>
</g>
</svg>
