<?xml version="1.0" encoding="iso-8859-1"?>
<!-- Generator: Adobe Illustrator 19.0.0, SVG Export Plug-In . SVG Version: 6.00 Build 0)  -->
<svg version="1.1" id="Capa_1" xmlns="http://www.w3.org/2000/svg" xmlns:xlink="http://www.w3.org/1999/xlink" x="0px" y="0px"
	 viewBox="0 0 512 512" style="enable-background:new 0 0 512 512;" xml:space="preserve">
<g>
	<g>
		<path d="M463.04,141.568c0.727-6.147-6.227-10.554-11.474-7.24c-10.312,6.512-22.221,9.952-34.439,9.952
			c-35.635,0-64.626-28.992-64.626-64.626c0-24.53,13.627-46.646,35.561-57.717c5.807-2.93,5.217-11.674-0.919-13.807
			C371.62,2.735,354.739,0,336.97,0c-29.215,0-57.916,13.129-79.918,36.299C235.179,13.434,205.693,0,176.657,0
			C140.688,0,108,11.518,84.612,32.434c-23.025,20.59-35.705,48.747-35.705,79.284c0,71.848,25.721,101.038,44.501,122.353
			c15.552,17.651,23.36,26.511,12.282,50.882c-32.441,71.371-13.904,167.497,11.311,206.657c8.712,13.529,17.996,20.39,27.593,20.39
			c17.894,0,24.526-25.897,33.703-61.74c6.597-25.763,14.074-54.963,26.542-77.746c13.572-24.802,30.574-36.859,51.975-36.859
			s38.401,12.057,51.974,36.859c12.467,22.781,19.945,51.983,26.542,77.746c9.177,35.843,15.808,61.74,33.703,61.74
			c9.597,0,18.881-6.86,27.593-20.39c25.215-39.159,43.752-135.285,11.311-206.657c-11.08-24.374-3.273-33.237,12.28-50.895
			C435.749,216.422,457.023,192.268,463.04,141.568z M394.253,291.173c13.418,29.519,18.671,67.702,14.791,107.515
			c-3.249,33.343-12.85,65.832-25.056,84.787c-6.408,9.95-11.927,13.496-14.955,13.496c-0.03,0-3.107-0.133-7.78-11.675
			c-3.912-9.663-7.532-23.799-11.364-38.764c-13.606-53.135-32.239-125.906-93.075-125.906s-79.469,72.771-93.076,125.906
			c-3.832,14.965-7.453,29.101-11.364,38.764c-4.673,11.542-7.749,11.675-7.78,11.675c-3.028,0-8.548-3.546-14.956-13.497
			c-12.206-18.955-21.807-51.443-25.056-84.787c-3.881-39.813,1.373-77.995,14.791-107.515
			c15.102-33.227,1.297-48.896-14.688-67.037c-18.154-20.603-40.748-46.245-40.748-112.417c0-56.025,47.406-96.689,112.72-96.689
			c25.496,0,51.536,12.21,70.718,32.916c-0.373,0.535-0.75,1.075-1.118,1.604c-12.815,18.431-21.28,30.607-53.569,30.607
			c-4.151,0-7.515,3.365-7.515,7.515c0,4.15,3.364,7.515,7.515,7.515c40.144,0,52.084-17.173,65.908-37.056
			c1.121-1.611,2.274-3.261,3.457-4.93c0.279-0.248,0.547-0.51,0.789-0.802c19.748-23.748,46.766-37.369,74.128-37.369
			c10.28,0,20.206,1.003,29.67,2.991c-18.31,14.93-29.169,37.32-29.169,61.635c0,43.922,35.734,79.656,79.656,79.656
			c9.902,0,19.64-1.835,28.764-5.372c-7.253,36.466-23.563,54.982-36.952,70.185C392.954,242.271,379.15,257.945,394.253,291.173z"
			/>
	</g>
</g>
<g>
	<g>
		<path d="M160.625,128.25c-26.242,0-47.593,21.351-47.593,47.593s21.351,47.593,47.593,47.593s47.593-21.351,47.593-47.593
			S186.868,128.25,160.625,128.25z M160.625,208.407c-17.956,0-32.564-14.609-32.564-32.564s14.607-32.564,32.564-32.564
			c17.956,0,32.564,14.609,32.564,32.564S178.581,208.407,160.625,208.407z"/>
	</g>
</g>
<g>
	<g>
		<path d="M344.986,224.438c-17.403,0-31.562,14.159-31.562,31.562s14.159,31.562,31.562,31.562
			c17.403,0,31.562-14.159,31.562-31.562S362.389,224.438,344.986,224.438z M344.986,272.532c-9.116,0-16.532-7.417-16.532-16.532
			s7.417-16.532,16.532-16.532c9.116,0,16.532,7.417,16.532,16.532C361.518,265.116,354.1,272.532,344.986,272.532z"/>
	</g>
</g>
<g>
	<g>
		<path d="M232.766,248.485c-17.403,0-31.562,14.159-31.562,31.562c0,17.403,14.159,31.562,31.562,31.562
			c17.403,0,31.562-14.159,31.562-31.562C264.328,262.644,250.169,248.485,232.766,248.485z M232.766,296.579
			c-9.116,0-16.532-7.416-16.532-16.532c0-9.116,7.417-16.532,16.532-16.532c9.116,0,16.532,7.417,16.532,16.532
			C249.299,289.163,241.881,296.579,232.766,296.579z"/>
	</g>
</g>
<g>
</g>
<g>
</g>
<g>
</g>
<g>
</g>
<g>
</g>
<g>
</g>
<g>
</g>
<g>
</g>
<g>
</g>
<g>
</g>
<g>
</g>
<g>
</g>
<g>
</g>
<g>
</g>
<g>
</g>
</svg>
