<?xml version="1.0" encoding="iso-8859-1"?>
<!-- Generator: Adobe Illustrator 19.0.0, SVG Export Plug-In . SVG Version: 6.00 Build 0)  -->
<svg version="1.1" id="Capa_1" xmlns="http://www.w3.org/2000/svg" xmlns:xlink="http://www.w3.org/1999/xlink" x="0px" y="0px"
	 viewBox="0 0 512.002 512.002" style="enable-background:new 0 0 512.002 512.002;" xml:space="preserve">
<g>
	<g>
		<path d="M472.95,76.507l-45.715-45.715c-0.713-0.707-1.584-1.287-2.514-1.667l-39.86-17.083c-2.846-1.22-6.152-0.584-8.342,1.606
			l-6.089,6.089c-0.11-0.126-0.218-0.255-0.338-0.375L352.948,2.219c-3.348-3.347-9.046-2.908-11.775,1.316
			c-1.946,3.013-1.316,7.022,1.219,9.558l16.982,16.983c0.12,0.12,0.248,0.228,0.376,0.339l-6.089,6.089
			c-2.19,2.19-2.826,5.494-1.606,8.341l17.082,39.857c0.371,0.928,0.962,1.811,1.668,2.517l34.644,34.644l-75.001,75.001
			c-4.572-4.572-10.232-7.801-16.601-9.065c-6.517-1.294-13.412-0.523-19.459,2.239c-3.457,1.578-6.613,3.784-9.299,6.47
			L147.943,333.655c-12.406,12.407-12.406,32.594,0,45l23.216,23.215l-2.796,2.796c-5.964,5.964-9.922,13.743-10.743,22.139
			c-1.068,10.917,2.7,21.37,10.325,28.995l5.374,5.374c7.621,7.622,8.541,19.915,1.644,28.197
			c-7.893,9.478-22.065,9.954-30.589,1.429L93.36,439.789c-5.963-5.963-13.739-9.92-22.132-10.742
			c-10.919-1.071-21.375,2.698-29.002,10.325L31.24,450.358c-5.886,5.886-9.843,13.534-10.731,21.812
			c-1.177,10.97,2.534,21.5,10.138,29.194c2.558,2.588,6.674,3.156,9.691,1.119c4.093-2.764,4.485-8.373,1.176-11.683
			c-8.074-8.074-8.074-21.213,0-29.287l11.129-11.129c3.378-3.378,7.749-5.684,12.495-6.225c6.429-0.732,12.606,1.442,17.09,5.926
			l51.43,51.43c6.991,6.991,16.175,10.487,25.358,10.487c9.951,0,19.902-4.104,27.064-12.313
			c12.466-14.289,11.206-35.975-2.202-49.384l-4.919-4.92c-3.377-3.377-5.683-7.747-6.225-12.491
			c-0.734-6.43,1.44-12.61,5.926-17.094l3.213-3.213l23.216,23.215c10.42,10.42,27.024,12.224,39.471,4.38
			c1.99-1.255,102.507-101.359,102.507-101.359c2.959-2.959,2.959-7.756,0-10.714c-2.959-2.958-7.755-2.959-10.715,0l-96.978,96.978
			c-6.404,6.41-17.166,6.404-23.57,0l-28.565-28.565c-0.002-0.002-0.004-0.005-0.007-0.008c-0.003-0.003-0.005-0.004-0.008-0.007
			l-28.566-28.565c-6.499-6.498-6.499-17.073,0-23.571l0.357-0.357l28.929,28.928c9.15,9.15,24.421,9.152,33.571,0
			c9.151-9.15,9.152-24.421,0.001-33.572l-28.929-28.929l17.857-17.858l28.928,28.929c9.165,9.137,24.412,9.161,33.573,0
			c9.255-9.256,9.255-24.316,0-33.572l-28.929-28.929l17.857-17.857l28.929,28.929c9.136,9.136,24.435,9.138,33.571,0
			c9.151-9.15,9.152-24.422,0.001-33.572l-28.929-28.93c3.784-3.784,8.805-5.84,14.441-5.082c3.702,0.498,7.095,2.334,9.737,4.975
			l56.895,56.895c6.424,6.425,6.424,17.148-0.001,23.571l-13.904,13.905c-2.74,2.74-3.221,7.159-0.831,10.208
			c2.864,3.653,8.164,3.887,11.343,0.709l14.106-14.107c9.598-9.597,12.063-24.719,5.921-36.847
			c-1.611-3.182-3.76-5.994-6.276-8.511l86.074-86.074C497.96,142.213,497.96,101.518,472.95,76.507z M210.661,349.943
			c1.162,1.162,2.064,2.592,2.427,4.195c0.792,3.49-0.509,6.931-3.361,9.005c-3.442,2.503-8.256,1.896-11.265-1.113l-28.732-28.731
			l12.143-12.143L210.661,349.943z M262.232,298.654c3.649,3.649,3.32,9.792-0.984,12.992c-3.449,2.564-8.317,1.994-11.356-1.045
			l-28.732-28.733l12.143-12.143L262.232,298.654z M313.517,247.082c1.17,1.169,2.075,2.608,2.436,4.221
			c0.675,3.009-0.205,5.979-2.292,8.065c-3.347,3.347-8.796,3.347-12.142,0l-28.93-28.929l12.143-12.143L313.517,247.082z
			 M368.004,43.594l15.603-15.603l25.001,10.714l-29.889,29.889L368.004,43.594z M404.734,99.722l-17.857-17.858l35-35
			l17.857,17.858L404.734,99.722z M376.163,242.581l-35-35l80.359-80.358c2.959-2.959,2.959-7.756,0-10.714l-6.071-6.071l35-35
			l11.786,11.786c19.102,19.103,19.102,50.185,0,69.287L376.163,242.581z"/>
	</g>
</g>
<g>
</g>
<g>
</g>
<g>
</g>
<g>
</g>
<g>
</g>
<g>
</g>
<g>
</g>
<g>
</g>
<g>
</g>
<g>
</g>
<g>
</g>
<g>
</g>
<g>
</g>
<g>
</g>
<g>
</g>
</svg>
