<?xml version="1.0" encoding="iso-8859-1"?>
<!-- Generator: Adobe Illustrator 19.0.0, SVG Export Plug-In . SVG Version: 6.00 Build 0)  -->
<svg version="1.1" id="Capa_1" xmlns="http://www.w3.org/2000/svg" xmlns:xlink="http://www.w3.org/1999/xlink" x="0px" y="0px"
	 viewBox="0 0 511.999 511.999" style="enable-background:new 0 0 511.999 511.999;" xml:space="preserve">
<g>
	<g>
		<path d="M509.775,94.655L417.361,2.243c-2.992-2.991-7.839-2.991-10.83,0c-2.991,2.991-2.991,7.839,0,10.829l29.24,29.24
			l-75.807,75.806l-52.343-52.343c-2.992-2.991-7.839-2.991-10.83,0c-2.991,2.991-2.991,7.839,0,10.829l17.688,17.688
			L94.638,314.136c-1.543,1.542-2.369,3.747-2.226,5.924l5.544,83.17L2.224,498.961c-2.787,2.787-2.973,7.393-0.406,10.39
			c2.864,3.345,8.122,3.553,11.237,0.439l95.732-95.732l83.17,5.544c2.178,0.146,4.381-0.683,5.925-2.226l179-178.999
			c2.991-2.991,2.991-7.839,0-10.829c-2.992-2.991-7.839-2.991-10.83,0l-34.966,34.966l-23.825-23.825l75.807-75.807l23.825,23.826
			l-14.465,14.465c-2.991,2.991-2.991,7.839,0,10.829c2.992,2.991,7.839,2.991,10.83,0l14.465-14.465l17.687,17.687
			c3.115,3.114,8.373,2.905,11.237-0.439c2.566-2.997,2.381-7.603-0.406-10.39l-52.343-52.344l75.807-75.807l29.239,29.239
			c3.115,3.114,8.373,2.906,11.237-0.439C512.748,102.049,512.562,97.443,509.775,94.655z M325.309,105.124l23.825,23.826
			l-75.807,75.806l-23.825-23.825L325.309,105.124z M113.023,398.993l-3.974-59.616l63.59,63.59L113.023,398.993z M192.465,401.134
			l-81.583-81.583l12.273-12.274l81.583,81.583L192.465,401.134z M320.255,273.344L215.569,378.031l-81.583-81.583l18.068-18.067
			c0.111,0.128,0.221,0.257,0.342,0.379l17.328,17.328c3.115,3.114,8.373,2.905,11.237-0.439c2.566-2.997,2.381-7.603-0.406-10.39
			l-17.328-17.328c-0.122-0.122-0.252-0.231-0.38-0.343l18.086-18.086c0.112,0.128,0.221,0.257,0.342,0.379l17.328,17.328
			c3.115,3.114,8.373,2.905,11.237-0.439c2.566-2.997,2.381-7.603-0.406-10.39l-17.328-17.328c-0.122-0.122-0.251-0.231-0.38-0.343
			l18.086-18.086c0.112,0.128,0.221,0.257,0.342,0.379l17.328,17.328c3.115,3.114,8.373,2.905,11.237-0.439
			c2.566-2.997,2.381-7.603-0.406-10.39l-17.328-17.328c-0.122-0.122-0.251-0.231-0.38-0.343l18.068-18.068L320.255,273.344z
			 M296.431,227.86l-12.274-12.274l75.806-75.807l12.274,12.274L296.431,227.86z M383.068,141.222l-12.274-12.274l75.807-75.807
			l12.274,12.274L383.068,141.222z"/>
	</g>
</g>
<g>
</g>
<g>
</g>
<g>
</g>
<g>
</g>
<g>
</g>
<g>
</g>
<g>
</g>
<g>
</g>
<g>
</g>
<g>
</g>
<g>
</g>
<g>
</g>
<g>
</g>
<g>
</g>
<g>
</g>
</svg>
