<?xml version="1.0" encoding="iso-8859-1"?>
<!-- Generator: Adobe Illustrator 19.0.0, SVG Export Plug-In . SVG Version: 6.00 Build 0)  -->
<svg version="1.1" id="Capa_1" xmlns="http://www.w3.org/2000/svg" xmlns:xlink="http://www.w3.org/1999/xlink" x="0px" y="0px"
	 viewBox="0 0 512 512" style="enable-background:new 0 0 512 512;" xml:space="preserve">
<g>
	<g>
		<path d="M421.125,360.531c-0.388-4.132-4.044-7.171-8.183-6.78c-4.132,0.388-7.166,4.052-6.78,8.183
			c1.764,18.806,2.622,39.217,2.622,62.402v48.089c0,13.534-11.011,24.546-24.546,24.546s-24.546-11.011-24.546-24.546v-48.089
			c0-57.255-5.363-97.519-16.876-126.711c-9.341-23.684-21.588-37.615-34.754-50.979l34.715-34.715
			c15.247,15.441,31.67,33.71,44.104,63.761c6.597,15.946,11.537,33.712,15.101,54.315c0.707,4.089,4.593,6.827,8.684,6.123
			c4.09-0.707,6.831-4.596,6.123-8.684c-3.755-21.708-8.996-40.517-16.023-57.5c-15.035-36.335-35.027-56.327-52.666-73.966
			c-2.934-2.935-7.692-2.935-10.626,0l-8.779,8.779c-16.765-17.653-30.081-36.193-39.658-55.228
			c2.261-3.423,4.001-7.215,5.116-11.267c15.275-3.834,27.776-9.543,37.158-16.992c13.513-10.728,20.366-24.717,20.366-41.578
			c0-49.792-16.586-75.243-17.292-76.302c-2.707-4.062-7.61-3.346-11.824-3.346c-2.444,0-4.804-0.07-6.867,1.448
			c-1.678,1.235-2.813,3.162-3.044,5.236l-7.532,67.782l-36.603,15.687c-0.021,0.009-0.04,0.021-0.061,0.03
			c-3.919-1.303-8.104-2.02-12.455-2.02c-4.349,0-8.533,0.715-12.45,2.018L206.88,74.514l-7.532-67.782
			c-0.23-2.075-1.366-4-3.044-5.236c-2.064-1.519-4.423-1.448-6.867-1.448c-4.215,0-9.117-0.715-11.824,3.346
			c-0.706,1.059-17.292,26.51-17.292,76.302c0,16.958,6.928,31.008,20.59,41.757c9.359,7.364,21.78,13.013,36.934,16.816
			c1.114,4.051,2.855,7.844,5.116,11.266c-9.582,19.037-22.902,37.58-39.659,55.226l-8.779-8.779c-2.934-2.934-7.692-2.934-10.626,0
			c-17.639,17.639-37.631,37.631-52.666,73.966C95.51,307.942,88.188,357,88.188,424.337v48.089
			c0,21.821,17.753,39.574,39.574,39.574c21.821,0,39.574-17.753,39.574-39.574v-48.089c0-119.862,24.342-144.204,52.529-172.39
			c2.934-2.935,2.934-7.692,0-10.626l-8.922-8.922c18.703-19.561,33.832-40.196,45.062-61.489
			c11.232,21.295,26.358,41.934,45.055,61.489l-8.922,8.922c-2.934,2.934-2.934,7.692,0,10.626
			c28.186,28.186,52.529,52.529,52.529,172.39v48.089c0,21.821,17.753,39.574,39.574,39.574c21.821,0,39.574-17.753,39.574-39.574
			v-48.089C423.812,400.68,422.933,379.809,421.125,360.531z M315.065,86.603c2.487-1.066,4.209-3.387,4.508-6.076l6.66-59.945
			c4.361,10.503,10.416,30.279,10.416,59.116c0,20.405-13.942,34.758-41.449,42.729c-1.188-8.731-5.226-16.568-11.155-22.529
			L315.065,86.603z M216.799,122.425c-27.506-7.966-41.449-22.315-41.449-42.728c0-28.848,6.06-48.628,10.416-59.119l6.66,59.948
			c0.299,2.69,2.021,5.01,4.508,6.076l31.019,13.294C222.025,105.857,217.987,113.694,216.799,122.425z M169.183,297.626
			c-11.513,29.191-16.876,69.455-16.876,126.711v48.089c0,13.534-11.011,24.546-24.546,24.546
			c-13.534,0-24.546-11.011-24.546-24.546v-48.089c0-65.299,6.96-112.532,21.903-148.644c12.434-30.05,28.857-48.319,44.104-63.761
			l34.715,34.715C190.771,260.011,178.525,273.942,169.183,297.626z M200.313,221.769l-6.38-6.379
			c16.604-17.439,30.075-35.78,40.156-54.672c2.514,1.678,5.228,3.075,8.1,4.149C231.71,184.498,217.658,203.588,200.313,221.769z
			 M256,152.332c-13.534,0-24.546-11.011-24.546-24.546S242.466,103.24,256,103.24c13.535,0,24.546,11.01,24.546,24.546
			C280.545,141.32,269.534,152.332,256,152.332z M269.804,164.87c2.874-1.074,5.591-2.473,8.107-4.151
			c10.078,18.889,23.545,37.225,40.156,54.672l-6.379,6.379C294.349,203.594,280.286,184.503,269.804,164.87z"/>
	</g>
</g>
<g>
	<g>
		<circle cx="255.996" cy="127.787" r="7.514"/>
	</g>
</g>
<g>
</g>
<g>
</g>
<g>
</g>
<g>
</g>
<g>
</g>
<g>
</g>
<g>
</g>
<g>
</g>
<g>
</g>
<g>
</g>
<g>
</g>
<g>
</g>
<g>
</g>
<g>
</g>
<g>
</g>
</svg>
