<?xml version="1.0" encoding="iso-8859-1"?>
<!-- Generator: Adobe Illustrator 19.0.0, SVG Export Plug-In . SVG Version: 6.00 Build 0)  -->
<svg version="1.1" id="Capa_1" xmlns="http://www.w3.org/2000/svg" xmlns:xlink="http://www.w3.org/1999/xlink" x="0px" y="0px"
	 viewBox="0 0 512 512" style="enable-background:new 0 0 512 512;" xml:space="preserve">
<g>
	<g>
		<path d="M424.329,112.219c-26.795,0-48.595-28.992-48.595-64.626c0-4.15-3.364-7.515-7.515-7.515s-7.515,3.365-7.515,7.515
			c0,35.635-21.8,64.626-48.595,64.626c-4.151,0-7.515,3.365-7.515,7.515c0,4.15,3.364,7.515,7.515,7.515
			c26.795,0,48.595,28.992,48.595,64.626c0,4.15,3.364,7.515,7.515,7.515s7.515-3.365,7.515-7.515
			c0-35.635,21.8-64.626,48.595-64.626c4.151,0,7.515-3.365,7.515-7.515C431.843,115.584,428.48,112.219,424.329,112.219z
			 M368.219,154.344c-6.469-15.096-16.716-27.299-29.141-34.611c12.425-7.311,22.672-19.515,29.141-34.611
			c6.469,15.096,16.716,27.299,29.141,34.611C384.935,127.045,374.688,139.249,368.219,154.344z"/>
	</g>
</g>
<g>
	<g>
		<path d="M320.125,200.391c-17.651,0-32.564-22.253-32.564-48.595c0-4.15-3.364-7.515-7.515-7.515
			c-4.151,0-7.515,3.365-7.515,7.515c0,26.341-14.912,48.595-32.564,48.595c-4.15,0-7.515,3.365-7.515,7.515
			s3.365,7.515,7.515,7.515c17.651,0,32.564,22.253,32.564,48.595c0,4.15,3.364,7.515,7.515,7.515c4.151,0,7.515-3.365,7.515-7.515
			c0-26.341,14.912-48.595,32.564-48.595c4.151,0,7.515-3.365,7.515-7.515S324.276,200.391,320.125,200.391z M285.67,219.973
			c-2.116,2.963-3.995,6.162-5.623,9.553c-1.628-3.391-3.507-6.59-5.623-9.553c-3.502-4.903-7.489-8.95-11.828-12.067
			c4.339-3.117,8.326-7.164,11.828-12.067c2.116-2.963,3.995-6.162,5.623-9.553c1.628,3.391,3.507,6.59,5.623,9.553
			c3.502,4.903,7.489,8.95,11.828,12.067C293.159,211.023,289.172,215.07,285.67,219.973z"/>
	</g>
</g>
<g>
	<g>
		<path d="M440.36,256.501c-17.651,0-32.564-22.253-32.564-48.595c0-4.15-3.364-7.515-7.515-7.515s-7.515,3.365-7.515,7.515
			c0,26.341-14.912,48.595-32.564,48.595c-4.151,0-7.515,3.365-7.515,7.515c0,4.15,3.364,7.515,7.515,7.515
			c17.651,0,32.564,22.253,32.564,48.595c0,4.15,3.364,7.515,7.515,7.515s7.515-3.365,7.515-7.515
			c0-26.341,14.912-48.595,32.564-48.595c4.151,0,7.515-3.365,7.515-7.515C447.875,259.866,444.511,256.501,440.36,256.501z
			 M405.905,276.082c-2.116,2.963-3.995,6.162-5.623,9.553c-1.628-3.391-3.507-6.59-5.623-9.553
			c-3.502-4.903-7.489-8.949-11.828-12.067c4.339-3.117,8.326-7.164,11.828-12.067c2.116-2.963,3.995-6.162,5.623-9.553
			c1.628,3.391,3.507,6.59,5.623,9.553c3.502,4.903,7.489,8.949,11.828,12.067C413.393,267.133,409.407,271.18,405.905,276.082z"/>
	</g>
</g>
<g>
	<g>
		<path d="M422.42,340.231c-0.54-4.115-4.322-7.012-8.429-6.47c-4.114,0.542-7.012,4.316-6.47,8.432
			c8.555,65.01-11.627,127.842-29.487,148.204c-3.663,4.178-7.242,6.575-9.815,6.575c-0.03,0-3.107-0.133-7.78-11.675
			c-3.912-9.663-7.532-23.799-11.364-38.764C335.47,393.397,316.837,320.626,256,320.626s-79.47,72.771-93.076,125.906
			c-3.832,14.965-7.452,29.101-11.363,38.764c-4.673,11.542-7.75,11.675-7.78,11.675c-2.362,0-5.641-2.067-8.999-5.67
			c-9.058-9.722-18.055-29.477-24.067-52.844c-6.805-26.446-9.504-55.819-7.6-82.713c0.293-4.14-2.826-7.734-6.966-8.027
			c-4.143-0.297-7.734,2.826-8.027,6.966c-4.472,63.171,14.622,124.28,35.663,146.864c6.464,6.937,13.191,10.453,19.995,10.453
			c17.894,0,24.526-25.897,33.703-61.74c6.597-25.763,14.073-54.963,26.542-77.746c13.573-24.802,30.575-36.859,51.974-36.859
			s38.401,12.057,51.974,36.859c12.467,22.781,19.944,51.983,26.541,77.746c9.178,35.843,15.81,61.74,33.704,61.74
			c7.205,0,14.31-3.935,21.114-11.694C411.98,474.486,431.068,405.943,422.42,340.231z"/>
	</g>
</g>
<g>
	<g>
		<path d="M428.201,32.434C404.814,11.518,372.125,0,336.157,0c-29.215,0-57.915,13.129-79.917,36.299
			C234.367,13.434,204.88,0,175.843,0c-35.968,0-68.657,11.518-92.045,32.434c-23.025,20.59-35.705,48.747-35.705,79.284
			c0,71.848,25.72,101.038,44.501,122.353c15.553,17.65,23.36,26.511,12.282,50.881c-4.846,10.663-8.744,22.31-11.586,34.619
			c-0.909,3.94,1.575,7.99,5.493,8.978c4.026,1.015,8.219-1.556,9.152-5.598c2.616-11.335,6.191-22.028,10.624-31.78
			c15.103-33.227,1.298-48.895-14.688-67.037c-18.154-20.602-40.749-46.244-40.749-112.416c0-56.025,47.406-96.689,112.72-96.689
			c25.496,0,51.536,12.21,70.718,32.917c-0.373,0.535-0.75,1.075-1.118,1.604c-12.814,18.43-21.28,30.606-53.569,30.606
			c-4.15,0-7.515,3.365-7.515,7.515c0,4.15,3.365,7.515,7.515,7.515c40.144,0,52.084-17.173,65.908-37.056
			c1.121-1.611,2.274-3.261,3.457-4.93c0.279-0.248,0.547-0.51,0.789-0.802c19.749-23.748,46.766-37.369,74.128-37.369
			c65.315,0,112.72,40.663,112.72,96.689c0,53.435-15.045,80.095-28.153,97.352c-2.51,3.305-1.866,8.02,1.44,10.53
			c3.303,2.51,8.019,1.866,10.53-1.439c14.532-19.132,31.213-48.522,31.213-106.443C463.906,81.182,451.226,53.025,428.201,32.434z"
			/>
	</g>
</g>
<g>
</g>
<g>
</g>
<g>
</g>
<g>
</g>
<g>
</g>
<g>
</g>
<g>
</g>
<g>
</g>
<g>
</g>
<g>
</g>
<g>
</g>
<g>
</g>
<g>
</g>
<g>
</g>
<g>
</g>
</svg>
