<?xml version="1.0" encoding="iso-8859-1"?>
<!-- Generator: Adobe Illustrator 19.0.0, SVG Export Plug-In . SVG Version: 6.00 Build 0)  -->
<svg version="1.1" id="Capa_1" xmlns="http://www.w3.org/2000/svg" xmlns:xlink="http://www.w3.org/1999/xlink" x="0px" y="0px"
	 viewBox="0 0 512 512" style="enable-background:new 0 0 512 512;" xml:space="preserve">
<g>
	<g>
		<path d="M479.12,293.928c5.42-4.334,12.841-10.27,12.841-21.897v-92.18c0-24.033-19.552-43.585-43.585-43.585h-14.951
			l-13.605-34.011v-26.39c2.481-1.475,4.704-3.411,6.543-5.766c4.494-5.755,6.055-13.118,4.284-20.201L419.595,5.692
			C418.759,2.347,415.753,0,412.305,0H59.616c-3.448,0-6.454,2.347-7.29,5.692L41.274,49.898c-1.77,7.083-0.209,14.446,4.284,20.201
			c1.839,2.356,4.062,4.291,6.543,5.766v26.39l-31.47,78.677c-0.537,1.253-0.713,2.695-0.509,4.043L35.92,290.291
			c0.559,3.726,3.764,6.401,7.422,6.401c0.371,0,0.746-0.027,1.124-0.084c4.105-0.615,6.933-4.442,6.317-8.547L36.28,191.374
			h104.504c2.281,16.718,12.169,32.094,28.409,43.906c17.928,13.038,41.64,20.219,66.767,20.219s48.839-7.181,66.767-20.219
			c16.242-11.812,26.128-27.188,28.409-43.906h104.504L391.914,482.89c-1.224,8.159-8.101,14.081-16.35,14.081H96.357
			c-8.249,0-15.127-5.922-16.35-14.08L56.161,323.925c-0.615-4.105-4.447-6.931-8.546-6.317c-4.105,0.615-6.933,4.442-6.317,8.546
			L65.143,485.12C67.48,500.696,80.607,512,96.357,512h279.207c15.75,0,28.876-11.304,31.213-26.88l45.022-300.146
			c0.195-1.297,0.033-2.687-0.454-3.906l-11.909-29.772h8.939c15.746,0,28.556,12.81,28.556,28.556v92.18
			c0,4.023-1.975,5.982-7.199,10.161c-5.419,4.334-12.84,10.27-12.84,21.897s7.421,17.564,12.84,21.899
			c5.224,4.18,7.199,6.139,7.199,10.163c0,4.024-1.975,5.983-7.2,10.163c-5.419,4.333-12.839,10.271-12.839,21.898
			c0,11.628,7.42,17.564,12.839,21.9c5.225,4.18,7.2,6.139,7.2,10.164c0,4.025-1.975,5.984-7.2,10.164
			c-5.419,4.333-12.839,10.271-12.839,21.898c0,11.628,7.42,17.565,12.839,21.901c5.225,4.18,7.2,6.14,7.2,10.166
			c0,4.026-1.975,5.985-7.2,10.166c-5.419,4.335-12.839,10.273-12.839,21.901c0,4.15,3.364,7.515,7.515,7.515
			s7.515-3.365,7.515-7.515c0-4.026,1.975-5.985,7.2-10.166c5.419-4.336,12.839-10.273,12.839-21.901
			c0-11.628-7.421-17.565-12.839-21.901c-5.225-4.18-7.2-6.14-7.2-10.166c0-4.024,1.975-5.983,7.2-10.163
			c5.419-4.334,12.839-10.271,12.839-21.899c0-11.627-7.421-17.564-12.839-21.899c-5.225-4.18-7.2-6.139-7.2-10.164
			c0-4.024,1.975-5.983,7.2-10.163c5.419-4.334,12.839-10.271,12.839-21.899c0-11.627-7.421-17.563-12.839-21.898
			c-5.225-4.18-7.2-6.139-7.2-10.163C471.921,300.066,473.895,298.107,479.12,293.928z M55.855,53.544l9.628-38.514h340.955
			l9.628,38.513c1.327,5.299-2.808,10.583-8.261,10.583h-99.703c-4.151,0-7.515,3.365-7.515,7.515
			c0,21.996-29.595,40.579-64.626,40.579s-64.626-18.583-64.626-40.579c0-4.15-3.364-7.515-7.515-7.515H64.117
			C58.664,64.125,54.529,58.842,55.855,53.544z M404.79,79.155v17.033h-97.19c3.71-5.316,6.193-11.047,7.317-17.033H404.79z
			 M164.321,96.188h-97.19V79.155h89.873C158.128,85.141,160.61,90.871,164.321,96.188z M76.302,176.344H38.653l26.051-65.127
			h115.094c0.329,0.226,0.647,0.459,0.982,0.683c14.847,9.897,34.443,15.348,55.181,15.348c20.737,0,40.334-5.451,55.18-15.348
			c0.336-0.223,0.653-0.456,0.982-0.683h115.095l10.02,25.049H119.734C96.882,136.266,78.095,153.947,76.302,176.344z
			 M235.961,240.47c-15.687,0-30.33-3.17-42.73-8.63c13.487-5.513,28.048-8.403,42.73-8.403c14.677,0,29.245,2.891,42.731,8.402
			C266.292,237.299,251.647,240.47,235.961,240.47z M294.614,222.658c-18.011-9.319-38.245-14.251-58.654-14.251
			c-20.418,0-40.636,4.929-58.655,14.25c-5.004-3.724-9.297-7.919-12.728-12.484c21.689-12.311,46.249-18.799,71.382-18.799
			c25.144,0,49.687,6.493,71.377,18.805C303.908,214.742,299.616,218.936,294.614,222.658z M324.133,176.344
			c-4.151,0-7.515,3.365-7.515,7.515c0,4.498-0.774,8.868-2.192,13.067c-23.871-13.473-50.841-20.581-78.465-20.581
			c-27.612,0-54.599,7.103-78.467,20.574c-1.418-4.196-2.19-8.565-2.19-13.06c0-4.15-3.364-7.515-7.515-7.515H91.4
			c1.735-14.097,13.775-25.049,28.332-25.049h303.515l10.021,25.049H324.133z"/>
	</g>
</g>
<g>
	<g>
		<path d="M235.961,272.532c-57.182,0-103.703,46.521-103.703,103.703c0,57.182,46.52,103.703,103.703,103.703
			s103.703-46.521,103.703-103.703C339.663,319.053,293.142,272.532,235.961,272.532z M235.961,464.908
			c-48.895,0-88.673-39.779-88.673-88.673c0-48.894,39.779-88.673,88.673-88.673c48.894,0,88.673,39.779,88.673,88.673
			C324.634,425.129,284.855,464.908,235.961,464.908z"/>
	</g>
</g>
<g>
	<g>
		<path d="M278.089,372.977c4.673-5.303,11.735-13.318,11.735-32.118c0-18.024-15.186-31.616-35.324-31.616
			c-6.576,0-13.025,2.287-18.486,6.438c-5.477-4.15-11.961-6.438-18.592-6.438c-20.138,0-35.324,13.592-35.324,31.616
			c0,18.8,7.062,26.814,11.735,32.118c2.932,3.327,2.932,3.327,1.916,5.559c-8.454,18.599-3.679,42.914,3.019,53.315
			c3.92,6.088,8.275,7.365,11.239,7.365c8.622,0,10.939-9.046,13.391-18.623c2.99-11.679,6.201-22.163,12.564-22.163
			s9.573,10.484,12.564,22.163c2.452,9.578,4.769,18.623,13.391,18.623c2.964,0,7.319-1.277,11.239-7.365
			c6.698-10.401,11.472-34.716,3.019-53.315C275.157,376.303,275.157,376.303,278.089,372.977z M266.812,363.042
			c-3.951,4.484-9.362,10.625-4.321,21.714c4.913,10.806,3.364,24.428,0.766,32.78c-0.059-0.228-0.116-0.452-0.172-0.67
			c-3.204-12.516-8.569-33.464-27.123-33.464c-18.554,0-23.92,20.948-27.125,33.464c-0.056,0.218-0.113,0.443-0.172,0.67
			c-2.598-8.352-4.147-21.974,0.766-32.78c5.04-11.089-0.371-17.231-4.321-21.714c-3.741-4.246-7.983-9.06-7.983-22.182
			c0-9.611,8.536-16.586,20.295-16.586c4.612,0,9.403,2.452,12.819,6.559c2.959,3.559,8.598,3.559,11.556,0
			c3.467-4.168,8.097-6.559,12.704-6.559c11.759,0,20.295,6.976,20.295,16.586C274.794,353.982,270.554,358.795,266.812,363.042z"/>
	</g>
</g>
<g>
</g>
<g>
</g>
<g>
</g>
<g>
</g>
<g>
</g>
<g>
</g>
<g>
</g>
<g>
</g>
<g>
</g>
<g>
</g>
<g>
</g>
<g>
</g>
<g>
</g>
<g>
</g>
<g>
</g>
</svg>
