<?xml version="1.0" encoding="iso-8859-1"?>
<!-- Generator: Adobe Illustrator 19.0.0, SVG Export Plug-In . SVG Version: 6.00 Build 0)  -->
<svg version="1.1" id="Capa_1" xmlns="http://www.w3.org/2000/svg" xmlns:xlink="http://www.w3.org/1999/xlink" x="0px" y="0px"
	 viewBox="0 0 512 512" style="enable-background:new 0 0 512 512;" xml:space="preserve">
<g>
	<g>
		<path d="M456.391,24.047H297.361C288.96,9.291,273.224,0,256,0s-32.96,9.291-41.361,24.047H55.609
			c-4.151,0-7.515,3.365-7.515,7.515v472.924c0,4.15,3.364,7.515,7.515,7.515h400.783c4.151,0,7.515-3.365,7.515-7.515V31.562
			C463.906,27.412,460.542,24.047,456.391,24.047z M199.389,39.076h17.534c1.382,0,2.821,0.112,4.172-0.227
			c2.238-0.562,4.132-2.162,5.056-4.277C231.341,22.7,243.057,15.029,256,15.029s24.659,7.671,29.848,19.542
			c1.022,2.338,3.224,4.032,5.746,4.419c1.353,0.207,2.785,0.086,4.15,0.086h16.866v49.096H199.389V39.076z M448.877,496.971H63.123
			V39.076H184.36v9.018H95.687c-4.151,0-7.515,3.365-7.515,7.515v104.537c0,4.15,3.364,7.515,7.515,7.515s7.515-3.365,7.515-7.515
			V63.123h81.159v32.564c0,4.15,3.364,7.515,7.515,7.515h128.25c4.151,0,7.515-3.365,7.515-7.515V63.123h81.159v353.691h-48.595
			c-4.092,0-7.515,3.423-7.515,7.515v48.595H103.202V195.549c0-4.15-3.364-7.515-7.515-7.515s-7.515,3.365-7.515,7.515v284.889
			c0,4.15,3.364,7.515,7.515,7.515h264.517c1.971,0,3.921-0.81,5.314-2.201l56.11-56.11c1.393-1.393,2.2-3.345,2.2-5.314V55.608
			c0-4.092-3.423-7.515-7.515-7.515l-88.673,0.001v-9.018h121.237V496.971z M398.171,431.843l-30.452,30.453v-30.453H398.171z"/>
	</g>
</g>
<g>
	<g>
		<path d="M320.125,408.798h-128.25c-4.151,0-7.515,3.365-7.515,7.515s3.364,7.515,7.515,7.515h128.25
			c4.151,0,7.515-3.365,7.515-7.515S324.276,408.798,320.125,408.798z"/>
	</g>
</g>
<g>
	<g>
		<path d="M223.937,440.861h-32.063c-4.151,0-7.515,3.365-7.515,7.515s3.364,7.515,7.515,7.515h32.063
			c4.151,0,7.515-3.365,7.515-7.515S228.089,440.861,223.937,440.861z"/>
	</g>
</g>
<g>
	<g>
		<path d="M320.125,440.861H256c-4.151,0-7.515,3.365-7.515,7.515s3.364,7.515,7.515,7.515h64.125c4.151,0,7.515-3.365,7.515-7.515
			S324.276,440.861,320.125,440.861z"/>
	</g>
</g>
<g>
	<g>
		<path d="M256,32.063c-12.983,0-23.546,10.563-23.546,23.546c0,12.983,10.563,23.546,23.546,23.546s23.546-10.563,23.546-23.546
			C279.546,42.625,268.983,32.063,256,32.063z M256,64.125c-4.696,0-8.517-3.82-8.517-8.517c0-4.696,3.82-8.517,8.517-8.517
			s8.517,3.82,8.517,8.517C264.517,60.305,260.696,64.125,256,64.125z"/>
	</g>
</g>
<g>
	<g>
		<path d="M342.203,245.229c9.414-10.685,23.642-26.831,23.642-64.91c0-16.655-6.91-32.005-19.459-43.227
			c-12.618-11.284-30.18-17.498-49.453-17.498c-14.77,0-29.267,6.117-40.807,17.018c-11.565-10.9-26.149-17.018-41.057-17.018
			c-19.273,0-36.836,6.214-49.453,17.498c-12.549,11.222-19.459,26.573-19.459,43.227c0,38.077,14.228,54.225,23.642,64.91
			c7.743,8.79,10.353,11.752,5.681,22.03c-9.822,21.609-10.053,44.937-8.517,60.701c1.852,18.997,7.29,37.068,14.549,48.34
			c5.169,8.029,10.95,12.099,17.182,12.099c9.21,0,13.188-9.825,14.495-13.054c2.283-5.64,4.135-12.869,6.278-21.24
			c7.811-30.506,15.952-55.757,36.531-55.757c20.579,0,28.72,25.251,36.531,55.757c2.143,8.37,3.994,15.598,6.278,21.24
			c1.308,3.228,5.284,13.054,14.495,13.054c6.232,0,12.013-4.071,17.182-12.099c7.258-11.272,12.698-29.343,14.549-48.34
			c1.536-15.764,1.306-39.09-8.517-60.701C331.848,256.981,334.457,254.019,342.203,245.229z M322.835,273.477
			c12.514,27.531,8.572,65.968-1.493,88.155c-3.006,6.627-5.71,9.808-7.236,11.08c-2.287-3.873-4.984-14.397-7.016-22.336
			c-3.534-13.804-7.541-29.45-14.591-42.334c-8.979-16.406-21.259-24.724-36.499-24.724c-15.241,0-27.521,8.318-36.499,24.724
			c-7.051,12.885-11.058,28.531-14.591,42.334c-2.032,7.938-4.728,18.462-7.016,22.336c-1.525-1.271-4.23-4.452-7.236-11.08
			c-10.065-22.188-14.007-60.624-1.493-88.155c8.697-19.134,0.163-28.819-8.089-38.186c-8.861-10.057-19.89-22.573-19.89-54.973
			c0.001-26.477,22.661-45.695,53.883-45.695c11.122,0,22.495,4.982,31.349,13.531c-5.779,8.237-9.498,12.37-23.163,12.37
			c-4.151,0-7.515,3.365-7.515,7.515c0,4.15,3.364,7.515,7.515,7.515c22.422,0,29.668-10.422,36.676-20.501
			c0.509-0.731,1.043-1.489,1.576-2.244c0.136-0.14,0.274-0.279,0.4-0.431c9.383-11.284,22.149-17.756,35.025-17.756
			c31.222,0,53.882,19.219,53.882,45.696c0,32.4-11.029,44.917-19.89,54.973C322.671,244.658,314.138,254.343,322.835,273.477z"/>
	</g>
</g>
<g>
</g>
<g>
</g>
<g>
</g>
<g>
</g>
<g>
</g>
<g>
</g>
<g>
</g>
<g>
</g>
<g>
</g>
<g>
</g>
<g>
</g>
<g>
</g>
<g>
</g>
<g>
</g>
<g>
</g>
</svg>
