<?xml version="1.0" encoding="iso-8859-1"?>
<!-- Generator: Adobe Illustrator 19.0.0, SVG Export Plug-In . SVG Version: 6.00 Build 0)  -->
<svg version="1.1" id="Capa_1" xmlns="http://www.w3.org/2000/svg" xmlns:xlink="http://www.w3.org/1999/xlink" x="0px" y="0px"
	 viewBox="0 0 512 512" style="enable-background:new 0 0 512 512;" xml:space="preserve">
<g>
	<g>
		<path d="M278.076,125.635c9.414-10.685,23.642-26.831,23.642-64.91c0-16.655-6.911-32.005-19.458-43.227
			C269.642,6.214,252.079,0,232.807,0C218.037,0,203.541,6.117,192,17.018C180.436,6.117,165.852,0,150.943,0
			c-19.273,0-36.836,6.214-49.454,17.498C88.942,28.719,82.031,44.071,82.031,60.726c0,38.078,14.228,54.225,23.642,64.91
			c7.746,8.791,10.355,11.752,5.684,22.03c-3.741,8.231-6.382,17.45-7.849,27.4c-0.605,4.106,2.232,7.925,6.338,8.531
			c4.112,0.605,7.925-2.232,8.531-6.338c1.261-8.559,3.504-16.422,6.663-23.373c8.697-19.134,0.164-28.819-8.089-38.185
			c-8.861-10.057-19.89-22.573-19.89-54.974c-0.001-26.478,22.66-45.696,53.881-45.696c11.122,0,22.496,4.982,31.349,13.531
			c-5.779,8.237-9.498,12.37-23.163,12.37c-4.15,0-7.515,3.365-7.515,7.515s3.365,7.515,7.515,7.515
			c22.422,0,29.668-10.422,36.676-20.501c0.509-0.731,1.043-1.49,1.576-2.245c0.136-0.139,0.274-0.279,0.399-0.429
			c9.384-11.284,22.151-17.756,35.027-17.756c31.222,0,53.882,19.219,53.882,45.696c0,32.401-11.029,44.918-19.89,54.974
			c-8.253,9.366-16.786,19.051-8.089,38.185c12.514,27.532,8.571,65.968-1.493,88.156c-3.006,6.627-5.711,9.807-7.236,11.079
			c-2.289-3.873-4.983-14.397-7.016-22.336c-3.534-13.804-7.541-29.45-14.591-42.334c-8.979-16.406-21.258-24.724-36.499-24.724
			s-27.521,8.318-36.499,24.724c-7.052,12.885-11.058,28.531-14.591,42.334c-2.041,7.971-4.749,18.549-7.044,22.383
			c-4.395-3.507-13.274-20.032-15.885-45.686c-0.42-4.129-4.113-7.133-8.237-6.715c-4.129,0.42-7.136,4.108-6.715,8.237
			c2.95,28.992,15.051,59.803,31.667,59.803c9.21,0,13.188-9.825,14.495-13.053c2.283-5.64,4.134-12.869,6.278-21.239
			c7.811-30.506,15.951-55.757,36.531-55.757c20.58,0,28.72,25.251,36.531,55.757c2.143,8.37,3.994,15.599,6.278,21.239
			c1.308,3.228,5.285,13.053,14.495,13.053c6.232,0,12.013-4.071,17.182-12.099c7.258-11.272,12.697-29.344,14.548-48.34
			c1.536-15.764,1.306-39.091-8.517-60.701C267.721,137.387,270.331,134.427,278.076,125.635z"/>
	</g>
</g>
<g>
	<g>
		<path d="M512,90.316c0-30.663-24.946-55.609-55.609-55.609c-30.663,0-55.609,24.946-55.609,55.609
			c0,28.139,21.014,51.448,48.17,55.097c-0.045,0.332-0.076,0.668-0.076,1.013v225.801c0,68.783-55.96,124.744-124.744,124.744
			s-124.744-55.96-124.744-124.744v-33.926h16.532c92.541,0,167.828-75.287,167.828-167.828V74.285c0-4.15-3.365-7.515-7.515-7.515
			h-16.532v-8.517c0-4.15-3.365-7.515-7.515-7.515h-8.016c-12.983,0-23.546,10.563-23.546,23.546s10.563,23.546,23.546,23.546h8.016
			c4.15,0,7.515-3.365,7.515-7.515V81.8h9.018v88.673c0,84.254-68.545,152.798-152.798,152.798h-48.094
			c-84.254,0-152.798-68.545-152.798-152.798V81.8h9.018v8.517c0,4.15,3.365,7.515,7.515,7.515h8.016
			c12.983,0,23.546-10.563,23.546-23.546S52.561,50.739,39.577,50.739h-8.016c-4.15,0-7.515,3.365-7.515,7.515v8.517H7.515
			C3.365,66.77,0,70.135,0,74.285v96.188c0,92.541,75.287,167.828,167.828,167.828h16.532v33.926
			c0,77.07,62.702,139.773,139.773,139.773s139.773-62.702,139.773-139.773V146.426c0-0.345-0.031-0.681-0.076-1.013
			C490.986,141.765,512,118.456,512,90.316z M344.673,82.802h-0.501c-4.696,0-8.517-3.82-8.517-8.517s3.82-8.517,8.517-8.517h0.501
			V82.802z M39.076,65.768h0.501c4.696,0,8.517,3.82,8.517,8.517s-3.82,8.517-8.517,8.517h-0.501V65.768z M456.391,130.896
			c-22.376,0-40.579-18.204-40.579-40.579c0-22.376,18.204-40.579,40.579-40.579c22.376,0,40.579,18.205,40.579,40.579
			S478.767,130.896,456.391,130.896z"/>
	</g>
</g>
<g>
	<g>
		<path d="M456.391,61.761c-15.746,0-28.556,12.81-28.556,28.556s12.81,28.556,28.556,28.556c15.746,0,28.556-12.81,28.556-28.556
			S472.137,61.761,456.391,61.761z M456.391,103.843c-7.459,0-13.526-6.068-13.526-13.526s6.068-13.526,13.526-13.526
			c7.459,0,13.526,6.068,13.526,13.526S463.85,103.843,456.391,103.843z"/>
	</g>
</g>
<g>
</g>
<g>
</g>
<g>
</g>
<g>
</g>
<g>
</g>
<g>
</g>
<g>
</g>
<g>
</g>
<g>
</g>
<g>
</g>
<g>
</g>
<g>
</g>
<g>
</g>
<g>
</g>
<g>
</g>
</svg>
