<?xml version="1.0" encoding="iso-8859-1"?>
<!-- Generator: Adobe Illustrator 19.0.0, SVG Export Plug-In . SVG Version: 6.00 Build 0)  -->
<svg version="1.1" id="Capa_1" xmlns="http://www.w3.org/2000/svg" xmlns:xlink="http://www.w3.org/1999/xlink" x="0px" y="0px"
	 viewBox="0 0 511.999 511.999" style="enable-background:new 0 0 511.999 511.999;" xml:space="preserve">
<g>
	<g>
		<path d="M462.858,453.835L388.28,320.972l6.547-20.151l48.613-35.318c2.633-1.913,3.735-5.303,2.729-8.399L427.6,199.957
			l18.569-57.147c1.006-3.095-0.096-6.486-2.729-8.399l-48.613-35.319l-18.569-57.148c-1.006-3.095-3.89-5.19-7.144-5.19h-60.089
			L260.414,1.435c-2.633-1.913-6.198-1.913-8.83,0l-48.613,35.319h-60.089c-3.254,0-6.138,2.095-7.144,5.191l-18.569,57.147
			l-48.613,35.319c-2.633,1.913-3.735,5.303-2.729,8.398l18.569,57.148l-18.569,57.148c-1.006,3.095,0.096,6.485,2.729,8.398
			l48.613,35.319l6.547,20.151l-20.243,36.063c-2.03,3.618-0.744,8.197,2.873,10.227c1.163,0.653,2.425,0.962,3.67,0.962
			c2.628,0,5.179-1.381,6.557-3.837l13.459-23.978l5.705,17.557c1.006,3.095,3.89,5.191,7.144,5.191h60.088l5.204,3.781
			l-67.343,119.972l-16.594-43.482c-1.293-3.388-4.82-5.368-8.387-4.708l-45.761,8.481l28.126-50.107
			c2.03-3.618,0.744-8.197-2.873-10.227c-3.617-2.03-8.197-0.744-10.227,2.873l-35.975,64.092c-3.058,5.447,1.789,12.2,7.919,11.062
			l55.376-10.263l20.08,52.617c2.222,5.828,10.511,6.445,13.568,0.999l74.329-132.419l31.172,22.647c2.603,1.891,6.227,1.891,8.83,0
			l31.171-22.648l74.329,132.42c3.057,5.445,11.344,4.83,13.568-0.999l20.081-52.618l55.376,10.263
			C461.067,466.031,465.916,459.283,462.858,453.835z M255.999,383.116l-46.172-33.546c-1.283-0.932-2.828-1.434-4.415-1.434
			h-57.071l-17.636-54.279c-0.49-1.508-1.445-2.823-2.729-3.756l-46.172-33.546l17.635-54.279c0.491-1.508,0.491-3.134,0-4.642
			l-17.635-54.279l46.172-33.547c1.284-0.932,2.238-2.247,2.729-3.756l17.636-54.278h57.071c1.586,0,3.132-0.502,4.415-1.435
			l46.172-33.546l46.172,33.546c1.283,0.932,2.828,1.435,4.415,1.435h57.071l17.636,54.279c0.49,1.508,1.445,2.823,2.729,3.756
			l46.173,33.546l-17.636,54.279c-0.49,1.508-0.49,3.134,0,4.642l17.636,54.278l-46.173,33.546
			c-1.283,0.932-2.238,2.247-2.729,3.756l-17.636,54.279h-57.071c-1.586,0-3.132,0.502-4.415,1.434L255.999,383.116z
			 M396.146,438.722c-3.573-0.66-7.095,1.32-8.387,4.707l-16.595,43.483l-67.343-119.973l5.204-3.781h60.089
			c3.254,0,6.138-2.095,7.144-5.191l5.705-17.558l59.944,106.792L396.146,438.722z"/>
	</g>
</g>
<g>
	<g>
		<path d="M364.214,148.92c-0.078-0.165-0.168-0.32-0.256-0.478c1.16-6.396,1.839-13.666,1.839-21.983
			c0-16.648-6.907-31.992-19.451-43.209c-12.612-11.279-30.167-17.491-49.432-17.491c-14.764,0-29.254,6.114-40.79,17.011
			c-11.559-10.896-26.137-17.011-41.039-17.011c-19.265,0-36.821,6.212-49.433,17.491c-12.542,11.217-19.45,26.562-19.45,43.209
			c0,8.307,0.678,15.568,1.835,21.958c-7.771,16.19-11.721,33.567-11.721,51.688c0,29.02,10.517,57.01,29.615,78.817
			c0.544,0.621,1.168,1.128,1.842,1.524c2.342,16.585,7.338,31.921,13.771,41.911c5.167,8.024,10.946,12.094,17.174,12.094
			c9.206,0,13.182-9.821,14.489-13.048c1.017-2.51,1.945-5.35,2.853-8.449c12.787,4.532,26.187,6.835,39.937,6.835
			c13.758,0,27.155-2.301,39.938-6.833c0.908,3.099,1.838,5.938,2.853,8.448c1.309,3.227,5.285,13.047,14.491,13.047
			c6.23,0,12.008-4.069,17.174-12.094c6.387-9.919,11.362-25.108,13.724-41.555c0.412-0.303,0.8-0.651,1.154-1.048
			c19.572-21.938,30.351-50.224,30.351-79.651C375.683,182.202,371.824,164.981,364.214,148.92z M175.515,213.362
			c-6.236,13.719-8.597,28.123-9.102,40.851c-9.799-16.219-15.074-34.903-15.074-54.108c0-9.971,1.37-19.681,4.071-29.038
			c4.561,9.079,10.019,15.276,14.424,20.274C177.576,200.128,180.185,203.088,175.515,213.362z M255.999,304.766
			c-12.436,0-24.541-2.143-36.057-6.375c7.672-29.686,15.887-53.951,36.057-53.951c20.167,0,28.384,24.263,36.055,53.947
			C280.542,302.618,268.444,304.766,255.999,304.766z M322.805,219.579c12.509,27.519,8.568,65.94-1.492,88.119
			c-3.005,6.624-5.708,9.804-7.233,11.075c-2.286-3.871-4.982-14.391-7.013-22.326c-3.532-13.798-7.538-29.437-14.585-42.316
			c-8.975-16.399-21.25-24.714-36.484-24.714c-15.234,0-27.509,8.315-36.484,24.714c-7.049,12.88-11.053,28.519-14.585,42.316
			c-2.03,7.934-4.724,18.454-7.012,22.326c-1.524-1.271-4.229-4.45-7.233-11.075c-10.06-22.179-14.001-60.599-1.492-88.119
			c8.693-19.126,0.163-28.807-8.085-38.17c-8.858-10.052-19.882-22.563-19.882-54.951c0-26.468,22.652-45.677,53.86-45.677
			c11.117,0,22.487,4.98,31.336,13.526c-5.776,8.234-9.493,12.365-23.154,12.365c-4.148,0-7.512,3.363-7.512,7.512
			s3.363,7.512,7.512,7.512c22.413,0,29.656-10.418,36.66-20.493c0.509-0.732,1.043-1.489,1.576-2.244
			c0.135-0.139,0.273-0.277,0.399-0.429c9.378-11.279,22.14-17.748,35.011-17.748c31.209,0,53.86,19.211,53.86,45.677
			c0,32.387-11.024,44.898-19.882,54.951C322.642,190.772,314.112,200.453,322.805,219.579z M345.586,254.228
			c-0.504-12.731-2.864-27.142-9.102-40.866c-4.67-10.274-2.062-13.234,5.681-22.021c4.404-4.999,9.862-11.194,14.423-20.273
			c2.703,9.364,4.072,19.078,4.072,29.037C360.66,219.338,355.391,238.012,345.586,254.228z"/>
	</g>
</g>
<g>
</g>
<g>
</g>
<g>
</g>
<g>
</g>
<g>
</g>
<g>
</g>
<g>
</g>
<g>
</g>
<g>
</g>
<g>
</g>
<g>
</g>
<g>
</g>
<g>
</g>
<g>
</g>
<g>
</g>
</svg>
