<?xml version="1.0" encoding="iso-8859-1"?>
<!-- Generator: Adobe Illustrator 19.0.0, SVG Export Plug-In . SVG Version: 6.00 Build 0)  -->
<svg version="1.1" id="Capa_1" xmlns="http://www.w3.org/2000/svg" xmlns:xlink="http://www.w3.org/1999/xlink" x="0px" y="0px"
	 viewBox="0 0 512 512" style="enable-background:new 0 0 512 512;" xml:space="preserve">
<g>
	<g>
		<path d="M436.017,267.434c-0.01,0-0.021,0-0.03,0c-6.341,0.025-12.928,0.04-19.673,0.04c-42.943,0-58.18,24.89-63.4,45.77
			c-0.592,2.367-1.231,5.062-1.933,8.019c-8.389,35.374-25.844,108.985-77.476,98.654c-19.016-3.803-22.314-35.909-24.721-59.353
			c-0.909-8.85-1.693-16.493-3.16-22.456c-2.371-9.639-6.971-14.525-13.671-14.525c-9.834,0-17.077,11.054-27.103,26.353
			c-16.593,25.322-31.827,45.683-50.263,38.31c-22.833-9.133-27.217-56.568-29.836-84.911c-1.941-20.993-2.826-30.575-8.864-34.6
			c-25.888-17.26-101.328-2.818-109.844-1.116c-4.07,0.815-6.708,4.772-5.895,8.841c0.814,4.07,4.776,6.708,8.841,5.897
			c29.232-5.839,80.862-11.307,97.595-1.713c1.308,3.572,2.353,14.877,3.202,24.075c3.126,33.821,7.85,84.934,39.221,97.481
			c14.096,5.639,28.098,2.358,41.61-9.753c10.534-9.441,19.178-22.633,26.804-34.273c4.195-6.401,9.665-14.749,13.188-18.182
			c1.441,4.743,2.45,14.564,3.224,22.108c2.885,28.097,6.837,66.578,36.725,72.556c4.528,0.906,8.921,1.357,13.185,1.357
			c22.862,0,41.882-13.006,56.667-38.807c13.663-23.844,20.603-53.109,25.195-72.474c0.686-2.892,1.311-5.527,1.889-7.842
			c5.865-23.46,21.378-34.386,48.819-34.386c6.765,0,13.373-0.015,19.734-0.04c4.15-0.017,7.501-3.395,7.485-7.545
			C443.514,270.777,440.153,267.434,436.017,267.434z"/>
	</g>
</g>
<g>
	<g>
		<path d="M504.346,266.735c-0.121,0.002-12.321,0.225-31.005,0.425c-4.15,0.044-7.478,3.445-7.434,7.595
			c0.044,4.123,3.4,7.435,7.513,7.435c0.027,0,0.054,0,0.082,0c18.741-0.199,30.999-0.424,31.122-0.427
			c4.149-0.076,7.452-3.503,7.374-7.652C511.922,269.959,508.513,266.678,504.346,266.735z"/>
	</g>
</g>
<g>
	<g>
		<path d="M372.551,160.238c-9.425-14.06-24.9-24.436-43.57-29.214c-14.309-3.663-29.87-1.331-43.752,6.367
			c-8.5-13.427-21.112-22.97-35.554-26.667c-18.672-4.78-37.227-3.113-52.248,4.689c-14.939,7.76-25.44,20.918-29.57,37.052
			c-9.441,36.889,0.338,56.059,6.809,68.745c5.324,10.436,7.118,13.952,0.043,22.75c-14.874,18.499-20.882,41.04-23.302,56.693
			c-2.917,18.863-2.129,37.718,2.108,50.438c3.017,9.061,7.608,14.437,13.646,15.982c8.925,2.286,15.212-6.248,17.279-9.052
			c3.611-4.899,7.197-11.441,11.348-19.018c15.132-27.617,29.28-50.057,49.216-44.958c19.937,5.103,21.562,31.585,21.565,63.075
			c0,8.64,0.001,16.101,0.815,22.131c0.466,3.452,1.883,13.956,10.806,16.24c7.396,1.894,14.455-2.644,19.645-7.461
			c9.827-9.121,19.577-25.278,26.081-43.223c5.397-14.89,10.958-37.546,6.8-60.916c-1.978-11.116,1.284-13.337,10.968-19.933
			c11.77-8.017,29.558-20.132,38.999-57.02C384.813,190.805,381.924,174.22,372.551,160.238z M366.123,203.214
			c-8.035,31.389-21.822,40.78-32.9,48.325c-10.317,7.027-20.986,14.294-17.305,34.986c5.297,29.774-8.054,66.033-23.305,85.032
			c-4.555,5.675-7.965,8.086-9.757,8.939c-1.256-4.319-1.257-15.183-1.257-23.377c-0.001-14.25-0.003-30.399-3.639-44.631
			c-4.63-18.119-14.464-29.223-29.228-33.002c-3.178-0.814-6.319-1.219-9.419-1.219c-11.3,0-22.053,5.396-32.071,16.121
			c-10.027,10.734-17.787,24.898-24.633,37.394c-3.938,7.186-9.158,16.714-12.334,19.898c-1.162-1.61-2.995-5.362-4.263-12.527
			c-4.25-23.99,1.461-62.204,20.411-85.772c13.171-16.38,7.305-27.878,1.632-38.998c-6.091-11.94-13.672-26.8-5.637-58.189
			c3.055-11.935,10.846-21.68,21.938-27.443c11.736-6.097,26.508-7.328,41.593-3.467c10.775,2.758,20.558,10.404,27.015,20.884
			c-7.64,6.546-12.266,9.629-25.507,6.24c-3.968-1.015-8.128,1.449-9.143,5.417c-1.015,3.967,1.449,8.128,5.417,9.143
			c4.927,1.261,9.23,1.81,13.048,1.81c13.014,0,20.385-6.369,27.566-12.576c8.641-7.469,20.253-12.03,31.728-11.838
			c3.095,0.052,6.184,0.453,9.184,1.22c15.085,3.862,27.449,12.037,34.813,23.023C367.027,178.989,369.178,191.279,366.123,203.214z
			"/>
	</g>
</g>
<g>
	<g>
		<path d="M452.885,125.585c-3.319-2.489-8.031-1.817-10.521,1.503l-10.801,14.402c-3.126-36.637-33.926-65.502-71.359-65.502
			c-4.15,0-7.515,3.365-7.515,7.515s3.365,7.515,7.515,7.515c31.215,0,56.61,25.396,56.61,56.61c0,0.363,0.034,0.716,0.084,1.065
			l-20.123-15.092c-3.275-2.456-8.064-1.772-10.521,1.503s-1.773,8.064,1.503,10.521l32.063,24.047
			c3.276,2.457,8.065,1.772,10.521-1.503l24.047-32.063C456.877,132.786,456.204,128.076,452.885,125.585z"/>
	</g>
</g>
<g>
	<g>
		<path d="M140.454,154.18l-5.668-39.675c-0.587-4.109-4.398-6.963-8.502-6.376l-39.675,5.668c-4.109,0.587-6.964,4.394-6.376,8.502
			c0.587,4.107,4.396,6.96,8.503,6.375l17.821-2.546c-23.696,28.118-22.328,70.305,4.142,96.775
			c3.056,3.056,8.216,2.851,11.026-0.431c2.519-2.941,2.337-7.461-0.4-10.196c-22.072-22.072-22.072-57.987,0-80.059
			c0.257-0.257,0.482-0.531,0.694-0.813l3.557,24.902c0.587,4.106,4.546,7.021,8.641,6.354
			C138.205,162.01,141.026,158.185,140.454,154.18z"/>
	</g>
</g>
<g>
</g>
<g>
</g>
<g>
</g>
<g>
</g>
<g>
</g>
<g>
</g>
<g>
</g>
<g>
</g>
<g>
</g>
<g>
</g>
<g>
</g>
<g>
</g>
<g>
</g>
<g>
</g>
<g>
</g>
</svg>
