<?xml version="1.0" encoding="iso-8859-1"?>
<!-- Generator: Adobe Illustrator 19.0.0, SVG Export Plug-In . SVG Version: 6.00 Build 0)  -->
<svg version="1.1" id="Capa_1" xmlns="http://www.w3.org/2000/svg" xmlns:xlink="http://www.w3.org/1999/xlink" x="0px" y="0px"
	 viewBox="0 0 512 512" style="enable-background:new 0 0 512 512;" xml:space="preserve">
<g>
	<g>
		<path d="M454.167,87.862L368.491,2.187c-2.915-2.916-7.794-2.916-10.709,0l-22.846,22.846c-2.957,2.957-2.957,7.752,0,10.709
			l17.492,17.492l-80.677,80.677l-17.492-17.492c-2.957-2.957-7.752-2.957-10.709,0l-22.846,22.846
			c-2.957,2.957-2.957,7.752,0,10.709l74.609,74.609l-44.266,44.266l-37.483,5.354c-1.622,0.231-3.125,0.983-4.284,2.143
			L43.64,441.987c-2.957,2.957-2.957,7.752,0,10.709l57.116,57.117c2.915,2.916,7.795,2.916,10.709,0l250.38-250.379
			c2.957-2.957,2.957-7.752,0-10.709c-2.957-2.957-7.752-2.957-10.709,0L106.111,493.749l-46.407-46.407l12.138-12.138
			l17.492,17.492c3.08,3.081,8.279,2.873,11.112-0.434c2.538-2.963,2.355-7.518-0.403-10.275L82.55,424.495l12.138-12.138
			l17.492,17.492c3.08,3.081,8.279,2.873,11.112-0.434c2.538-2.964,2.355-7.518-0.403-10.275l-17.492-17.492l12.138-12.138
			l17.492,17.492c3.08,3.081,8.279,2.873,11.112-0.434c2.538-2.963,2.355-7.518-0.403-10.275l-17.492-17.492l12.138-12.138
			l17.492,17.492c3.08,3.081,8.279,2.873,11.112-0.434c2.538-2.963,2.355-7.518-0.403-10.275l-17.492-17.492l12.138-12.138
			l17.492,17.492c3.08,3.081,8.279,2.873,11.112-0.434c2.538-2.963,2.355-7.518-0.403-10.275l-17.492-17.492l12.138-12.138
			l17.492,17.492c3.08,3.081,8.279,2.873,11.112-0.434c2.538-2.963,2.355-7.518-0.403-10.275l-17.492-17.492l21.42-21.42
			l37.483-5.354c1.622-0.231,3.125-0.983,4.284-2.143l51.405-51.406c2.957-2.957,2.957-7.752,0-10.709l-74.609-74.609l12.138-12.138
			l74.609,74.609c2.957,2.957,7.752,2.957,10.709,0l91.387-91.387c2.957-2.957,2.957-7.752,0-10.709L350.998,30.39l12.138-12.138
			l80.32,80.321c7.723,7.723,11.977,17.993,11.977,28.916s-4.254,21.191-11.977,28.916l-65.398,65.398
			c-2.957,2.957-2.957,7.752,0,10.709c2.957,2.957,7.752,2.957,10.709,0l65.398-65.398c10.585-10.584,16.414-24.656,16.414-39.624
			C470.58,112.519,464.75,98.446,454.167,87.862z M409.544,110.351l-80.677,80.678l-46.408-46.407l80.677-80.678L409.544,110.351z"
			/>
	</g>
</g>
<g>
</g>
<g>
</g>
<g>
</g>
<g>
</g>
<g>
</g>
<g>
</g>
<g>
</g>
<g>
</g>
<g>
</g>
<g>
</g>
<g>
</g>
<g>
</g>
<g>
</g>
<g>
</g>
<g>
</g>
</svg>
