<?xml version="1.0" encoding="iso-8859-1"?>
<!-- Generator: Adobe Illustrator 19.0.0, SVG Export Plug-In . SVG Version: 6.00 Build 0)  -->
<svg version="1.1" id="Capa_1" xmlns="http://www.w3.org/2000/svg" xmlns:xlink="http://www.w3.org/1999/xlink" x="0px" y="0px"
	 viewBox="0 0 512.001 512.001" style="enable-background:new 0 0 512.001 512.001;" xml:space="preserve">
<g>
	<g>
		<path d="M342.211,243.248c9.414-10.686,23.643-26.834,23.643-64.916c0-16.655-6.911-32.009-19.46-43.232
			c-12.619-11.285-30.184-17.5-49.458-17.5c-14.771,0-29.269,6.117-40.811,17.019c-11.565-10.901-26.151-17.019-41.06-17.019
			c-19.274,0-36.839,6.215-49.458,17.5c-12.549,11.222-19.46,26.575-19.46,43.232c0,38.082,14.229,54.23,23.644,64.916
			c7.746,8.791,10.356,11.753,5.684,22.032c-9.823,21.611-10.055,44.941-8.517,60.706c1.852,18.998,7.291,37.071,14.55,48.344
			c5.17,8.029,10.951,12.1,17.183,12.1c9.211,0,13.189-9.826,14.497-13.054c2.284-5.642,4.134-12.871,6.279-21.241
			c7.812-30.507,15.953-55.761,36.535-55.761c20.582,0,28.723,25.254,36.535,55.761c2.143,8.371,3.994,15.6,6.279,21.241
			c1.308,3.229,5.286,13.054,14.497,13.054c6.233,0,12.014-4.071,17.183-12.1c7.259-11.273,12.698-29.346,14.55-48.344
			c1.536-15.765,1.306-39.095-8.517-60.706C331.855,255.001,334.466,252.039,342.211,243.248z M322.843,271.5
			c12.516,27.534,8.572,65.974-1.493,88.163c-3.006,6.628-5.712,9.808-7.237,11.08c-2.289-3.872-4.983-14.397-7.016-22.337
			c-3.534-13.804-7.541-29.452-14.593-42.338c-8.979-16.408-21.261-24.727-36.503-24.727c-15.242,0-27.523,8.319-36.503,24.727
			c-7.052,12.885-11.059,28.533-14.593,42.338c-2.033,7.939-4.728,18.465-7.016,22.337c-1.525-1.272-4.231-4.451-7.237-11.08
			c-10.065-22.19-14.008-60.63-1.493-88.163c8.698-19.136,0.163-28.822-8.09-38.188c-8.862-10.058-19.892-22.575-19.892-54.98
			c0-26.48,22.663-45.7,53.887-45.7c11.123,0,22.498,4.982,31.352,13.533c-5.78,8.237-9.498,12.371-23.165,12.371
			c-4.15,0-7.515,3.364-7.515,7.515s3.365,7.515,7.515,7.515c22.423,0,29.67-10.422,36.678-20.502
			c0.51-0.734,1.045-1.492,1.579-2.249c0.135-0.139,0.273-0.277,0.398-0.428c9.384-11.285,22.152-17.757,35.03-17.757
			c31.225,0,53.887,19.22,53.887,45.7c0,32.405-11.03,44.923-19.892,54.981C322.679,242.679,314.145,252.365,322.843,271.5z"/>
	</g>
</g>
<g>
	<g>
		<path d="M311.984,456.356l-22.701-12.322l4.887-25.364c1.209-6.278-5.849-11.175-11.307-7.829l-22.023,13.5l-19.522-16.915
			c-4.845-4.196-12.602-0.508-12.434,5.878l0.679,25.822l-24.409,8.451c-6.044,2.091-6.753,10.653-1.126,13.707l22.701,12.322
			l-4.887,25.364c-1.21,6.279,5.849,11.174,11.307,7.829l22.023-13.5l19.522,16.914c4.844,4.199,12.602,0.499,12.434-5.877
			l-0.679-25.822l24.409-8.451C316.902,467.972,317.61,459.41,311.984,456.356z M276.333,466.11
			c-3.095,1.071-5.141,4.025-5.054,7.299l0.376,14.282l-10.798-9.356c-1.402-1.213-3.156-1.835-4.923-1.835
			c-1.354,0-2.714,0.365-3.926,1.107l-12.181,7.466l2.704-14.029c0.619-3.217-0.916-6.464-3.795-8.027l-12.557-6.816l13.502-4.675
			c3.095-1.071,5.141-4.025,5.054-7.299l-0.376-14.282l10.798,9.356c2.476,2.144,6.056,2.439,8.849,0.727l12.181-7.466
			l-2.703,14.029c-0.619,3.217,0.916,6.464,3.795,8.027l12.557,6.816L276.333,466.11z"/>
	</g>
</g>
<g>
	<g>
		<path d="M487.633,371.662l-21.766-11.814l4.685-24.318c1.209-6.278-5.849-11.176-11.307-7.829l-21.114,12.943l-18.717-16.217
			c-4.846-4.195-12.602-0.509-12.434,5.878l0.651,24.757l-23.402,8.102c-6.043,2.091-6.753,10.653-1.126,13.707l21.766,11.814
			l-4.685,24.318c-1.209,6.278,5.849,11.175,11.307,7.829l21.114-12.943l18.717,16.217c4.845,4.196,12.602,0.499,12.434-5.878
			l-0.651-24.757l23.402-8.102C492.551,383.278,493.26,374.716,487.633,371.662z M452.988,381.067
			c-3.095,1.071-5.141,4.025-5.054,7.299l0.349,13.217l-9.993-8.659c-1.402-1.213-3.156-1.835-4.923-1.835
			c-1.354,0-2.714,0.365-3.926,1.107l-11.273,6.91l2.501-12.984c0.619-3.217-0.916-6.464-3.795-8.027l-11.621-6.308l12.495-4.325
			c3.095-1.071,5.141-4.025,5.054-7.299l-0.349-13.217l9.993,8.659c2.477,2.145,6.056,2.44,8.849,0.727l11.273-6.91l-2.501,12.984
			c-0.619,3.217,0.916,6.464,3.795,8.027l11.621,6.308L452.988,381.067z"/>
	</g>
</g>
<g>
	<g>
		<path d="M127.772,363.163l-23.402-8.102l0.651-24.757c0.168-6.385-7.589-10.076-12.434-5.878L73.87,340.644l-21.114-12.944
			c-5.458-3.346-12.517,1.55-11.307,7.829l4.685,24.318l-21.766,11.814c-5.626,3.054-4.918,11.615,1.126,13.707l23.402,8.102
			l-0.651,24.757c-0.167,6.377,7.589,10.075,12.434,5.878l18.717-16.217l21.114,12.943c5.458,3.345,12.517-1.551,11.307-7.829
			l-4.685-24.318l21.766-11.814C134.525,373.816,133.817,365.255,127.772,363.163z M95.129,378.098
			c-2.88,1.563-4.414,4.811-3.795,8.027l2.501,12.984l-11.273-6.91c-2.794-1.711-6.373-1.417-8.849,0.727l-9.993,8.659l0.349-13.217
			c0.086-3.275-1.959-6.228-5.054-7.299l-12.495-4.325l11.621-6.308c2.88-1.563,4.414-4.811,3.795-8.027l-2.501-12.984l11.273,6.91
			c2.792,1.711,6.373,1.416,8.849-0.728l9.993-8.659L89.2,360.166c-0.086,3.275,1.959,6.228,5.054,7.299l12.495,4.325
			L95.129,378.098z"/>
	</g>
</g>
<g>
	<g>
		<path d="M324.37,17.052l-47.277,27.505L263.085,5.006c-1.058-2.989-3.986-5.023-7.155-5.006c-3.171,0.017-6.059,2.137-7.059,5.138
			L235.737,44.54l-48.156-27.517c-5.319-3.037-12.024,1.51-11.171,7.572l9.018,64.131c0.522,3.711,3.696,6.469,7.442,6.469h128.263
			c3.835,0,7.054-2.887,7.471-6.699l7.014-64.131C336.276,18.362,329.603,14.007,324.37,17.052z M314.395,80.164H199.404
			l-5.974-42.488l42.81,24.463c4.058,2.321,9.384,0.276,10.858-4.148l9.119-27.356l9.735,27.488
			c1.547,4.366,6.85,6.322,10.863,3.987l42.245-24.577L314.395,80.164z"/>
	</g>
</g>
<g>
	<g>
		<path d="M464.428,260.667h-16.033c-4.151,0-7.515,3.364-7.515,7.515s3.365,7.515,7.515,7.515h16.033
			c4.151,0,7.515-3.364,7.515-7.515S468.578,260.667,464.428,260.667z"/>
	</g>
</g>
<g>
	<g>
		<path d="M443.012,160.211c-2.075-3.595-6.672-4.824-10.266-2.751l-13.884,8.016c-2.796,1.614-4.272,4.94-3.589,8.097
			c0.74,3.421,3.855,5.928,7.354,5.928c1.275,0,2.567-0.325,3.751-1.008l13.884-8.016
			C443.855,168.402,445.087,163.805,443.012,160.211z"/>
	</g>
</g>
<g>
	<g>
		<path d="M363.972,81.171c-3.594-2.074-8.191-0.845-10.266,2.751l-8.016,13.884c-1.888,3.269-0.995,7.569,2.048,9.807
			c3.564,2.621,8.76,1.533,10.968-2.292l8.016-13.884C368.798,87.843,367.566,83.247,363.972,81.171z"/>
	</g>
</g>
<g>
	<g>
		<path d="M166.312,97.807l-8.016-13.884c-2.075-3.595-6.673-4.824-10.266-2.751c-3.594,2.075-4.826,6.672-2.751,10.266
			l8.016,13.884c1.392,2.411,3.918,3.759,6.515,3.759C165.51,109.081,169.146,102.714,166.312,97.807z"/>
	</g>
</g>
<g>
	<g>
		<path d="M93.14,165.476l-13.884-8.016c-3.595-2.074-8.192-0.846-10.266,2.751c-2.075,3.595-0.844,8.192,2.752,10.267l13.884,8.016
			c1.183,0.683,2.476,1.008,3.751,1.008c3.499,0,6.614-2.507,7.353-5.929C97.412,170.417,95.935,167.09,93.14,165.476z"/>
	</g>
</g>
<g>
	<g>
		<path d="M63.607,260.667H47.574c-4.15,0-7.515,3.364-7.515,7.515s3.365,7.515,7.515,7.515h16.033c4.151,0,7.515-3.364,7.515-7.515
			S67.758,260.667,63.607,260.667z"/>
	</g>
</g>
<g>
</g>
<g>
</g>
<g>
</g>
<g>
</g>
<g>
</g>
<g>
</g>
<g>
</g>
<g>
</g>
<g>
</g>
<g>
</g>
<g>
</g>
<g>
</g>
<g>
</g>
<g>
</g>
<g>
</g>
</svg>
