<?xml version="1.0" encoding="iso-8859-1"?>
<!-- Generator: Adobe Illustrator 19.0.0, SVG Export Plug-In . SVG Version: 6.00 Build 0)  -->
<svg version="1.1" id="Capa_1" xmlns="http://www.w3.org/2000/svg" xmlns:xlink="http://www.w3.org/1999/xlink" x="0px" y="0px"
	 viewBox="0 0 512 512" style="enable-background:new 0 0 512 512;" xml:space="preserve">
<g>
	<g>
		<path d="M256,0C154.613,0,72.128,82.484,72.128,183.871c0,32.162,9.497,69.406,28.227,110.698
			c14.818,32.666,35.444,68.003,61.305,105.032c43.912,62.874,88.464,109.647,88.909,110.113c2.918,3.048,7.944,3.048,10.862,0
			c0.445-0.466,44.996-47.239,88.909-110.113c25.862-37.029,46.489-72.367,61.306-105.032
			c18.73-41.291,28.227-78.536,28.227-110.698C439.871,82.484,357.387,0,256,0z M338.136,390.824
			c-34.333,49.183-69.052,88.354-82.136,102.651c-13.083-14.298-47.803-53.468-82.136-102.651
			c-56.723-81.257-86.705-152.821-86.705-206.953C87.159,90.772,162.901,15.03,256,15.03s168.841,75.742,168.841,168.841
			C424.841,238.004,394.858,309.567,338.136,390.824z"/>
	</g>
</g>
<g>
	<g>
		<path d="M354.934,79.526c-3.01-2.856-7.767-2.733-10.624,0.281c-2.857,3.011-2.732,7.768,0.281,10.624
			c25.904,24.57,40.17,57.754,40.17,93.441c0,70.998-57.762,128.76-128.76,128.76s-128.76-57.762-128.76-128.76
			S185.001,55.111,256,55.111c21.28,0,42.362,5.298,60.968,15.319c3.653,1.972,8.213,0.602,10.18-3.052
			c1.969-3.653,0.602-8.212-3.052-10.18C303.307,46,279.76,40.081,256,40.081c-79.286,0-143.79,64.504-143.79,143.79
			s64.504,143.79,143.79,143.79s143.79-64.504,143.79-143.79C399.79,144.019,383.86,106.961,354.934,79.526z"/>
	</g>
</g>
<g>
	<g>
		<path d="M319.915,182.912c7.016-7.963,17.621-19.997,17.621-48.328c0-26.228-22.324-46.006-51.928-46.006
			c-10.615,0-21.03,4.146-29.519,11.58c-8.509-7.434-18.986-11.58-29.697-11.58c-29.604,0-51.928,19.778-51.928,46.006
			c0,28.329,10.604,40.363,17.622,48.327c5.463,6.201,6.6,7.491,3.779,13.701c-12.841,28.25-5.633,65.113,4.508,80.861
			c4.146,6.44,8.916,9.706,14.177,9.706c10.289,0,13.268-11.637,17.04-26.368c5.431-21.211,11.017-38.768,24.411-38.768
			s18.979,17.557,24.41,38.768c3.773,14.732,6.752,26.368,17.04,26.368c5.261,0,10.03-3.266,14.177-9.706
			c10.14-15.749,17.349-52.611,4.508-80.861C313.314,190.404,314.45,189.113,319.915,182.912z M308.637,172.976
			c-6.109,6.932-13.033,14.79-6.185,29.856c5.424,11.93,6.925,28.067,4.119,44.269c-1.954,11.286-5.415,19.088-7.95,22.834
			c-1.236-3.422-2.58-8.673-3.651-12.853c-5.106-19.938-12.821-50.071-38.972-50.071s-33.866,30.132-38.972,50.071
			c-1.07,4.18-2.415,9.431-3.651,12.853c-2.534-3.747-5.996-11.548-7.95-22.834c-2.806-16.203-1.304-32.338,4.119-44.269
			c6.848-15.066-0.075-22.924-6.184-29.856c-6.18-7.012-13.868-15.739-13.868-38.391c0-17.948,15.517-30.976,36.898-30.976
			c6.972,0,14.11,2.921,19.914,7.992c-3.389,4.614-5.961,6.585-13.992,6.585c-4.15,0-7.515,3.364-7.515,7.515
			c0,4.151,3.365,7.515,7.515,7.515c17.306,0,23.113-8.353,28.237-15.722c0.345-0.496,0.708-1.01,1.068-1.521
			c0.083-0.091,0.172-0.175,0.252-0.271c6.392-7.685,15.044-12.093,23.737-12.093c21.38,0,36.898,13.027,36.898,30.976
			C322.505,157.238,314.816,165.964,308.637,172.976z"/>
	</g>
</g>
<g>
</g>
<g>
</g>
<g>
</g>
<g>
</g>
<g>
</g>
<g>
</g>
<g>
</g>
<g>
</g>
<g>
</g>
<g>
</g>
<g>
</g>
<g>
</g>
<g>
</g>
<g>
</g>
<g>
</g>
</svg>
