<?xml version="1.0" encoding="iso-8859-1"?>
<!-- Generator: Adobe Illustrator 19.0.0, SVG Export Plug-In . SVG Version: 6.00 Build 0)  -->
<svg version="1.1" id="Capa_1" xmlns="http://www.w3.org/2000/svg" xmlns:xlink="http://www.w3.org/1999/xlink" x="0px" y="0px"
	 viewBox="0 0 512.001 512.001" style="enable-background:new 0 0 512.001 512.001;" xml:space="preserve">
<g>
	<g>
		<path d="M506.133,302.06c-3.397-15.603-10.828-37.917-26.932-55.619c-7.66-8.42-6.071-12.067-1.355-22.898
			c5.733-13.162,14.397-33.056,2.629-69.596c-5.147-15.982-16.521-28.578-32.032-35.469c-15.595-6.929-34.37-7.465-52.865-1.509
			c-14.172,4.564-26.194,14.915-33.902,28.942c-14.463-6.886-30.351-8.252-44.659-3.644c-18.496,5.956-33.429,17.347-42.051,32.075
			c-8.572,14.646-10.46,31.514-5.313,47.495c11.766,36.542,30.411,47.641,42.748,54.986c10.15,6.042,13.569,8.077,12.262,19.384
			c-2.749,23.773,4.239,46.231,10.585,60.883c7.647,17.657,18.451,33.319,28.9,41.894c5.518,4.527,12.898,8.663,20.226,6.299
			c8.838-2.846,9.619-13.504,9.876-17.006c0.448-6.119-0.01-13.627-0.539-22.321c-1.931-31.69-1.922-58.438,17.826-64.797
			c19.758-6.353,35.366,15.357,52.289,42.218c4.644,7.37,8.653,13.735,12.588,18.442c2.253,2.693,9.104,10.895,17.944,8.047
			c5.98-1.925,10.27-7.619,12.75-16.92C510.592,339.884,510.227,320.862,506.133,302.06z M493.804,341.697
			c-0.836,7.289-2.45,11.176-3.52,12.867c-3.392-3.009-9.231-12.275-13.634-19.265c-7.658-12.155-16.337-25.932-27.086-36.117
			c-13.687-12.97-28.042-17.159-42.666-12.447c-14.626,4.709-23.84,16.487-27.385,35.006c-2.785,14.543-1.794,30.796-0.92,45.136
			c0.502,8.246,1.168,19.178,0.17,23.601c-1.857-0.748-5.436-2.966-10.369-8.396c-16.514-18.183-32.176-53.85-28.675-84.137
			c2.433-21.05-8.749-27.708-19.563-34.145c-11.612-6.912-26.063-15.515-36.077-46.609c-8.183-25.408,7.624-50.854,37.585-60.503
			c3.983-1.283,8.215-1.911,12.534-1.911c7.254,0,14.752,1.778,21.733,5.205c-3,9.692-5.29,14.81-18.406,19.033
			c-3.778,1.216-6.007,5.286-5.006,9.125c1.083,4.153,5.565,6.615,9.651,5.297c21.517-6.929,25.25-19.17,28.859-31.007
			c0.263-0.86,0.54-1.752,0.819-2.642c0.087-0.177,0.177-0.352,0.25-0.536c5.518-13.729,15.77-23.885,28.126-27.864
			c29.964-9.644,57.648,1.791,65.831,27.201c10.013,31.094,3.297,46.513-2.098,58.903c-5.027,11.539-10.222,23.47,4.038,39.144
			C488.512,279.19,496.605,317.295,493.804,341.697z"/>
	</g>
</g>
<g>
	<g>
		<path d="M126.217,145.606c-4.185,0-7.576,3.391-7.576,7.576s3.391,7.576,7.576,7.576c22.604,0,29.91-10.507,36.975-20.668
			c0.513-0.737,1.052-1.501,1.589-2.263c0.138-0.141,0.277-0.282,0.405-0.435c9.46-11.376,22.33-17.901,35.312-17.901
			c31.477,0,54.323,19.376,54.323,46.069c0,4.185,3.391,7.576,7.576,7.576s7.576-3.391,7.576-7.576
			c0-16.79-6.967-32.267-19.618-43.581c-12.721-11.376-30.427-17.641-49.857-17.641c-14.891,0-29.506,6.167-41.141,17.156
			c-11.659-10.989-26.363-17.156-41.393-17.156c-19.43,0-37.137,6.265-49.857,17.641c-12.651,11.315-19.618,26.792-19.618,43.582
			c0,38.39,14.344,54.668,23.836,65.441c7.809,8.863,10.439,11.849,5.729,22.211C68.151,275,67.918,298.518,69.467,314.41
			c1.867,19.152,7.35,37.372,14.668,48.736c5.211,8.094,11.04,12.198,17.322,12.198c9.284,0,13.296-9.906,14.614-13.159
			c2.302-5.687,4.169-12.975,6.33-21.413c7.875-30.754,16.083-56.212,36.83-56.212c20.748,0,28.955,25.458,36.83,56.212
			c2.161,8.439,4.026,15.726,6.33,21.413c1.318,3.255,5.329,13.159,14.614,13.159c6.283,0,12.111-4.104,17.322-12.198
			c7.318-11.364,12.802-29.583,14.668-48.736c1.549-15.892,1.316-39.41-8.586-61.196c-4.71-10.362-2.081-13.348,5.73-22.21
			c4.846-5.5,10.877-12.346,15.654-22.665c1.757-3.797,0.104-8.3-3.693-10.058c-3.795-1.756-8.299-0.104-10.058,3.693
			c-3.851,8.32-8.856,14-13.272,19.012c-8.32,9.443-16.924,19.207-8.155,38.497c12.617,27.756,8.642,66.507-1.505,88.876
			c-3.03,6.681-5.757,9.887-7.295,11.169c-2.307-3.903-5.024-14.514-7.073-22.517c-3.563-13.916-7.602-29.69-14.711-42.68
			c-9.052-16.54-21.432-24.927-36.798-24.927c-15.365,0-27.746,8.386-36.798,24.927c-7.108,12.99-11.148,28.764-14.711,42.68
			c-2.049,8.003-4.766,18.614-7.073,22.517c-1.537-1.282-4.265-4.487-7.295-11.169c-10.147-22.37-14.122-61.121-1.505-88.876
			c8.768-19.291,0.165-29.055-8.155-38.497c-8.935-10.139-20.053-22.758-20.053-55.424c0-26.694,22.846-46.069,54.323-46.069
			c11.213,0,22.679,5.022,31.606,13.642C143.743,141.439,139.995,145.606,126.217,145.606z"/>
	</g>
</g>
<g>
	<g>
		<path d="M505.225,394.69c0,0,0.073-0.043,0.221-0.105c-0.497,0.206-12.4,4.843-31.881-14.639
			c-4.563-4.563-11.808-14.254-18.814-23.627c-19.076-25.517-27.038-35.16-35.031-35.16c-2.355,0-4.553,0.956-6.19,2.692
			c-3.77,3.999-3.608,9.782-2.466,29.225c1.279,21.755,3.418,58.166-7.56,69.808c-2.144,2.273-4.693,3.331-8.027,3.331
			c-73.127,0-89.296-129.385-89.451-130.69c-0.448-3.815-3.683-6.691-7.524-6.691h-24.244c-7.518,0-9.554,8.241-10.532,12.202
			c-1.068,4.317-2.102,10.233-3.3,17.08c-5.128,29.307-14.672,83.856-42.738,83.856c-19.046,0-27.609-29.786-34.491-53.721
			c-5.871-20.419-10.112-35.172-22.078-35.172c-11.779,0-17.209,13.993-24.724,33.358c-12.273,31.631-23.428,55.242-45.61,47.842
			c-20.992-6.997-27.448-42.667-29.167-71.358c-1.979-33.018,1.923-64.645,1.963-64.961c0.268-2.129-0.381-4.273-1.784-5.898
			c-1.404-1.623-3.43-2.578-5.576-2.622l-48.487-1.01c-4.224-0.1-7.645,3.234-7.732,7.417c-0.088,4.184,3.232,7.645,7.417,7.732
			l40.254,0.838c-1.089,11.891-2.63,34.908-1.192,59.21c2.883,48.641,16.177,77.248,39.512,85.027
			c11.58,3.86,28.52,4.455,43.485-14.613c9.294-11.845,15.537-27.93,21.044-42.123c2.94-7.576,7.176-18.493,10.219-22.532
			c2.507,4.314,5.568,14.96,7.894,23.052c7.848,27.298,18.596,64.686,49.053,64.686c18.296,0,32.715-12.572,42.854-37.368
			c7.833-19.154,11.864-42.2,14.809-59.028c1.075-6.145,2.259-12.91,3.242-16.741h13.347c1.909,11.878,6.941,37.777,17.738,63.998
			c19.768,48.006,49.436,73.383,85.798,73.383c7.473,0,14.061-2.797,19.05-8.088c15.464-16.4,13.267-53.791,11.663-81.092
			c-0.162-2.756-0.338-5.747-0.473-8.568c5.41,6.407,12.148,15.422,16.897,21.773c7.664,10.253,14.904,19.937,20.235,25.271
			c27.318,27.317,46.994,18.658,49.152,17.581L505.225,394.69z"/>
	</g>
</g>
<g>
	<g>
		<path d="M322.746,111.047h-16.162c-4.185,0-7.576,3.392-7.576,7.576c0,4.185,3.391,7.576,7.576,7.576h16.162
			c4.185,0,7.576-3.391,7.576-7.576S326.931,111.047,322.746,111.047z"/>
	</g>
</g>
<g>
	<g>
		<path d="M301.89,71.44c-3.744-1.873-8.294-0.355-10.165,3.388l-8.081,16.162c-1.871,3.744-0.354,8.294,3.388,10.165
			c3.695,1.85,8.32,0.304,10.165-3.388l8.081-16.162C307.15,77.863,305.633,73.312,301.89,71.44z"/>
	</g>
</g>
<g>
	<g>
		<path d="M264.872,90.991l-8.081-16.162c-1.87-3.742-6.419-5.256-10.165-3.388c-3.742,1.872-5.259,6.422-3.388,10.165l8.082,16.162
			c1.97,3.941,7.036,5.363,10.779,3.043C265.381,98.778,266.596,94.441,264.872,90.991z"/>
	</g>
</g>
<g>
</g>
<g>
</g>
<g>
</g>
<g>
</g>
<g>
</g>
<g>
</g>
<g>
</g>
<g>
</g>
<g>
</g>
<g>
</g>
<g>
</g>
<g>
</g>
<g>
</g>
<g>
</g>
<g>
</g>
</svg>
