<?xml version="1.0" encoding="iso-8859-1"?>
<!-- Generator: Adobe Illustrator 19.0.0, SVG Export Plug-In . SVG Version: 6.00 Build 0)  -->
<svg version="1.1" id="Capa_1" xmlns="http://www.w3.org/2000/svg" xmlns:xlink="http://www.w3.org/1999/xlink" x="0px" y="0px"
	 viewBox="0 0 512 512" style="enable-background:new 0 0 512 512;" xml:space="preserve">
<g>
	<g>
		<path d="M432.533,195.203c-1.865-3.677-6.359-5.145-10.036-3.28c-3.676,1.865-5.145,6.359-3.28,10.036
			c18.311,36.092,28.395,80.141,28.395,124.032c0,75.296-29.207,133.082-80.132,158.545c-36.684,18.341-78.686,16.471-107.002-4.765
			c-2.654-1.991-6.305-1.991-8.959,0c-28.315,21.236-70.318,23.107-107.002,4.765c-50.925-25.462-80.131-83.249-80.131-158.544
			c0-41.54,9.176-83.737,25.835-118.818c16.695-35.155,39.467-59.849,64.125-69.532c30.897-12.134,64.159-0.32,96.182,34.167
			c2.912,3.129,8.03,3.129,10.941,0c25.008-26.933,50.266-40.002,75.078-38.773c23.234,1.128,45.645,15.014,64.814,40.156
			c2.499,3.28,7.185,3.914,10.463,1.41c3.279-2.499,3.911-7.184,1.411-10.463c-21.924-28.758-48.192-44.67-75.965-46.017
			c-24.93-1.229-49.698,9.123-73.805,30.763V7.465c0-4.124-3.342-7.465-7.465-7.465c-4.124,0-7.466,3.342-7.466,7.465v141.429
			c-40.777-36.582-76.222-34.348-99.645-25.15c-56.688,22.26-99.435,109.207-99.435,202.247c0,81.159,32.215,143.815,88.386,171.9
			c18.882,9.44,39.076,14.111,58.578,14.109c21.643-0.001,42.431-5.755,59.58-17.124C273.152,506.246,293.934,512,315.58,512
			c19.499,0,39.698-4.668,58.578-14.109c56.171-28.085,88.386-90.74,88.386-171.9C462.544,279.797,451.887,233.349,432.533,195.203z
			"/>
	</g>
</g>
<g>
	<g>
		<path d="M386.848,44.861c-13.072-21.236-35.742-33.912-60.639-33.912c-24.898,0-47.568,12.676-60.639,33.911
			c-1.477,2.4-1.477,5.427,0,7.827c13.072,21.236,35.741,33.912,60.639,33.912c24.899,0,47.568-12.676,60.639-33.911
			C388.325,50.288,388.325,47.261,386.848,44.861z M326.208,71.668c-18.095,0-34.7-8.476-45.289-22.894
			c10.588-14.418,27.194-22.894,45.289-22.894c18.095,0,34.7,8.476,45.289,22.894C360.909,63.193,344.303,71.668,326.208,71.668z"/>
	</g>
</g>
<g>
	<g>
		<path d="M319.491,325.039c6.971-7.91,17.505-19.865,17.505-48.008c0-26.054-22.176-45.702-51.584-45.702
			c-10.546,0-20.891,4.118-29.324,11.504c-8.451-7.385-18.86-11.504-29.5-11.504c-29.408,0-51.583,19.647-51.583,45.702
			c0,28.142,10.534,40.096,17.505,48.007c5.427,6.16,6.557,7.442,3.753,13.61c-12.755,28.064-5.595,64.683,4.478,80.326
			c4.12,6.397,8.857,9.641,14.083,9.641c10.221,0,13.18-11.56,16.928-26.194c5.396-21.07,10.944-38.512,24.25-38.512
			s18.854,17.441,24.249,38.512c3.748,14.634,6.707,26.194,16.928,26.194c5.226,0,9.964-3.244,14.083-9.641
			c10.073-15.645,17.234-52.263,4.478-80.326C312.935,332.481,314.062,331.199,319.491,325.039z M308.289,315.169
			c-6.069,6.886-12.947,14.692-6.145,29.659c5.388,11.851,6.879,27.881,4.092,43.977c-1.941,11.211-5.379,18.961-7.897,22.683
			c-1.227-3.399-2.563-8.615-3.627-12.768c-5.073-19.806-12.736-49.74-38.714-49.74s-33.642,29.931-38.714,49.74
			c-1.063,4.153-2.399,9.369-3.628,12.768c-2.516-3.722-5.955-11.472-7.897-22.683c-2.786-16.096-1.295-32.124,4.092-43.977
			c6.802-14.967-0.075-22.773-6.144-29.659c-6.138-6.966-13.776-15.635-13.776-38.137c0-17.83,15.415-30.771,36.652-30.771
			c6.927,0,14.017,2.902,19.782,7.939c-3.366,4.584-5.921,6.542-13.9,6.542c-4.124,0-7.465,3.341-7.465,7.465
			c0,4.124,3.342,7.465,7.465,7.465c17.191,0,22.96-8.298,28.05-15.618c0.342-0.493,0.704-1.003,1.061-1.511
			c0.083-0.091,0.171-0.174,0.25-0.269c6.35-7.635,14.945-12.013,23.58-12.013c21.239,0,36.653,12.941,36.653,30.771
			C322.065,299.534,314.427,308.203,308.289,315.169z"/>
	</g>
</g>
<g>
</g>
<g>
</g>
<g>
</g>
<g>
</g>
<g>
</g>
<g>
</g>
<g>
</g>
<g>
</g>
<g>
</g>
<g>
</g>
<g>
</g>
<g>
</g>
<g>
</g>
<g>
</g>
<g>
</g>
</svg>
