<?xml version="1.0" encoding="iso-8859-1"?>
<!-- Generator: Adobe Illustrator 19.0.0, SVG Export Plug-In . SVG Version: 6.00 Build 0)  -->
<svg version="1.1" id="Capa_1" xmlns="http://www.w3.org/2000/svg" xmlns:xlink="http://www.w3.org/1999/xlink" x="0px" y="0px"
	 viewBox="0 0 512 512" style="enable-background:new 0 0 512 512;" xml:space="preserve">
<g>
	<g>
		<path d="M464.658,64.125h-52.336c-9.677-19.133-25.195-35.154-44.911-46.341C346.909,6.15,322.156,0,295.828,0
			c-29.215,0-57.916,13.129-79.918,36.299C194.037,13.434,164.551,0,135.515,0C99.546,0,66.858,11.518,43.47,32.433
			C20.445,53.025,7.765,81.182,7.765,111.718c0,71.848,25.72,101.039,44.501,122.352c15.552,17.651,23.36,26.512,12.282,50.882
			c-11.9,26.183-17.904,58.139-17.361,92.414c0.064,4.109,3.417,7.395,7.512,7.395c0.04,0,0.08,0,0.121-0.001
			c4.15-0.065,7.46-3.484,7.394-7.633c-0.508-32.064,5.031-61.787,16.016-85.956c15.103-33.227,1.298-48.896-14.688-67.037
			c-18.154-20.603-40.749-46.245-40.749-112.417c0-56.025,47.406-96.689,112.72-96.689c25.496,0,51.536,12.211,70.718,32.916
			c-0.373,0.535-0.75,1.075-1.118,1.604c-12.814,18.431-21.279,30.607-53.569,30.607c-4.151,0-7.515,3.364-7.515,7.515
			c0,4.151,3.364,7.515,7.515,7.515c40.144,0,52.084-17.173,65.908-37.056c1.121-1.612,2.274-3.262,3.458-4.932
			c0.279-0.248,0.546-0.51,0.789-0.801c19.748-23.747,46.766-37.368,74.128-37.368c43.772,0,80.231,18.205,99.278,49.096h-130.84
			c-21.823,0-39.577,17.755-39.577,39.577v168.329c0,21.823,17.755,39.577,39.577,39.577h56.611v56.611
			c0,6.539,8.187,9.952,12.829,5.314l33.231-33.231c8.936,63.072-10.257,127.064-28.296,148.994
			c-4.012,4.877-7.93,7.674-10.75,7.674c-0.03,0-3.107-0.133-7.78-11.674c-3.912-9.664-7.532-23.798-11.364-38.764
			c-13.605-53.136-32.238-125.907-93.075-125.907c-60.837,0-79.47,72.771-93.076,125.906c-3.833,14.966-7.453,29.101-11.364,38.764
			c-4.672,11.542-7.749,11.675-7.779,11.675c-4.488,0-12.593-7.285-20.58-23.561c-8.512-17.345-15.013-40.434-18.309-65.016
			c-0.552-4.114-4.336-7.004-8.447-6.451c-4.113,0.552-7.001,4.332-6.451,8.446C56.269,459.649,77.364,512,103.452,512
			c17.894,0,24.526-25.898,33.703-61.74c6.598-25.763,14.075-54.963,26.542-77.746c13.573-24.802,30.575-36.859,51.974-36.859
			c21.4,0,38.401,12.057,51.975,36.859c12.467,22.781,19.944,51.983,26.542,77.746c9.177,35.842,15.809,61.74,33.703,61.74
			c7.654,0,15.176-4.427,22.357-13.156c24.628-29.94,42.357-105.865,29.747-171.6l15.635-15.636h69.029
			c21.823,0,39.577-17.755,39.577-39.577V103.703C504.235,81.88,486.48,64.125,464.658,64.125z M489.206,272.031
			c0,13.536-11.012,24.548-24.548,24.548h-72.141c-1.993,0-3.904,0.792-5.314,2.2l-51.296,51.297v-45.983
			c0-4.151-3.364-7.515-7.515-7.515h-64.125c-13.536,0-24.548-11.011-24.548-24.548V103.703c0-13.536,11.012-24.548,24.548-24.548
			h200.391c13.536,0,24.548,11.011,24.548,24.548V272.031z"/>
	</g>
</g>
<g>
	<g>
		<path d="M368.47,92.18c-32.873,0-59.616,26.743-59.616,59.616c0,8.283,1.672,16.309,4.969,23.854
			c2.089,4.782,5.916,8.466,10.775,10.37c4.862,1.904,10.171,1.803,14.952-0.288c4.781-2.09,8.465-5.917,10.369-10.776
			c1.903-4.859,1.802-10.168-0.288-14.95c-1.128-2.583-1.7-5.345-1.7-8.209c0-11.326,9.214-20.54,20.54-20.54
			s20.54,9.214,20.54,20.54s-9.214,20.54-20.54,20.54c-10.773,0-19.538,8.765-19.538,19.538v24.047
			c0,10.773,8.765,19.538,19.538,19.538s19.538-8.765,19.538-19.538v-7.787c23.873-8.231,40.078-30.61,40.078-56.338
			C428.086,118.923,401.343,92.18,368.47,92.18z M378.76,195.186c-3.389,0.804-5.781,3.829-5.781,7.312v13.423
			c0,2.486-2.023,4.509-4.509,4.509s-4.509-2.023-4.509-4.509v-24.047c0-2.486,2.023-4.509,4.509-4.509
			c19.613,0,35.569-15.956,35.569-35.57c0-19.613-15.956-35.569-35.569-35.569S332.9,132.183,332.9,151.796
			c0,4.948,0.995,9.733,2.957,14.226c0.996,2.277-0.048,4.942-2.326,5.938c-1.105,0.48-2.33,0.504-3.451,0.066
			c-1.12-0.439-2.003-1.289-2.486-2.394c-2.463-5.636-3.711-11.637-3.711-17.837c0-24.585,20.002-44.587,44.587-44.587
			s44.587,20.002,44.587,44.587C413.057,172.557,398.953,190.398,378.76,195.186z"/>
	</g>
</g>
<g>
	<g>
		<path d="M368.47,248.485c-10.773,0-19.538,8.765-19.538,19.538c0,10.773,8.765,19.538,19.538,19.538s19.538-8.765,19.538-19.538
			C388.008,257.25,379.243,248.485,368.47,248.485z M368.47,272.532c-2.486,0-4.509-2.023-4.509-4.509s2.023-4.509,4.509-4.509
			s4.509,2.023,4.509,4.509S370.956,272.532,368.47,272.532z"/>
	</g>
</g>
<g>
</g>
<g>
</g>
<g>
</g>
<g>
</g>
<g>
</g>
<g>
</g>
<g>
</g>
<g>
</g>
<g>
</g>
<g>
</g>
<g>
</g>
<g>
</g>
<g>
</g>
<g>
</g>
<g>
</g>
</svg>
