<?xml version="1.0" encoding="iso-8859-1"?>
<!-- Generator: Adobe Illustrator 19.0.0, SVG Export Plug-In . SVG Version: 6.00 Build 0)  -->
<svg version="1.1" id="Capa_1" xmlns="http://www.w3.org/2000/svg" xmlns:xlink="http://www.w3.org/1999/xlink" x="0px" y="0px"
	 viewBox="0 0 512 512" style="enable-background:new 0 0 512 512;" xml:space="preserve">
<g>
	<g>
		<path d="M472.423,32.063c-3.059,0-6.094,0.355-9.045,1.047C460.282,14.351,443.95,0,424.329,0c-11.075,0-21.1,4.573-28.29,11.929
			C377.993,4.014,357.869,0,336.157,0c-29.216,0-57.916,13.129-79.917,36.299C234.367,13.434,204.881,0,175.843,0
			c-35.968,0-68.657,11.518-92.045,32.433c-23.025,20.591-35.705,48.748-35.705,79.285c0,22.713,2.522,42.331,7.689,59.893
			c-1.283,2.187-2.429,4.472-3.415,6.854c-4.091-1.399-8.407-2.121-12.791-2.121C17.755,176.344,0,194.099,0,215.922
			c0,16.027,9.838,30.374,24.213,36.467c-0.11,1.199-0.166,2.405-0.166,3.611c0,21.823,17.755,39.577,39.577,39.577
			c10.668,0,20.723-4.304,28.055-11.669c3.053,3.067,6.583,5.593,10.428,7.509C73.553,362.02,91.726,453.62,116.188,491.609
			C124.9,505.14,134.183,512,143.781,512c17.894,0,24.526-25.898,33.703-61.74c6.597-25.763,14.073-54.963,26.542-77.746
			c13.573-24.802,30.575-36.859,51.974-36.859c13.436,0,24.865,4.574,34.939,13.985c3.032,2.833,7.787,2.669,10.621-0.361
			c2.834-3.033,2.671-7.788-0.362-10.622c-12.809-11.965-28.016-18.032-45.198-18.032c-60.837,0-79.47,72.771-93.076,125.906
			c-3.831,14.966-7.452,29.101-11.364,38.764c-4.672,11.542-7.749,11.675-7.779,11.675c-3.029,0-8.549-3.546-14.956-13.497
			c-12.206-18.956-21.807-51.443-25.056-84.787c-3.696-37.923,0.913-74.35,12.953-103.237c0.998,0.076,2.001,0.127,3.012,0.127
			c19.557,0,35.847-14.26,39.018-32.928c2.971,0.576,6.002,0.866,9.076,0.866c26.242,0,47.593-21.351,47.593-47.593
			s-21.351-47.593-47.593-47.593c-5.622,0-11.194,1.002-16.438,2.932c-9.955-16.604-27.94-26.979-47.687-26.979
			c-13.659,0-26.287,4.882-36.052,13.184c-3.035-13.64-4.527-28.719-4.527-45.747c0-56.025,47.406-96.689,112.72-96.689
			c25.496,0,51.537,12.211,70.718,32.916c-0.373,0.535-0.75,1.076-1.118,1.604c-12.814,18.431-21.28,30.607-53.569,30.607
			c-4.15,0-7.515,3.364-7.515,7.515c0,4.151,3.365,7.515,7.515,7.515c40.144,0,52.084-17.173,65.909-37.056
			c1.12-1.611,2.273-3.262,3.456-4.931c0.279-0.248,0.547-0.51,0.789-0.802c19.749-23.747,46.766-37.368,74.129-37.368
			c18.672,0,35.961,3.258,51.497,9.673c-1.087,2.67-1.891,5.486-2.373,8.407c-2.952-0.692-5.987-1.047-9.046-1.047
			c-21.823,0-39.577,17.755-39.577,39.577c0,21.823,17.755,39.577,39.577,39.577c3.753,0,7.473-0.534,11.045-1.572
			c5.667,15.112,20.218,25.619,37.049,25.619c9.036,0,17.411-3.031,24.111-8.174c-3.215,54.937-23.635,78.119-40.311,97.045
			c-15.985,18.141-29.791,33.81-14.688,67.037c13.418,29.52,18.67,67.702,14.791,107.515c-3.249,33.343-12.85,65.831-25.056,84.787
			c-6.409,9.951-11.928,13.497-14.957,13.497c-0.03,0-3.107-0.133-7.779-11.674c-3.913-9.664-7.532-23.798-11.364-38.764
			c-6.278-24.521-13.395-52.312-25.051-75.739c-1.85-3.717-6.362-5.23-10.076-3.381c-3.715,1.85-5.229,6.36-3.381,10.076
			c10.947,22.002,17.854,48.975,23.947,72.772c9.178,35.841,15.81,61.739,33.704,61.739c9.598,0,18.881-6.86,27.593-20.391
			c25.215-39.159,43.752-135.285,11.311-206.657c-11.078-24.371-3.271-33.231,12.282-50.882
			c18.781-21.313,44.501-50.504,44.501-122.352c0-0.482-0.015-0.96-0.021-1.44c2.792,0.617,5.654,0.939,8.538,0.939
			c21.823,0,39.577-17.755,39.577-39.577C512,49.817,494.245,32.063,472.423,32.063z M64.195,190.64
			c4.3-18.447,20.546-31.329,39.507-31.329c16.319,0,30.987,9.707,37.368,24.731c1.731,4.075,6.788,5.785,10.642,3.588
			c4.896-2.794,10.467-4.272,16.114-4.272c17.955,0,32.564,14.608,32.564,32.564c0,17.956-14.608,32.564-32.563,32.564
			c-4.571,0-9.003-0.937-13.172-2.783c-4.264-1.889-9.371,0.693-10.38,5.246c-0.371,1.671,0.007,3.365,0.007,5.053
			c0,13.536-11.013,24.548-24.548,24.548c-8.917,0-17.149-4.854-21.483-12.67c-1.325-2.389-3.841-3.871-6.572-3.871
			s-5.247,1.482-6.572,3.871c-4.334,7.814-12.567,12.669-21.484,12.669c-13.535,0-24.548-11.011-24.548-24.548
			c0-2.257,0.314-4.511,0.933-6.698c1.166-4.117-1.471-8.491-5.644-9.392c-11.204-2.42-19.336-12.508-19.336-23.988
			c0-13.536,11.013-24.548,24.548-24.548c4.708,0,9.286,1.343,13.238,3.882C57.117,198.02,63.037,195.606,64.195,190.64z
			 M472.423,96.188c-4.372,0-8.669-1.168-12.424-3.38c-4.617-2.718-10.688,0.331-11.281,5.641
			c-1.388,12.419-11.872,21.786-24.389,21.786c-12.516,0-23.001-9.366-24.389-21.786c-0.593-5.308-6.661-8.359-11.281-5.641
			c-3.755,2.211-8.052,3.38-12.424,3.38c-13.535,0-24.548-11.011-24.548-24.548c0-13.536,11.013-24.548,24.548-24.548
			c4.411,0,8.736,1.186,12.51,3.429c2.93,1.741,6.777,1.25,9.177-1.17c1.125-1.135,1.869-2.625,2.098-4.207
			c0.268-1.836-0.24-3.718-0.24-5.565c0-13.536,11.013-24.548,24.548-24.548s24.549,11.01,24.549,24.547
			c0,1.847-0.508,3.73-0.24,5.565c0.23,1.582,0.973,3.072,2.098,4.207c2.4,2.421,6.246,2.912,9.177,1.17
			c3.775-2.241,8.101-3.428,12.511-3.428c13.535,0,24.548,11.011,24.548,24.548C496.971,85.176,485.958,96.188,472.423,96.188z"/>
	</g>
</g>
<g>
	<g>
		<path d="M472.423,272.532c-21.823,0-39.577,17.755-39.577,39.577c0,21.823,17.755,39.577,39.577,39.577
			c21.823,0,39.577-17.755,39.577-39.577C512,290.287,494.245,272.532,472.423,272.532z M472.423,336.658
			c-13.535,0-24.548-11.011-24.548-24.548c0-13.536,11.013-24.548,24.548-24.548c13.535,0,24.548,11.011,24.548,24.548
			C496.971,325.646,485.958,336.658,472.423,336.658z"/>
	</g>
</g>
<g>
	<g>
		<path d="M272.031,216.423c-21.823,0-39.577,17.755-39.577,39.577s17.755,39.577,39.577,39.577s39.577-17.755,39.577-39.577
			S293.854,216.423,272.031,216.423z M272.031,280.548c-13.535,0-24.548-11.011-24.548-24.548s11.013-24.548,24.548-24.548
			s24.548,11.012,24.548,24.548S285.567,280.548,272.031,280.548z"/>
	</g>
</g>
<g>
	<g>
		<path d="M328.141,128.25c-17.403,0-31.562,14.159-31.562,31.562s14.159,31.562,31.562,31.562
			c17.403,0,31.562-14.159,31.562-31.562S345.544,128.25,328.141,128.25z M328.141,176.344c-9.116,0-16.532-7.417-16.532-16.532
			s7.417-16.532,16.532-16.532c9.116,0,16.532,7.417,16.532,16.532S337.257,176.344,328.141,176.344z"/>
	</g>
</g>
<g>
	<g>
		<path d="M135.765,40.078c-17.403,0-31.562,14.159-31.562,31.562c0,17.403,14.159,31.562,31.562,31.562
			c17.403,0,31.562-14.159,31.562-31.562C167.327,54.237,153.168,40.078,135.765,40.078z M135.765,88.172
			c-9.116,0-16.532-7.416-16.532-16.532c0-9.116,7.417-16.532,16.532-16.532c9.116,0,16.532,7.417,16.532,16.532
			C152.297,80.756,144.881,88.172,135.765,88.172z"/>
	</g>
</g>
<g>
</g>
<g>
</g>
<g>
</g>
<g>
</g>
<g>
</g>
<g>
</g>
<g>
</g>
<g>
</g>
<g>
</g>
<g>
</g>
<g>
</g>
<g>
</g>
<g>
</g>
<g>
</g>
<g>
</g>
</svg>
