<?xml version="1.0" encoding="iso-8859-1"?>
<!-- Generator: Adobe Illustrator 19.0.0, SVG Export Plug-In . SVG Version: 6.00 Build 0)  -->
<svg version="1.1" id="Capa_1" xmlns="http://www.w3.org/2000/svg" xmlns:xlink="http://www.w3.org/1999/xlink" x="0px" y="0px"
	 viewBox="0 0 512 512" style="enable-background:new 0 0 512 512;" xml:space="preserve">
<g>
	<g>
		<path d="M468.415,384.751h-8.517V223.937c0-39.502-32.138-71.64-71.64-71.64s-71.64,32.138-71.64,71.64V440.36
			c0,31.215-25.396,56.611-56.611,56.611h-48.094c-31.215,0-56.611-25.396-56.611-56.611v-84.961
			c8.052-7.79,35.123-34.749,62.588-70.798c43.57-57.186,65.662-107.262,65.662-148.836C283.554,60.904,222.65,0,147.789,0
			S12.024,60.904,12.024,135.765c0,24.745,8.029,52.95,23.863,83.829c1.895,3.694,6.424,5.153,10.116,3.258
			c3.692-1.895,5.152-6.423,3.257-10.116C34.524,184,27.053,158.104,27.053,135.765c0-66.574,54.162-120.736,120.736-120.736
			s120.736,54.162,120.736,120.736c0,81.033-97.094,182.444-120.74,205.934c-13.37-13.259-50.199-51.363-79.571-96.5
			c-2.264-3.48-6.919-4.466-10.397-2.199c-3.479,2.263-4.464,6.919-2.199,10.397c33.166,50.968,74.33,92.02,84.657,102.004v84.959
			c0,39.502,32.138,71.64,71.64,71.64h48.094c39.502,0,71.64-32.138,71.64-71.64V223.937c0-31.215,25.396-56.611,56.611-56.611
			s56.611,25.396,56.611,56.611v160.814h-8.517c-17.403,0-31.562,14.159-31.562,31.562v64.125c0,17.403,14.159,31.562,31.562,31.562
			h32.063c17.403,0,31.562-14.159,31.562-31.562v-64.125C499.977,398.91,485.818,384.751,468.415,384.751z M419.82,416.313
			c0-9.116,7.417-16.532,16.532-16.532h8.517v16.532v8.517H419.82V416.313z M484.947,480.438c0,9.116-7.417,16.532-16.532,16.532
			h-32.063c-9.116,0-16.532-7.417-16.532-16.532v-40.579h65.127V480.438z M484.947,424.83h-25.049v-8.517v-16.532h8.517
			c9.116,0,16.532,7.417,16.532,16.532V424.83z"/>
	</g>
</g>
<g>
	<g>
		<path d="M147.789,32.063c-57.182,0-103.703,46.521-103.703,103.703c0,57.182,46.521,103.703,103.703,103.703
			c57.182,0,103.703-46.521,103.703-103.703C251.491,78.583,204.97,32.063,147.789,32.063z M147.789,224.438
			c-48.894,0-88.673-39.779-88.673-88.673c0-48.894,39.779-88.673,88.673-88.673c48.895,0,88.673,39.779,88.673,88.673
			C236.462,184.66,196.683,224.438,147.789,224.438z"/>
	</g>
</g>
<g>
	<g>
		<path d="M189.919,134.513c4.673-5.303,11.735-13.318,11.735-32.119c0-18.024-15.186-31.617-35.324-31.617
			c-6.576,0-13.025,2.287-18.486,6.439c-5.478-4.151-11.963-6.439-18.593-6.439c-20.138,0-35.324,13.592-35.324,31.617
			c0,18.801,7.062,26.815,11.735,32.119c2.93,3.326,2.93,3.326,1.916,5.559c-8.454,18.599-3.679,42.914,3.018,53.315
			c3.921,6.088,8.275,7.366,11.239,7.366c8.622,0,10.938-9.046,13.391-18.623c2.991-11.679,6.202-22.163,12.565-22.163
			c6.362,0,9.574,10.484,12.565,22.163c2.452,9.578,4.768,18.623,13.391,18.623c2.964,0,7.319-1.278,11.239-7.366
			c6.697-10.401,11.472-34.716,3.018-53.315C186.987,137.838,186.987,137.838,189.919,134.513z M178.641,124.577
			c-3.951,4.484-9.362,10.625-4.321,21.714c4.912,10.805,3.364,24.428,0.766,32.78c-0.059-0.227-0.116-0.451-0.171-0.669
			c-3.205-12.516-8.569-33.464-27.124-33.464s-23.919,20.948-27.124,33.464c-0.056,0.218-0.113,0.442-0.171,0.669
			c-2.598-8.352-4.146-21.975,0.766-32.78c5.04-11.089-0.371-17.231-4.321-21.714c-3.741-4.246-7.983-9.059-7.983-22.182
			c-0.001-9.612,8.534-16.587,20.294-16.587c4.611,0,9.403,2.452,12.819,6.561c2.959,3.557,8.597,3.557,11.556,0
			c3.468-4.169,8.099-6.561,12.705-6.561c11.759,0,20.295,6.976,20.295,16.587C186.623,115.519,182.383,120.33,178.641,124.577z"/>
	</g>
</g>
<g>
</g>
<g>
</g>
<g>
</g>
<g>
</g>
<g>
</g>
<g>
</g>
<g>
</g>
<g>
</g>
<g>
</g>
<g>
</g>
<g>
</g>
<g>
</g>
<g>
</g>
<g>
</g>
<g>
</g>
</svg>
