<?xml version="1.0" encoding="iso-8859-1"?>
<!-- Generator: Adobe Illustrator 19.0.0, SVG Export Plug-In . SVG Version: 6.00 Build 0)  -->
<svg version="1.1" id="Capa_1" xmlns="http://www.w3.org/2000/svg" xmlns:xlink="http://www.w3.org/1999/xlink" x="0px" y="0px"
	 viewBox="0 0 512 512" style="enable-background:new 0 0 512 512;" xml:space="preserve">
<g>
	<g>
		<path d="M480.438,0H248.682c-4.15,0-7.515,3.364-7.515,7.515c0,4.151,3.365,7.515,7.515,7.515h224.242V440.86l-48.595,0.001
			c-4.15,0-7.515,3.365-7.515,7.515v48.595H39.076V15.029h173.012c4.15,0,7.515-3.364,7.515-7.515c0-4.151-3.365-7.515-7.515-7.515
			H31.562c-4.15,0-7.515,3.364-7.515,7.515v496.971c0,4.151,3.365,7.515,7.515,7.515h392.767c1.97,0,3.92-0.809,5.313-2.2
			l56.11-56.111c1.393-1.393,2.201-3.345,2.201-5.314V7.515C487.953,3.364,484.588,0,480.438,0z M455.428,462.759l-23.584,23.584
			V455.89l30.453-0.001L455.428,462.759z"/>
	</g>
</g>
<g>
	<g>
		<path d="M368.219,136.266h-16.031c-4.696,0-8.517-3.82-8.517-8.517v-8.016c0-4.696,3.82-8.517,8.517-8.517h16.031
			c4.696,0,8.517,3.82,8.517,8.517c0,4.151,3.365,7.515,7.515,7.515s7.515-3.364,7.515-7.515c0-12.983-10.563-23.546-23.546-23.546
			h-0.501v-8.517c0-4.151-3.365-7.515-7.515-7.515c-4.15,0-7.515,3.364-7.515,7.515v8.517h-0.501
			c-12.983,0-23.546,10.563-23.546,23.546v8.016c0,12.983,10.563,23.546,23.546,23.546h16.031c4.696,0,8.517,3.82,8.517,8.517v8.016
			c0,4.696-3.82,8.517-8.517,8.517h-16.031c-4.696,0-8.517-3.82-8.517-8.517c0-4.151-3.365-7.515-7.515-7.515
			s-7.515,3.364-7.515,7.515c0,12.983,10.563,23.546,23.546,23.546h0.501v8.517c0,4.151,3.365,7.515,7.515,7.515
			c4.15,0,7.515-3.364,7.515-7.515v-8.517h0.501c12.983,0,23.546-10.563,23.546-23.546v-8.016
			C391.765,146.829,381.203,136.266,368.219,136.266z"/>
	</g>
</g>
<g>
	<g>
		<path d="M440.36,312.611h-56.11c-4.15,0-7.515,3.364-7.515,7.515s3.365,7.515,7.515,7.515h56.11c4.15,0,7.515-3.364,7.515-7.515
			S444.51,312.611,440.36,312.611z"/>
	</g>
</g>
<g>
	<g>
		<path d="M351.812,312.611h-31.687c-4.15,0-7.515,3.364-7.515,7.515s3.365,7.515,7.515,7.515h31.687
			c4.15,0,7.515-3.364,7.515-7.515S355.962,312.611,351.812,312.611z"/>
	</g>
</g>
<g>
	<g>
		<path d="M440.36,344.673H320.125c-4.15,0-7.515,3.364-7.515,7.515s3.365,7.515,7.515,7.515H440.36c4.15,0,7.515-3.364,7.515-7.515
			S444.51,344.673,440.36,344.673z"/>
	</g>
</g>
<g>
	<g>
		<path d="M440.36,376.736h-8.016c-4.15,0-7.515,3.364-7.515,7.515s3.365,7.515,7.515,7.515h8.016c4.15,0,7.515-3.364,7.515-7.515
			S444.51,376.736,440.36,376.736z"/>
	</g>
</g>
<g>
	<g>
		<path d="M392.266,408.798h-72.141c-4.15,0-7.515,3.364-7.515,7.515s3.365,7.515,7.515,7.515h72.141
			c4.15,0,7.515-3.364,7.515-7.515S396.416,408.798,392.266,408.798z"/>
	</g>
</g>
<g>
	<g>
		<path d="M400.282,376.736h-80.157c-4.15,0-7.515,3.364-7.515,7.515s3.365,7.515,7.515,7.515h80.157
			c4.15,0,7.515-3.364,7.515-7.515S404.432,376.736,400.282,376.736z"/>
	</g>
</g>
<g>
	<g>
		<path d="M175.843,48.094H71.64c-4.15,0-7.515,3.364-7.515,7.515c0,4.151,3.365,7.515,7.515,7.515h104.204
			c4.15,0,7.515-3.364,7.515-7.515C183.358,51.458,179.994,48.094,175.843,48.094z"/>
	</g>
</g>
<g>
	<g>
		<path d="M87.671,88.172H71.64c-4.15,0-7.515,3.364-7.515,7.515s3.365,7.515,7.515,7.515h16.031c4.15,0,7.515-3.364,7.515-7.515
			S91.821,88.172,87.671,88.172z"/>
	</g>
</g>
<g>
	<g>
		<path d="M175.843,88.172h-56.11c-4.15,0-7.515,3.364-7.515,7.515s3.365,7.515,7.515,7.515h56.11c4.15,0,7.515-3.364,7.515-7.515
			S179.994,88.172,175.843,88.172z"/>
	</g>
</g>
<g>
	<g>
		<path d="M175.843,120.235H71.64c-4.15,0-7.515,3.364-7.515,7.515s3.365,7.515,7.515,7.515h104.204c4.15,0,7.515-3.364,7.515-7.515
			S179.994,120.235,175.843,120.235z"/>
	</g>
</g>
<g>
	<g>
		<path d="M360.204,48.094c-44.639,0-82.234,30.727-92.752,72.141h-27.483c-3.739,0-6.911,2.749-7.44,6.452l-11.017,77.112
			c-3.548-0.448-7.181-0.681-10.878-0.681c-14.77,0-29.266,6.117-40.807,17.017c-11.564-10.9-26.148-17.017-41.056-17.017
			c-19.273,0-36.836,6.214-49.454,17.499C66.77,231.837,59.86,247.189,59.86,263.843c0,38.078,14.228,54.225,23.642,64.91
			c7.745,8.79,10.355,11.752,5.683,22.029c-9.822,21.609-10.054,44.938-8.517,60.702c1.852,18.996,7.29,37.067,14.548,48.339
			c5.169,8.029,10.95,12.099,17.182,12.099c9.21,0,13.188-9.825,14.495-13.053c2.283-5.64,4.134-12.869,6.278-21.238
			c7.811-30.506,15.951-55.757,36.531-55.757c20.58,0,28.72,25.251,36.531,55.757c2.143,8.37,3.994,15.598,6.278,21.238
			c1.308,3.229,5.285,13.053,14.495,13.053c6.232,0,12.012-4.071,17.182-12.099c7.258-11.272,12.697-29.343,14.548-48.339
			c1.536-15.764,1.306-39.092-8.517-60.702c-4.672-10.278-2.062-13.239,5.683-22.029c9.413-10.686,23.641-26.832,23.641-64.911
			c0-16.654-6.91-32.005-19.458-43.227c-6.714-6.005-14.837-10.557-23.864-13.517l10.262-71.833H264.9
			c-0.248,2.807-0.384,5.646-0.384,8.517c0,52.762,42.925,95.687,95.687,95.687c52.762,0,95.687-42.925,95.687-95.687
			S412.966,48.094,360.204,48.094z M236.203,266.741c0,9.116-7.416,16.532-16.532,16.532c-9.116,0-16.532-7.417-16.532-16.532
			s7.417-16.532,16.532-16.532C228.787,250.209,236.203,257.625,236.203,266.741z M264.517,263.842
			c0,32.401-11.029,44.917-19.89,54.973c-8.253,9.366-16.786,19.051-8.089,38.185c12.514,27.532,8.571,65.969-1.493,88.156
			c-3.006,6.627-5.711,9.807-7.236,11.079c-2.289-3.872-4.983-14.396-7.016-22.335c-3.534-13.803-7.541-29.45-14.591-42.335
			c-8.979-16.406-21.258-24.724-36.499-24.724s-27.521,8.318-36.499,24.724c-7.052,12.885-11.058,28.532-14.591,42.335
			c-2.033,7.938-4.727,18.463-7.016,22.335c-1.525-1.271-4.23-4.451-7.236-11.079c-10.064-22.188-14.007-60.625-1.493-88.156
			c8.697-19.134,0.164-28.819-8.089-38.185c-8.861-10.057-19.89-22.572-19.89-54.973c0-26.479,22.661-45.696,53.882-45.696
			c11.122,0,22.496,4.983,31.349,13.531c-5.778,8.237-9.497,12.37-23.163,12.37c-4.15,0-7.515,3.364-7.515,7.515
			s3.365,7.515,7.515,7.515c22.422,0,29.668-10.422,36.676-20.501c0.51-0.733,1.044-1.492,1.579-2.248
			c0.135-0.139,0.272-0.277,0.397-0.427c9.383-11.284,22.15-17.756,35.026-17.756c3.002,0,5.924,0.181,8.754,0.526l-2.376,16.628
			c-16.163,1.356-28.903,14.934-28.903,31.441c0,17.403,14.159,31.562,31.562,31.562c17.403,0,31.562-14.159,31.562-31.562
			c0-13.084-8.004-24.332-19.371-29.11l2.199-15.398C252.561,229.225,264.517,244.616,264.517,263.842z M360.204,224.438
			c-44.475,0-80.658-36.183-80.658-80.658s36.183-80.658,80.658-80.658c44.475,0,80.658,36.183,80.658,80.658
			S404.678,224.438,360.204,224.438z"/>
	</g>
</g>
<g>
</g>
<g>
</g>
<g>
</g>
<g>
</g>
<g>
</g>
<g>
</g>
<g>
</g>
<g>
</g>
<g>
</g>
<g>
</g>
<g>
</g>
<g>
</g>
<g>
</g>
<g>
</g>
<g>
</g>
</svg>
