<?xml version="1.0" encoding="iso-8859-1"?>
<!-- Generator: Adobe Illustrator 19.0.0, SVG Export Plug-In . SVG Version: 6.00 Build 0)  -->
<svg version="1.1" id="Capa_1" xmlns="http://www.w3.org/2000/svg" xmlns:xlink="http://www.w3.org/1999/xlink" x="0px" y="0px"
	 viewBox="0 0 512 512" style="enable-background:new 0 0 512 512;" xml:space="preserve">
<g>
	<g>
		<path d="M27.554,444.865c-4.15,0-7.515,3.364-7.515,7.515v52.106c0,4.151,3.365,7.515,7.515,7.515c4.15,0,7.515-3.364,7.515-7.515
			V452.38C35.068,448.229,31.704,444.865,27.554,444.865z"/>
	</g>
</g>
<g>
	<g>
		<circle cx="219.93" cy="448.376" r="7.515"/>
	</g>
</g>
<g>
	<g>
		<circle cx="219.93" cy="479.937" r="7.515"/>
	</g>
</g>
<g>
	<g>
		<path d="M251.992,224.438h-64.125c-4.15,0-7.515,3.364-7.515,7.515c0,21.823,17.755,39.577,39.577,39.577
			s39.577-17.755,39.577-39.577C259.507,227.802,256.142,224.438,251.992,224.438z M219.93,256.501
			c-10.916,0-20.19-7.161-23.372-17.033h46.743C240.12,249.34,230.846,256.501,219.93,256.501z"/>
	</g>
</g>
<g>
	<g>
		<path d="M171.836,168.329c-12.983,0-23.546,10.563-23.546,23.546c0,4.151,3.365,7.515,7.515,7.515c4.15,0,7.515-3.364,7.515-7.515
			c0-4.696,3.82-8.517,8.517-8.517s8.517,3.82,8.517,8.517c0,4.151,3.365,7.515,7.515,7.515c4.15,0,7.515-3.364,7.515-7.515
			C195.382,178.891,184.819,168.329,171.836,168.329z"/>
	</g>
</g>
<g>
	<g>
		<path d="M268.023,168.329c-12.983,0-23.546,10.563-23.546,23.546c0,4.151,3.365,7.515,7.515,7.515c4.15,0,7.515-3.364,7.515-7.515
			c0-4.696,3.82-8.517,8.517-8.517c4.696,0,8.517,3.82,8.517,8.517c0,4.151,3.364,7.515,7.515,7.515s7.515-3.364,7.515-7.515
			C291.569,178.891,281.007,168.329,268.023,168.329z"/>
	</g>
</g>
<g>
	<g>
		<path d="M356.196,0c-20.079,0-38.524,10.887-48.341,28.124C283.029,10.422,252.674,0,219.93,0h-64.125
			c-4.15,0-7.515,3.364-7.515,7.515v11.887L111.071,0.794c-2.331-1.165-5.097-1.04-7.311,0.329
			c-2.215,1.369-3.564,3.787-3.564,6.392v25.049L80.157,17.534c-2.276-1.707-5.323-1.983-7.869-0.709
			c-2.546,1.273-4.154,3.875-4.154,6.721v128.25c0,44.019,19.052,85.733,52.291,114.616c21.506,32.064,58.08,53.212,99.505,53.212
			c41.425,0,77.999-21.148,99.505-53.212c33.24-28.882,52.291-70.597,52.291-114.616c0-14.361-2.005-28.261-5.749-41.438
			c11.872-2.107,22.746-8.026,31.038-16.985c9.538-10.305,14.79-23.716,14.79-37.765C411.804,24.946,386.859,0,356.196,0z
			 M324.634,199.89c0,57.734-46.971,104.705-104.704,104.705c-57.735,0-104.705-46.971-104.705-104.705v-45.459l25.171-31.462
			l34.142,34.142c4.636,4.638,12.828,1.235,12.828-5.314v-27.919l69.281,34.641c4.913,2.455,10.875-1.239,10.875-6.721v-27.307
			l57.112,31.729V199.89z M337.758,221.224c1.25-6.925,1.906-14.054,1.906-21.334v-48.094c0-2.729-1.48-5.243-3.865-6.57
			l-72.141-40.078c-4.926-2.732-11.165,0.952-11.165,6.57v27.92l-69.281-34.641c-4.913-2.456-10.875,1.239-10.875,6.721v21.937
			l-27.25-27.25c-3.12-3.121-8.427-2.824-11.182,0.619l-32.063,40.077c-1.066,1.333-1.647,2.988-1.647,4.695v48.094
			c0,7.279,0.655,14.409,1.906,21.334c-12.268-20.809-18.938-44.715-18.938-69.428V38.575l20.039,15.029
			c4.863,3.647,12.023,0.053,12.023-6.012V19.674l37.219,18.608c4.912,2.457,10.875-1.24,10.875-6.721V15.029h56.611
			c75.414,0,136.767,61.353,136.767,136.767C356.697,176.509,350.027,200.414,337.758,221.224z M361.057,95.891
			c-8.977-22.581-23.225-42.512-41.216-58.274c6.823-13.761,20.919-22.588,36.354-22.588c22.376,0,40.579,18.204,40.579,40.579
			C396.775,76.071,381.202,93.478,361.057,95.891z"/>
	</g>
</g>
<g>
	<g>
		<path d="M475.93,388.853V215.922c0-4.151-3.364-7.515-7.515-7.515h-40.078c-4.151,0-7.515,3.364-7.515,7.515
			c0,4.151,3.364,7.515,7.515,7.515h0.501v9.018h-0.501c-4.151,0-7.515,3.364-7.515,7.515s3.364,7.515,7.515,7.515h0.501v9.018
			h-0.501c-4.151,0-7.515,3.364-7.515,7.515c0,4.151,3.364,7.515,7.515,7.515H460.9v51.966l-27.909,13.954
			c-2.545,1.273-4.154,3.875-4.154,6.721v37.448l-4.364-9.602c-13.56-29.832-42.141-49.379-74.783-51.241
			c-0.488-0.099-274.043-0.151-274.043-0.151c-30.663,0-55.609,24.946-55.609,55.609v40.073c0,4.151,3.365,7.515,7.515,7.515
			c4.15,0,7.515-3.364,7.515-7.515v-40.073c0-22.376,18.204-40.579,40.579-40.579h38.727l-13.999,62.996
			c-1.402,6.303,5.652,11.399,11.202,8.075l36.357-21.814l68.346,37.97c2.237,1.25,5.061,1.246,7.298,0l68.346-37.97l36.357,21.814
			c5.549,3.326,12.603-1.771,11.202-8.075l-13.998-62.996h21.563c0.263,0.04,0.531,0.066,0.804,0.078
			c27.452,1.201,51.57,17.488,62.939,42.504l2.961,6.514h-1.447c-12.983,0-23.546,10.563-23.546,23.546v80.157
			c0,12.983,10.563,23.546,23.546,23.546h48.094c17.403,0,31.562-14.159,31.562-31.562v-64.125
			C491.961,404.554,485.491,394.283,475.93,388.853z M151.438,369.665c-2.325-1.292-5.235-1.241-7.516,0.125l-25.083,15.05
			l10.93-49.185h22.208l40.353,55.485l1.517,2.086L151.438,369.665z M219.93,403.537l-49.367-67.882h98.736L219.93,403.537z
			 M295.937,369.79c-2.302-1.381-5.169-1.429-7.516-0.125l-42.409,23.562l41.869-57.571h22.207l10.931,49.185L295.937,369.79z
			 M443.867,223.436H460.9v9.043c-0.166-0.011-0.332-0.025-0.501-0.025h-16.532V223.436z M443.867,256.501v-9.018h16.532
			c0.169,0,0.335-0.014,0.501-0.025v9.043H443.867z M443.867,348.817l17.033-8.517v44.464c-0.167-0.002-0.333-0.013-0.501-0.013
			h-16.532V348.817z M476.932,480.438c0,9.116-7.417,16.532-16.532,16.532h-48.094c-4.696,0-8.517-3.82-8.517-8.517v-8.517h24.548
			c4.151,0,7.515-3.364,7.515-7.515c0-4.151-3.364-7.515-7.515-7.515h-24.548v-9.043c0.166,0.011,0.332,0.025,0.501,0.025h24.047
			c4.151,0,7.515-3.364,7.515-7.515s-3.364-7.515-7.515-7.515H404.29c-0.169,0-0.335,0.014-0.501,0.025v-9.043h24.548
			c4.151,0,7.515-3.364,7.515-7.515c0-4.151-3.364-7.515-7.515-7.515h-24.548v-8.517c0-4.696,3.82-8.517,8.517-8.517h48.094
			c9.116,0,16.532,7.417,16.532,16.532V480.438z"/>
	</g>
</g>
<g>
</g>
<g>
</g>
<g>
</g>
<g>
</g>
<g>
</g>
<g>
</g>
<g>
</g>
<g>
</g>
<g>
</g>
<g>
</g>
<g>
</g>
<g>
</g>
<g>
</g>
<g>
</g>
<g>
</g>
</svg>
