<?xml version="1.0" encoding="iso-8859-1"?>
<!-- Generator: Adobe Illustrator 19.0.0, SVG Export Plug-In . SVG Version: 6.00 Build 0)  -->
<svg version="1.1" id="Capa_1" xmlns="http://www.w3.org/2000/svg" xmlns:xlink="http://www.w3.org/1999/xlink" x="0px" y="0px"
	 viewBox="0 0 512 512" style="enable-background:new 0 0 512 512;" xml:space="preserve">
<g>
	<g>
		<path d="M288.063,88.172H95.687c-4.151,0-7.515,3.364-7.515,7.515v32.063c0,0.006,0.001,0.012,0.001,0.018
			c0,0.079,0.009,0.159,0.012,0.238c0.006,0.184,0.012,0.37,0.032,0.55c0,0,0,0.015,0.001,0.022l32.063,288.564
			c0.188,1.695,0.948,3.277,2.154,4.485l30.292,30.291l7.661,53.629c0.529,3.702,3.699,6.452,7.44,6.452h48.094
			c3.739,0,6.91-2.749,7.44-6.452l7.661-53.629l30.292-30.291c1.206-1.207,1.966-2.788,2.154-4.485l32.063-288.564
			c0.001-0.007,0-0.015,0-0.015c0.02-0.188,0.026-0.374,0.032-0.558c0.003-0.08,0.012-0.159,0.012-0.238
			c0-0.006,0.001-0.012,0.001-0.018V95.686C295.577,91.536,292.214,88.172,288.063,88.172z M209.404,496.971h-35.058l-5.868-41.08
			h46.796L209.404,496.971z M248.822,412.863l-27.997,27.998h-57.9l-27.997-27.998l-30.845-277.599h175.583L248.822,412.863z
			 M280.548,120.235H103.202v-17.033h177.346V120.235z"/>
	</g>
</g>
<g>
	<g>
		<path d="M416.313,392.763c4.151,0,7.515-3.364,7.515-7.515V23.546C423.828,10.563,413.265,0,400.282,0h-80.157
			c-4.151,0-7.515,3.364-7.515,7.515c0,4.151,3.364,7.515,7.515,7.515h8.517v17.033h-8.517c-4.151,0-7.515,3.364-7.515,7.515
			c0,4.151,3.364,7.515,7.515,7.515h8.517v17.033h-8.517c-4.151,0-7.515,3.364-7.515,7.515c0,4.151,3.364,7.515,7.515,7.515h8.517
			v17.033h-8.517c-4.151,0-7.515,3.364-7.515,7.515c0,4.151,3.364,7.515,7.515,7.515h8.517v17.033h-8.517
			c-4.151,0-7.515,3.364-7.515,7.515c0,4.151,3.364,7.515,7.515,7.515h56.611v110.215l-22.544,30.06
			c-0.976,1.301-1.503,2.883-1.503,4.509v200.39c0,12.983,10.563,23.546,23.546,23.546h24.047c12.983,0,23.546-10.563,23.546-23.546
			v-68.129c0-4.151-3.364-7.515-7.515-7.515s-7.515,3.364-7.515,7.515v68.129c0,4.696-3.82,8.517-8.517,8.517h-24.047
			c-4.696,0-8.517-3.82-8.517-8.517V290.569l22.544-30.06c0.976-1.301,1.503-2.883,1.503-4.509V15.029h8.517
			c4.696,0,8.517,3.82,8.517,8.517v361.702C408.798,389.4,412.162,392.763,416.313,392.763z M376.736,128.25h-33.065v-17.033h33.065
			V128.25z M376.736,96.188h-33.065V79.155h33.065V96.188z M376.736,64.125h-33.065V47.092h33.065V64.125z M376.736,32.063h-33.065
			V15.029h33.065V32.063z"/>
	</g>
</g>
<g>
	<g>
		<path d="M234.003,261.401c4.673-5.303,11.735-13.318,11.735-32.119c0-18.023-15.186-31.616-35.324-31.616
			c-6.577,0-13.025,2.287-18.486,6.438c-5.477-4.15-11.961-6.438-18.592-6.438c-20.138,0-35.324,13.591-35.324,31.616
			c0,18.801,7.062,26.815,11.735,32.119c2.932,3.326,2.932,3.326,1.916,5.559c-8.455,18.599-3.679,42.914,3.019,53.315
			c3.92,6.088,8.275,7.366,11.239,7.366c8.622,0,10.939-9.046,13.391-18.623c2.99-11.68,6.201-22.163,12.564-22.163
			s9.574,10.483,12.564,22.163c2.452,9.578,4.769,18.623,13.391,18.623c2.964,0,7.319-1.277,11.239-7.366
			c6.698-10.401,11.472-34.716,3.019-53.315C231.071,264.726,231.071,264.726,234.003,261.401z M222.726,251.464
			c-3.951,4.485-9.362,10.625-4.321,21.714c4.913,10.806,3.364,24.429,0.766,32.781c-0.059-0.228-0.116-0.452-0.172-0.67
			c-3.204-12.516-8.569-33.464-27.123-33.464c-18.554,0-23.919,20.948-27.123,33.464c-0.056,0.218-0.113,0.442-0.172,0.67
			c-2.598-8.352-4.147-21.975,0.766-32.781c5.04-11.089-0.371-17.23-4.321-21.714c-3.741-4.245-7.983-9.059-7.983-22.182
			c-0.002-9.611,8.534-16.586,20.293-16.586c4.612,0,9.403,2.452,12.819,6.56c2.959,3.559,8.598,3.559,11.556,0
			c3.467-4.168,8.097-6.56,12.704-6.56c11.759,0,20.295,6.976,20.295,16.586C230.709,242.405,226.468,247.218,222.726,251.464z"/>
	</g>
</g>
<g>
</g>
<g>
</g>
<g>
</g>
<g>
</g>
<g>
</g>
<g>
</g>
<g>
</g>
<g>
</g>
<g>
</g>
<g>
</g>
<g>
</g>
<g>
</g>
<g>
</g>
<g>
</g>
<g>
</g>
</svg>
