<?xml version="1.0" encoding="iso-8859-1"?>
<!-- Generator: Adobe Illustrator 19.0.0, SVG Export Plug-In . SVG Version: 6.00 Build 0)  -->
<svg version="1.1" id="Capa_1" xmlns="http://www.w3.org/2000/svg" xmlns:xlink="http://www.w3.org/1999/xlink" x="0px" y="0px"
	 viewBox="0 0 512.001 512.001" style="enable-background:new 0 0 512.001 512.001;" xml:space="preserve">
<g>
	<g>
		<path d="M107.849,87.776c-3.127-23.271-4.647-49.526-4.647-80.262c0-4.151-3.364-7.515-7.515-7.515s-7.515,3.364-7.515,7.515
			c0,31.412,1.564,58.321,4.78,82.265c0.508,3.773,3.733,6.515,7.439,6.515c0.333-0.001,0.67-0.023,1.01-0.068
			C105.514,95.673,108.4,91.89,107.849,87.776z"/>
	</g>
</g>
<g>
	<g>
		<path d="M337.483,235.893c2.895,2.893,7.733,2.893,10.628,0c17.639-17.641,37.635-37.636,52.67-73.973
			c15.725-37.998,23.048-87.061,23.048-154.406c0-4.151-3.364-7.515-7.515-7.515s-7.515,3.364-7.515,7.515
			c0,65.307-6.96,112.543-21.904,148.658c-12.436,30.053-28.86,48.323-44.109,63.767l-34.717-34.718
			c13.168-13.365,25.415-27.298,34.757-50.985c11.513-29.195,16.877-69.462,16.877-126.723c0-4.151-3.364-7.515-7.515-7.515
			s-7.515,3.364-7.515,7.515c0,119.872-24.345,144.217-52.534,172.405c-2.935,2.935-2.936,7.693-0.001,10.628l8.922,8.922
			c-18.702,19.562-33.835,40.208-45.06,61.488c-11.223-21.277-26.367-41.927-45.066-61.487l8.924-8.924
			c2.935-2.936,2.935-7.693,0-10.628c-28.188-28.186-52.533-52.531-52.533-172.404c0-4.151-3.364-7.515-7.515-7.515
			s-7.515,3.364-7.515,7.515c0,57.261,5.363,97.529,16.878,126.723c9.341,23.687,21.589,37.618,34.756,50.985l-34.717,34.717
			c-15.25-15.442-31.673-33.713-44.107-63.766c-4.251-10.274-7.904-21.635-10.858-33.768c-0.982-4.032-5.042-6.507-9.08-5.524
			c-4.032,0.981-6.505,5.046-5.524,9.08c3.135,12.878,7.029,24.976,11.574,35.958c15.035,36.338,35.029,56.332,52.669,73.972
			c2.896,2.895,7.732,2.895,10.628,0l8.784-8.784c16.779,17.67,30.098,36.217,39.662,55.23c-2.263,3.424-4.005,7.219-5.12,11.272
			c-15.155,3.803-27.578,9.453-36.938,16.819c-13.663,10.75-20.591,24.799-20.591,41.76c0,49.796,16.587,75.251,17.294,76.309
			c1.394,2.091,3.739,3.347,6.252,3.347h8.016c3.828,0,7.046-2.879,7.469-6.685l7.533-67.788l36.672-15.718
			c3.919,1.303,8.102,2.019,12.452,2.019c4.35,0,8.534-0.715,12.452-2.018l36.673,15.717l7.533,67.788
			c0.423,3.806,3.64,6.685,7.469,6.685h8.016c2.513,0,4.859-1.255,6.252-3.347c0.706-1.059,17.294-26.513,17.294-76.309
			c0-16.91-6.888-30.928-20.474-41.667c-9.373-7.409-21.837-13.089-37.055-16.909c-1.115-4.053-2.857-7.848-5.119-11.272
			c9.578-19.026,22.903-37.585,39.657-55.232L337.483,235.893z M193.93,216.478l6.376-6.376
			c17.343,18.181,31.407,37.288,41.882,56.906c-2.87,1.072-5.581,2.468-8.092,4.143C224.029,252.279,210.553,233.938,193.93,216.478
			z M196.931,345.28c-2.488,1.066-4.21,3.388-4.509,6.077l-6.661,59.951c-4.362-10.504-10.418-30.281-10.418-59.12
			c0-20.416,13.944-34.767,41.453-42.732c1.188,8.731,5.226,16.568,11.156,22.53L196.931,345.28z M256.001,328.642
			c-13.536,0-24.548-11.011-24.548-24.548s11.012-24.548,24.548-24.548s24.548,11.012,24.548,24.548
			S269.537,328.642,256.001,328.642z M295.206,309.454c27.508,7.97,41.452,22.322,41.452,42.733c0,28.85-6.061,48.632-10.417,59.125
			l-6.661-59.955c-0.299-2.69-2.021-5.011-4.509-6.077l-31.021-13.295C289.98,326.024,294.018,318.187,295.206,309.454z
			 M277.912,271.156c-2.513-1.676-5.226-3.074-8.098-4.147c10.475-19.621,24.529-38.725,41.877-56.909l6.378,6.379
			C301.469,233.918,287.992,252.272,277.912,271.156z"/>
	</g>
</g>
<g>
	<g>
		<circle cx="256.001" cy="304.094" r="7.515"/>
	</g>
</g>
<g>
	<g>
		<path d="M298.129,445.761c4.673-5.303,11.735-13.318,11.735-32.119c0-18.023-15.186-31.616-35.324-31.616
			c-6.577,0-13.025,2.287-18.486,6.438c-5.477-4.15-11.961-6.438-18.592-6.438c-20.138,0-35.324,13.592-35.324,31.616
			c0,18.801,7.062,26.815,11.735,32.119c2.932,3.326,2.932,3.326,1.916,5.559c-8.455,18.599-3.679,42.914,3.019,53.315
			c3.92,6.088,8.275,7.366,11.239,7.366c8.622,0,10.939-9.046,13.391-18.623c2.99-11.68,6.201-22.163,12.564-22.163
			s9.574,10.484,12.564,22.163c2.452,9.578,4.769,18.623,13.391,18.623c2.964,0,7.319-1.277,11.239-7.366
			c6.698-10.401,11.472-34.716,3.019-53.315C295.197,449.086,295.197,449.086,298.129,445.761z M286.852,435.824
			c-3.951,4.485-9.362,10.625-4.321,21.714c4.913,10.806,3.364,24.429,0.767,32.781c-0.059-0.228-0.116-0.452-0.172-0.67
			c-3.204-12.516-8.569-33.464-27.123-33.464c-18.554,0-23.919,20.948-27.123,33.464c-0.056,0.218-0.113,0.442-0.172,0.67
			c-2.598-8.352-4.147-21.975,0.766-32.781c5.04-11.089-0.371-17.23-4.321-21.714c-3.741-4.245-7.983-9.059-7.983-22.182
			c0-9.611,8.536-16.586,20.295-16.586c4.612,0,9.403,2.452,12.819,6.56c2.959,3.559,8.598,3.559,11.556,0
			c3.467-4.168,8.097-6.56,12.704-6.56c11.759,0,20.295,6.976,20.295,16.586C294.834,426.766,290.593,431.578,286.852,435.824z"/>
	</g>
</g>
<g>
</g>
<g>
</g>
<g>
</g>
<g>
</g>
<g>
</g>
<g>
</g>
<g>
</g>
<g>
</g>
<g>
</g>
<g>
</g>
<g>
</g>
<g>
</g>
<g>
</g>
<g>
</g>
<g>
</g>
</svg>
