<?xml version="1.0" encoding="iso-8859-1"?>
<!-- Generator: Adobe Illustrator 19.0.0, SVG Export Plug-In . SVG Version: 6.00 Build 0)  -->
<svg version="1.1" id="Capa_1" xmlns="http://www.w3.org/2000/svg" xmlns:xlink="http://www.w3.org/1999/xlink" x="0px" y="0px"
	 viewBox="0 0 512 512" style="enable-background:new 0 0 512 512;" xml:space="preserve">
<g>
	<g>
		<path d="M370.393,318.434c-0.957-4.038-5.008-6.535-9.045-5.58c-4.038,0.957-6.537,5.006-5.581,9.045
			c15.958,67.386-4.204,141.308-24.24,166.644c-4.174,5.277-8.419,8.427-11.357,8.427c-0.03,0-3.107-0.133-7.78-11.675
			c-3.912-9.663-7.532-23.798-11.363-38.764c-13.607-53.135-32.24-125.906-93.076-125.906s-79.47,72.771-93.076,125.906
			c-3.831,14.965-7.452,29.101-11.364,38.764c-4.673,11.542-7.749,11.675-7.779,11.675c-2.185,0-5.093-1.714-8.189-4.828
			c-16.505-16.6-33.39-66.227-33.077-120.54c0.024-4.15-3.321-7.535-7.472-7.558c-0.015,0-0.029,0-0.044,0
			c-4.13,0-7.49,3.337-7.514,7.472C39.131,424.546,55.231,480.96,76.885,502.74c6.109,6.144,12.45,9.26,18.847,9.26
			c17.894,0,24.526-25.897,33.703-61.74c6.597-25.763,14.073-54.963,26.542-77.746c13.573-24.802,30.574-36.859,51.975-36.859
			c21.401,0,38.401,12.057,51.975,36.859c12.467,22.781,19.945,51.983,26.542,77.746c9.178,35.843,15.809,61.74,33.703,61.74
			c7.941,0,15.728-4.755,23.145-14.135c12.372-15.644,23.118-43.815,28.748-75.356C378.431,386.833,377.838,349.87,370.393,318.434z
			"/>
	</g>
</g>
<g>
	<g>
		<path d="M380.152,32.434C356.763,11.518,324.075,0,288.107,0c-29.216,0-57.916,13.129-79.917,36.299
			C186.317,13.434,156.831,0,127.794,0C91.826,0,59.137,11.518,35.75,32.434C12.725,53.025,0.045,81.182,0.045,111.718
			c0,71.848,25.72,101.038,44.501,122.353c15.553,17.65,23.36,26.511,12.282,50.881c-6.911,15.203-11.836,32.242-14.642,50.645
			c-0.625,4.103,2.193,7.935,6.297,8.561c0.384,0.058,0.764,0.086,1.141,0.086c3.65,0,6.852-2.664,7.419-6.383
			c2.596-17.036,7.127-32.746,13.465-46.69c15.104-33.227,1.298-48.895-14.688-67.037c-18.154-20.602-40.748-46.244-40.748-112.416
			c0-56.025,47.406-96.689,112.72-96.689c25.496,0,51.536,12.21,70.718,32.917c-0.373,0.535-0.75,1.075-1.118,1.604
			c-12.815,18.43-21.28,30.606-53.569,30.606c-4.15,0-7.515,3.365-7.515,7.515c0,4.15,3.365,7.515,7.515,7.515
			c40.144,0,52.084-17.173,65.909-37.056c1.12-1.611,2.273-3.261,3.455-4.93c0.28-0.248,0.548-0.511,0.791-0.803
			c19.748-23.747,46.765-37.368,74.128-37.368c65.315,0,112.72,40.663,112.72,96.689c0,22.864-2.68,42.259-8.193,59.294
			c-1.278,3.949,0.888,8.185,4.836,9.464c3.952,1.28,8.185-0.888,9.464-4.836c6.004-18.553,8.922-39.461,8.922-63.921
			C415.857,81.182,403.177,53.025,380.152,32.434z"/>
	</g>
</g>
<g>
	<g>
		<path d="M505.147,399.664l-80.157-80.157c-7.066-7.067-18.156-8.906-27.119-4.448l-31.349-31.349
			c15.747-18.192,25.286-41.897,25.286-67.789c0-57.182-46.521-103.703-103.703-103.703s-103.703,46.521-103.703,103.703
			c0,57.182,46.521,103.703,103.703,103.703c25.893,0,49.598-9.539,67.789-25.286l31.349,31.349
			c-4.458,8.963-2.619,20.053,4.447,27.118l80.157,80.157c9.076,9.077,24.222,9.078,33.299,0.001
			C514.224,423.887,514.225,408.74,505.147,399.664z M288.107,304.595c-48.894,0-88.673-39.779-88.673-88.673
			c0-48.894,39.779-88.673,88.673-88.673s88.673,39.779,88.673,88.673C376.781,264.816,337.002,304.595,288.107,304.595z
			 M494.52,422.336c-3.282,3.282-8.761,3.281-12.044,0l-80.157-80.157c-3.286-3.285-3.276-8.757,0-12.045
			c3.277-3.287,8.765-3.278,12.044,0l80.157,80.157C497.783,413.595,497.818,419.037,494.52,422.336z"/>
	</g>
</g>
<g>
	<g>
		<path d="M288.107,144.282c-39.502,0-71.64,32.138-71.64,71.64c0,39.502,32.138,71.64,71.64,71.64s71.64-32.138,71.64-71.64
			C359.747,176.42,327.61,144.282,288.107,144.282z M288.107,272.532c-31.215,0-56.611-25.396-56.611-56.611
			c0-31.215,25.396-56.611,56.611-56.611s56.611,25.396,56.611,56.611C344.718,247.137,319.322,272.532,288.107,272.532z"/>
	</g>
</g>
<g>
</g>
<g>
</g>
<g>
</g>
<g>
</g>
<g>
</g>
<g>
</g>
<g>
</g>
<g>
</g>
<g>
</g>
<g>
</g>
<g>
</g>
<g>
</g>
<g>
</g>
<g>
</g>
<g>
</g>
</svg>
