<?xml version="1.0" encoding="iso-8859-1"?>
<!-- Generator: Adobe Illustrator 19.0.0, SVG Export Plug-In . SVG Version: 6.00 Build 0)  -->
<svg version="1.1" id="Capa_1" xmlns="http://www.w3.org/2000/svg" xmlns:xlink="http://www.w3.org/1999/xlink" x="0px" y="0px"
	 viewBox="0 0 512 512" style="enable-background:new 0 0 512 512;" xml:space="preserve">
<g>
	<g>
		<path d="M510.484,263.498c-1.42-1.883-3.641-2.989-5.999-2.989h-16.532V120.067c0-4.15-3.364-7.515-7.515-7.515
			s-7.515,3.365-7.515,7.515v140.441h-25.049V59.616c0-4.15-3.364-7.515-7.515-7.515H183.358V27.053h289.566v58.281
			c0,4.15,3.364,7.515,7.515,7.515s7.515-3.365,7.515-7.515V19.538c0-4.15-3.364-7.515-7.515-7.515H175.843
			c-4.151,0-7.515,3.365-7.515,7.515v32.564h-32.564c-4.151,0-7.515,3.365-7.515,7.515v152.798h-10.666l-6.592-26.37
			c-0.837-3.346-3.843-5.692-7.29-5.692H39.577c-3.448,0-6.454,2.347-7.29,5.692l-6.592,26.37H7.515
			c-4.151,0-7.515,3.365-7.515,7.515v272.532c0,4.089,3.427,7.515,7.515,7.515H440.36c3.356,0,6.303-2.224,7.225-5.45
			l64.125-224.438C512.359,267.82,511.905,265.38,510.484,263.498z M143.28,67.131h289.566v193.378H143.28V67.131z M15.029,227.444
			h16.532c3.448,0,6.454-2.347,7.29-5.692l6.592-26.371h52.391l6.592,26.371c0.837,3.346,3.843,5.692,7.29,5.692h16.533v33.065
			H71.64c-3.356,0-6.303,2.224-7.225,5.45l-49.385,172.85V227.444z M434.692,484.947H17.477l59.831-209.409h417.214L434.692,484.947
			z"/>
	</g>
</g>
<g>
	<g>
		<path d="M272.337,163.93c4.673-5.303,11.735-13.318,11.735-32.118c0-18.024-15.186-31.616-35.324-31.616
			c-6.576,0-13.025,2.287-18.486,6.438c-5.478-4.15-11.962-6.438-18.593-6.438c-20.138-0.001-35.324,13.592-35.324,31.615
			c0,18.8,7.062,26.814,11.735,32.118c2.932,3.326,2.932,3.326,1.916,5.56c-8.454,18.6-3.679,42.915,3.019,53.315
			c3.92,6.087,8.275,7.365,11.239,7.365c8.622,0,10.939-9.046,13.391-18.623c2.99-11.679,6.201-22.163,12.564-22.163
			c6.363,0,9.575,10.483,12.565,22.163c2.452,9.578,4.769,18.623,13.391,18.623c2.964,0,7.319-1.277,11.239-7.365
			c6.698-10.4,11.472-34.715,3.019-53.315C269.405,167.256,269.405,167.256,272.337,163.93z M261.06,153.994
			c-3.951,4.484-9.362,10.625-4.321,21.714c4.912,10.805,3.363,24.428,0.766,32.78c-0.058-0.227-0.115-0.452-0.171-0.669
			c-3.204-12.516-8.569-33.464-27.124-33.464s-23.919,20.948-27.123,33.464c-0.056,0.218-0.113,0.442-0.172,0.67
			c-2.597-8.352-4.146-21.975,0.766-32.78c5.04-11.089-0.371-17.231-4.321-21.714c-3.741-4.246-7.983-9.06-7.983-22.182
			c-0.002-9.612,8.534-16.587,20.293-16.587c4.613,0,9.404,2.452,12.82,6.559c2.959,3.559,8.598,3.559,11.556,0
			c3.467-4.168,8.097-6.559,12.704-6.559c11.759,0,20.295,6.976,20.295,16.586C269.042,144.934,264.802,149.746,261.06,153.994z"/>
	</g>
</g>
<g>
	<g>
		<path d="M336.157,116.227H312.11c-4.151,0-7.515,3.365-7.515,7.515c0,4.15,3.364,7.515,7.515,7.515h24.047
			c4.151,0,7.515-3.365,7.515-7.515C343.671,119.592,340.308,116.227,336.157,116.227z"/>
	</g>
</g>
<g>
	<g>
		<path d="M384.25,116.227h-16.031c-4.151,0-7.515,3.365-7.515,7.515c0,4.15,3.364,7.515,7.515,7.515h16.031
			c4.151,0,7.515-3.365,7.515-7.515C391.765,119.592,388.402,116.227,384.25,116.227z"/>
	</g>
</g>
<g>
	<g>
		<path d="M368.219,156.305h-56.11c-4.151,0-7.515,3.365-7.515,7.515c0,4.15,3.364,7.515,7.515,7.515h56.11
			c4.151,0,7.515-3.365,7.515-7.515C375.734,159.67,372.37,156.305,368.219,156.305z"/>
	</g>
</g>
<g>
	<g>
		<path d="M336.157,196.384H312.11c-4.151,0-7.515,3.365-7.515,7.515c0,4.15,3.364,7.515,7.515,7.515h24.047
			c4.151,0,7.515-3.365,7.515-7.515C343.671,199.748,340.308,196.384,336.157,196.384z"/>
	</g>
</g>
<g>
	<g>
		<path d="M392.266,196.384h-24.047c-4.151,0-7.515,3.365-7.515,7.515c0,4.15,3.364,7.515,7.515,7.515h24.047
			c4.151,0,7.515-3.365,7.515-7.515C399.781,199.748,396.417,196.384,392.266,196.384z"/>
	</g>
</g>
<g>
</g>
<g>
</g>
<g>
</g>
<g>
</g>
<g>
</g>
<g>
</g>
<g>
</g>
<g>
</g>
<g>
</g>
<g>
</g>
<g>
</g>
<g>
</g>
<g>
</g>
<g>
</g>
<g>
</g>
</svg>
