<?xml version="1.0" encoding="iso-8859-1"?>
<!-- Generator: Adobe Illustrator 19.0.0, SVG Export Plug-In . SVG Version: 6.00 Build 0)  -->
<svg version="1.1" id="Capa_1" xmlns="http://www.w3.org/2000/svg" xmlns:xlink="http://www.w3.org/1999/xlink" x="0px" y="0px"
	 viewBox="0 0 512 512" style="enable-background:new 0 0 512 512;" xml:space="preserve">
<g>
	<g>
		<path d="M472.423,96.188h-87.64L260.554,1.537c-2.689-2.05-6.419-2.05-9.108,0L127.218,96.188h-87.64
			c-4.151,0-7.515,3.365-7.515,7.515v400.783c0,4.15,3.364,7.515,7.515,7.515h341.166c4.151,0,7.515-3.365,7.515-7.515
			c0-4.15-3.364-7.515-7.515-7.515H47.092V111.218h60.399l-22.575,17.2c-11.689,1.37-20.791,11.329-20.791,23.38
			c0,12.983,10.563,23.546,23.546,23.546c12.983,0,23.546-10.563,23.546-23.546c0-7.252-3.298-13.748-8.471-18.07l29.543-22.509
			h247.421l29.543,22.509c-5.172,4.323-8.471,10.818-8.471,18.07c0,12.983,10.563,23.546,23.546,23.546
			c12.983,0,23.546-10.563,23.546-23.546c0-12.051-9.102-22.01-20.791-23.38l-22.575-17.2h60.399v385.753h-48.595
			c-4.151,0-7.515,3.365-7.515,7.515c0,4.15,3.364,7.515,7.515,7.515h56.11c4.151,0,7.515-3.365,7.515-7.515V103.703
			C479.938,99.553,476.574,96.188,472.423,96.188z M87.671,160.314c-4.696,0-8.517-3.82-8.517-8.517s3.82-8.517,8.517-8.517
			s8.517,3.82,8.517,8.517S92.368,160.314,87.671,160.314z M152.016,96.188L256,16.963l103.984,79.226H152.016z M424.322,143.28
			L424.322,143.28c0.003,0,0.006,0,0.008,0c4.695,0.001,8.516,3.82,8.516,8.517s-3.82,8.517-8.517,8.517
			c-4.696,0-8.517-3.82-8.517-8.517C415.812,147.103,419.63,143.284,424.322,143.28z"/>
	</g>
</g>
<g>
	<g>
		<path d="M342.205,309.996c9.411-10.685,23.639-26.831,23.639-64.91c0-16.655-6.91-32.005-19.459-43.227
			c-12.618-11.284-30.18-17.498-49.453-17.498c-14.77,0-29.266,6.117-40.807,17.018c-11.565-10.9-26.149-17.018-41.056-17.018
			c-19.273,0-36.836,6.214-49.453,17.498c-12.547,11.221-19.459,26.573-19.459,43.227c0,38.077,14.228,54.225,23.642,64.91
			c7.745,8.79,10.355,11.752,5.683,22.03c-9.822,21.609-10.053,44.937-8.517,60.701c1.852,18.997,7.29,37.068,14.549,48.34
			c5.169,8.029,10.95,12.099,17.182,12.099c9.21,0,13.188-9.825,14.495-13.053c2.283-5.64,4.135-12.869,6.278-21.24
			c7.811-30.506,15.952-55.757,36.531-55.757c20.579,0,28.72,25.251,36.531,55.757c2.143,8.37,3.994,15.598,6.278,21.24
			c1.308,3.228,5.284,13.053,14.495,13.053c6.232,0,12.013-4.071,17.182-12.099c7.258-11.272,12.698-29.343,14.549-48.34
			c1.536-15.764,1.306-39.09-8.517-60.701C331.849,321.748,334.458,318.787,342.205,309.996z M322.836,338.245
			c12.514,27.531,8.572,65.968-1.493,88.155c-3.006,6.627-5.71,9.808-7.236,11.08c-2.287-3.873-4.984-14.397-7.016-22.336
			c-3.534-13.804-7.541-29.45-14.591-42.334c-8.979-16.406-21.259-24.724-36.499-24.724c-15.241,0-27.521,8.318-36.499,24.724
			c-7.051,12.885-11.058,28.531-14.591,42.334c-2.032,7.938-4.728,18.462-7.016,22.336c-1.525-1.271-4.23-4.452-7.236-11.08
			c-10.065-22.188-14.007-60.624-1.493-88.155c8.697-19.134,0.163-28.819-8.089-38.185c-8.861-10.058-19.89-22.573-19.89-54.974
			c0-26.478,22.66-45.696,53.882-45.696c11.122,0,22.495,4.982,31.349,13.531c-5.779,8.237-9.498,12.37-23.163,12.37
			c-4.151,0-7.515,3.365-7.515,7.515c0,4.15,3.364,7.515,7.515,7.515c22.422,0,29.667-10.421,36.676-20.5
			c0.509-0.732,1.044-1.491,1.578-2.247c0.135-0.139,0.273-0.278,0.399-0.429c9.383-11.283,22.149-17.755,35.025-17.755
			c31.222,0,53.882,19.219,53.882,45.696c0,32.401-11.029,44.917-19.89,54.974C322.672,309.427,314.139,319.112,322.836,338.245z"/>
	</g>
</g>
<g>
	<g>
		<path d="M440.36,240.47h-32.063c-4.151,0-7.515,3.365-7.515,7.515c0,4.15,3.364,7.515,7.515,7.515h32.063
			c4.151,0,7.515-3.365,7.515-7.515C447.875,243.835,444.511,240.47,440.36,240.47z"/>
	</g>
</g>
<g>
	<g>
		<path d="M440.36,272.533h-56.11c-4.15,0-7.515,3.365-7.515,7.515c0,4.15,3.364,7.515,7.515,7.515h56.11
			c4.151,0,7.515-3.365,7.515-7.515C447.875,275.897,444.511,272.533,440.36,272.533z"/>
	</g>
</g>
<g>
	<g>
		<path d="M440.36,304.595h-72.141c-4.151,0-7.515,3.365-7.515,7.515c0,4.15,3.365,7.515,7.515,7.515h72.141
			c4.151,0,7.515-3.365,7.515-7.515C447.875,307.96,444.511,304.595,440.36,304.595z"/>
	</g>
</g>
<g>
	<g>
		<path d="M111.718,376.736H71.64c-4.151,0-7.515,3.365-7.515,7.515s3.365,7.515,7.515,7.515h40.078
			c4.151,0,7.515-3.365,7.515-7.515S115.87,376.736,111.718,376.736z"/>
	</g>
</g>
<g>
	<g>
		<path d="M135.765,408.799H71.64c-4.151,0-7.515,3.365-7.515,7.515s3.365,7.515,7.515,7.515h64.125
			c4.151,0,7.515-3.365,7.515-7.515S139.917,408.799,135.765,408.799z"/>
	</g>
</g>
<g>
	<g>
		<path d="M159.812,440.862H71.64c-4.151,0-7.515,3.365-7.515,7.515s3.365,7.515,7.515,7.515h88.172
			c4.151,0,7.515-3.365,7.515-7.515S163.964,440.862,159.812,440.862z"/>
	</g>
</g>
<g>
</g>
<g>
</g>
<g>
</g>
<g>
</g>
<g>
</g>
<g>
</g>
<g>
</g>
<g>
</g>
<g>
</g>
<g>
</g>
<g>
</g>
<g>
</g>
<g>
</g>
<g>
</g>
<g>
</g>
</svg>
