<?xml version="1.0" encoding="iso-8859-1"?>
<!-- Generator: Adobe Illustrator 19.0.0, SVG Export Plug-In . SVG Version: 6.00 Build 0)  -->
<svg version="1.1" id="Capa_1" xmlns="http://www.w3.org/2000/svg" xmlns:xlink="http://www.w3.org/1999/xlink" x="0px" y="0px"
	 viewBox="0 0 512 512" style="enable-background:new 0 0 512 512;" xml:space="preserve">
<g>
	<g>
		<path d="M490.279,120.401l-58.764-12.592c-1.051-29.383-13.935-56.344-36.418-76.078C371.781,11.269,339.374,0,303.843,0
			c-29.216,0-57.916,13.129-79.917,36.299C202.054,13.434,172.568,0,143.53,0c-35.968,0-68.657,11.518-92.045,32.433
			c-23.025,20.591-35.705,48.748-35.705,79.285c0,71.848,25.72,101.039,44.501,122.352c15.553,17.651,23.36,26.512,12.282,50.882
			C40.122,356.324,58.66,452.45,83.875,491.609C92.587,505.14,101.87,512,111.468,512c17.894,0,24.526-25.898,33.703-61.74
			c6.597-25.763,14.073-54.963,26.542-77.746c13.573-24.802,30.575-36.859,51.974-36.859s38.401,12.057,51.974,36.859
			c12.467,22.781,19.945,51.983,26.542,77.746c9.177,35.842,15.809,61.74,33.703,61.74c19.308,0,33.069-27.885,39.553-44.507
			c10.177-26.088,16.207-58.818,16.698-90.26c32.039-16.555,104.062-62.93,104.062-121.233V127.75
			C496.219,124.207,493.743,121.144,490.279,120.401z M433.541,332.296c-22.961,18.752-47.582,31.724-57.055,35.839
			c-9.473-4.114-34.095-17.087-57.055-35.839c-21.736-17.753-47.649-45.401-47.649-76.296v-60.618c0-4.151-3.364-7.515-7.515-7.515
			c-4.151,0-7.515,3.364-7.515,7.515V256c0,69.322,101.828,121.787,117.193,127.308c0.822,0.295,1.681,0.442,2.541,0.442
			c0.152,0,0.303-0.03,0.455-0.039c-1.144,27.596-6.649,55.674-15.483,78.32c-9.365,24.007-19.811,34.94-25.551,34.94
			c-0.03,0-3.107-0.133-7.78-11.674c-3.912-9.664-7.532-23.798-11.364-38.764c-13.605-53.136-32.238-125.907-93.075-125.907
			s-79.47,72.771-93.076,125.906c-3.832,14.966-7.452,29.101-11.364,38.764c-4.672,11.542-7.749,11.675-7.779,11.675
			c-3.029,0-8.549-3.546-14.956-13.497c-12.206-18.956-21.807-51.443-25.056-84.787c-3.881-39.812,1.373-77.995,14.791-107.515
			c15.103-33.227,1.298-48.896-14.688-67.037C53.404,203.531,30.81,177.889,30.81,111.718c0-56.025,47.406-96.689,112.72-96.689
			c25.496,0,51.537,12.211,70.718,32.916c-0.373,0.535-0.75,1.076-1.118,1.604c-12.814,18.431-21.28,30.607-53.569,30.607
			c-4.15,0-7.515,3.364-7.515,7.515c0,4.151,3.365,7.515,7.515,7.515c40.144,0,52.084-17.173,65.909-37.056
			c1.12-1.611,2.273-3.262,3.456-4.931c0.279-0.248,0.547-0.51,0.789-0.802c19.749-23.747,46.766-37.368,74.129-37.368
			c62.135,0,108.519,37.33,112.448,89.517l-38.232-8.192c-1.037-0.221-2.111-0.221-3.149,0l-112.219,24.047
			c-3.465,0.742-5.941,3.805-5.941,7.348v32.564c0,4.151,3.364,7.515,7.515,7.515s7.515-3.364,7.515-7.515v-26.489l104.705-22.438
			l104.704,22.438V256h0.001C481.19,286.896,455.278,314.544,433.541,332.296z"/>
	</g>
</g>
<g>
	<g>
		<path d="M458.214,146.321l-80.157-17.177c-1.035-0.22-2.109-0.22-3.146,0.001l-80.157,17.177
			c-3.465,0.742-5.941,3.805-5.941,7.348V256c0,19.051,14.156,40.744,40.936,62.732c17.054,14.002,34.381,23.993,43.192,28.702
			c2.192,1.172,4.893,1.172,7.084,0c8.811-4.709,26.139-14.701,43.193-28.702C450,296.744,464.155,275.05,464.155,256V153.669
			C464.155,150.126,461.679,147.063,458.214,146.321z M449.127,256c0,13.99-12.919,32.623-35.443,51.117
			c-14.018,11.51-28.268,20.159-37.199,25.131c-8.93-4.972-23.18-13.622-37.198-25.131c-22.525-18.494-35.444-37.126-35.444-51.117
			v-96.255l72.642-15.566l72.642,15.566V256z"/>
	</g>
</g>
<g>
	<g>
		<path d="M433.627,204.619l-24.345-20.867c-3.108-2.664-7.932-2.294-10.596,0.815l-31.546,36.804l-14.086-14.083
			c-2.934-2.934-7.692-2.934-10.627,0l-22.671,22.671c-2.935,2.936-2.935,7.693,0,10.628l32.063,32.062
			c9.488,9.49,25.796,8.86,34.527-1.325l48.094-56.11C437.142,212.063,436.777,207.319,433.627,204.619z M374.936,261.543
			c-3.119,3.639-9.1,3.869-12.488,0.479l-26.749-26.748l12.044-12.044l14.508,14.507c3.05,3.051,8.21,2.854,11.018-0.423
			l31.936-37.261l12.933,11.086L374.936,261.543z"/>
	</g>
</g>
<g>
</g>
<g>
</g>
<g>
</g>
<g>
</g>
<g>
</g>
<g>
</g>
<g>
</g>
<g>
</g>
<g>
</g>
<g>
</g>
<g>
</g>
<g>
</g>
<g>
</g>
<g>
</g>
<g>
</g>
</svg>
