<?xml version="1.0" encoding="iso-8859-1"?>
<!-- Generator: Adobe Illustrator 19.0.0, SVG Export Plug-In . SVG Version: 6.00 Build 0)  -->
<svg version="1.1" id="Capa_1" xmlns="http://www.w3.org/2000/svg" xmlns:xlink="http://www.w3.org/1999/xlink" x="0px" y="0px"
	 viewBox="0 0 512 512" style="enable-background:new 0 0 512 512;" xml:space="preserve">
<g>
	<g>
		<path d="M91.011,320.626H75.648c-30.663,0-55.609,24.946-55.609,55.609v128.25c0,4.15,3.365,7.515,7.515,7.515
			c4.15,0,7.515-3.365,7.515-7.515v-128.25c0-22.376,18.204-40.579,40.579-40.579h15.363c4.15,0,7.515-3.365,7.515-7.515
			C98.525,323.991,95.161,320.626,91.011,320.626z"/>
	</g>
</g>
<g>
	<g>
		<circle cx="219.93" cy="448.376" r="7.515"/>
	</g>
</g>
<g>
	<g>
		<circle cx="219.93" cy="479.937" r="7.515"/>
	</g>
</g>
<g>
	<g>
		<path d="M363.71,148.384V87.671C363.71,39.329,324.382,0,276.039,0H59.616c-6.064,0-9.659,7.161-6.012,12.023l22.544,30.059
			v106.302c-9.562,5.43-16.031,15.7-16.031,27.46c0,17.403,14.159,31.562,31.562,31.562c2.967,0,5.879-0.426,8.681-1.226
			c3.282,63.11,55.658,113.446,119.57,113.446c63.914,0,116.291-50.338,119.57-113.451c2.813,0.804,5.737,1.231,8.681,1.231
			c17.403,0,31.562-14.159,31.562-31.562C379.742,164.083,373.272,153.813,363.71,148.384z M100.196,190.006
			c-2.565,1.547-5.489,2.37-8.517,2.37c-9.116,0-16.532-7.417-16.532-16.532s7.416-16.532,16.532-16.532
			c3.02,0,5.953,0.824,8.517,2.37V190.006z M324.634,199.89c0,57.735-46.971,104.705-104.704,104.705
			c-57.735,0-104.705-46.97-104.705-104.705v-48.595h9.018v40.579c0,8.564,6.967,15.53,15.53,15.53h40.078
			c17.403,0,31.562-14.159,31.562-31.562v-0.501h17.033v0.501c0,17.403,14.159,31.562,31.562,31.562h40.078
			c8.564,0,15.53-6.967,15.53-15.53v-40.579h9.018V199.89z M119.107,136.266l17.605-41.08h166.434l17.605,41.08H119.107z
			 M300.587,151.295v40.579c0,0.277-0.225,0.501-0.501,0.501h-40.078c-9.116,0-16.532-7.417-16.532-16.532v-24.548H300.587z
			 M228.446,151.295v9.018h-17.033v-9.018H228.446z M196.384,151.295v24.548c0,9.116-7.416,16.532-16.532,16.532h-40.078
			c-0.277,0-0.501-0.224-0.501-0.501v-40.579H196.384z M339.054,140.817L315.008,84.71c-1.183-2.762-3.901-4.554-6.906-4.554
			H131.757c-3.006,0-5.723,1.792-6.907,4.554l-24.047,56.109c-0.39,0.909-0.608,1.91-0.608,2.961v1.676
			c-2.754-0.771-5.615-1.175-8.517-1.175c-0.168,0-0.334,0.01-0.501,0.013V39.577c0-1.626-0.527-3.208-1.503-4.509L74.645,15.029
			h201.394c40.055,0,72.642,32.587,72.642,72.642v56.624c-0.167-0.003-0.333-0.013-0.501-0.013c-2.922,0-5.767,0.399-8.517,1.169
			v-1.67C339.663,142.728,339.445,141.727,339.054,140.817z M348.18,192.376c-2.779,0-5.527-0.701-7.942-2.027
			c-0.189-0.104-0.382-0.193-0.575-0.28v-28.574c0.381-0.119,0.758-0.262,1.125-0.446c2.302-1.153,4.788-1.738,7.391-1.738
			c9.116,0,16.532,7.416,16.532,16.532C364.712,184.959,357.296,192.376,348.18,192.376z"/>
	</g>
</g>
<g>
	<g>
		<path d="M251.992,224.438h-64.125c-4.15,0-7.515,3.365-7.515,7.515c0,21.823,17.755,39.577,39.577,39.577
			s39.577-17.755,39.577-39.577C259.507,227.803,256.142,224.438,251.992,224.438z M219.93,256.501
			c-10.916,0-20.19-7.161-23.372-17.033h46.743C240.12,249.34,230.846,256.501,219.93,256.501z"/>
	</g>
</g>
<g>
	<g>
		<circle cx="171.335" cy="175.342" r="7.515"/>
	</g>
</g>
<g>
	<g>
		<circle cx="268.524" cy="175.342" r="7.515"/>
	</g>
</g>
<g>
	<g>
		<path d="M467.914,385.662v-33.474c0-1.993-0.792-3.905-2.2-5.313l-16.031-16.031c-1.41-1.41-3.32-2.201-5.314-2.201h-0.501
			v-50.007c13.786-3.381,24.047-15.837,24.047-30.651c0-17.403-14.159-31.562-31.562-31.562c-17.403,0-31.562,14.159-31.562,31.562
			c0,14.814,10.261,27.269,24.047,30.651v50.007h-0.501c-1.993,0-3.904,0.792-5.314,2.201l-15.918,15.918
			c-15.183-15.42-35.569-24.732-57.409-25.983c-0.489-0.1-0.996-0.152-1.515-0.152H128.083c-4.15,0-7.515,3.365-7.515,7.515
			s3.365,7.515,7.515,7.515h23.895l61.875,85.077c2.951,4.058,9.204,4.058,12.155,0l61.874-85.077h59.164
			c0.266,0.04,0.533,0.066,0.807,0.078c21.318,0.934,41.057,11.128,54.156,27.97c0.765,0.983,1.726,1.718,2.783,2.205v20.079
			c-9.308,3.144-16.031,11.953-16.031,22.31v80.157c0,12.983,10.563,23.546,23.546,23.546h48.094
			c17.403,0,31.562-14.159,31.562-31.562v-64.125C491.961,401.499,481.7,389.044,467.914,385.662z M219.93,403.537l-49.368-67.882
			h98.737L219.93,403.537z M419.82,247.984c0-9.116,7.417-16.532,16.532-16.532s16.532,7.417,16.532,16.532
			c0,9.116-7.417,16.532-16.532,16.532S419.82,257.1,419.82,247.984z M419.82,355.3l11.629-11.629h9.806l11.63,11.629v29.452H419.82
			V355.3z M476.932,480.438c0,9.116-7.417,16.532-16.532,16.532h-48.094c-4.696,0-8.517-3.82-8.517-8.517v-8.517h24.548
			c4.151,0,7.515-3.365,7.515-7.515c0-4.15-3.364-7.515-7.515-7.515h-24.548v-9.043c0.166,0.011,0.332,0.025,0.501,0.025h24.047
			c4.151,0,7.515-3.365,7.515-7.515s-3.364-7.515-7.515-7.515H404.29c-0.169,0-0.335,0.014-0.501,0.025v-9.043h24.548
			c4.151,0,7.515-3.365,7.515-7.515c0-4.15-3.364-7.515-7.515-7.515h-24.548v-8.517c0-4.696,3.82-8.517,8.517-8.517h48.094
			c9.116,0,16.532,7.417,16.532,16.532V480.438z"/>
	</g>
</g>
<g>
</g>
<g>
</g>
<g>
</g>
<g>
</g>
<g>
</g>
<g>
</g>
<g>
</g>
<g>
</g>
<g>
</g>
<g>
</g>
<g>
</g>
<g>
</g>
<g>
</g>
<g>
</g>
<g>
</g>
</svg>
