<?xml version="1.0" encoding="iso-8859-1"?>
<!-- Generator: Adobe Illustrator 19.0.0, SVG Export Plug-In . SVG Version: 6.00 Build 0)  -->
<svg version="1.1" id="Capa_1" xmlns="http://www.w3.org/2000/svg" xmlns:xlink="http://www.w3.org/1999/xlink" x="0px" y="0px"
	 viewBox="0 0 511.999 511.999" style="enable-background:new 0 0 511.999 511.999;" xml:space="preserve">
<g>
	<g>
		<path d="M507.903,456.024c-2.059-4.055-4.852-7.722-8.184-10.816L373.784,328.267l9.439-9.439c2.948-2.949,2.948-7.727,0-10.674
			c-2.948-2.947-7.727-2.947-10.673,0l-9.835,9.834l-13.977-12.979l6.308-6.308c2.948-2.949,2.948-7.727,0-10.674
			c-2.948-2.947-7.727-2.947-10.673,0l-6.704,6.704l-59.853-55.578c17.083-24.628,27.111-54.502,27.111-86.678
			c0-84.068-68.394-152.462-152.462-152.462S0,68.408,0,152.475s68.394,152.462,152.462,152.462c32.176,0,62.05-10.028,86.678-27.11
			l55.578,59.853l-6.703,6.703c-2.948,2.949-2.948,7.727,0,10.674c2.908,2.907,7.766,2.907,10.673,0l6.308-6.309l12.979,13.977
			l-9.834,9.834c-2.748,2.748-2.93,7.287-0.401,10.242c2.822,3.296,8.005,3.502,11.075,0.433l9.44-9.44l116.941,125.937
			c10.756,11.583,28.337,15.459,42.961,9.452c4.704-1.932,8.997-4.829,12.59-8.424C512.403,489.105,515.381,470.745,507.903,456.024
			z M152.462,289.842c-75.744,0-137.367-61.623-137.367-137.367c0-75.745,61.623-137.367,137.367-137.367
			S289.83,76.73,289.83,152.475S228.207,289.842,152.462,289.842z M251.156,268.582c6.26-5.329,12.084-11.153,17.413-17.413
			l58.416,54.243L305.4,326.998L251.156,268.582z M315.679,338.068l22.376-22.376l13.977,12.979l-23.375,23.375L315.679,338.068z
			 M338.937,363.114l24.166-24.165l80.112,74.389l-29.888,29.888L338.937,363.114z M490.074,490.086
			c-4.552,4.552-10.569,7.004-17.042,6.874c-6.437-0.119-12.394-2.784-16.775-7.5l-32.653-35.165l30.678-30.679l35.165,32.653
			c4.718,4.381,7.382,10.337,7.5,16.775C497.068,479.482,494.626,485.535,490.074,490.086z"/>
	</g>
</g>
<g>
	<g>
		<path d="M231.392,61.74c-3.145-2.738-7.912-2.408-10.649,0.736c-2.737,3.144-2.407,7.911,0.737,10.648
			c22.972,19.999,36.147,48.921,36.147,79.351c0,57.987-47.176,105.164-105.164,105.164c-57.988,0-105.164-47.177-105.164-105.164
			S94.474,47.311,152.462,47.311c13.322,0,26.301,2.456,38.579,7.299c3.878,1.53,8.26-0.372,9.791-4.252
			c1.53-3.877-0.373-8.261-4.251-9.791c-14.049-5.543-28.892-8.353-44.119-8.353C86.151,32.216,32.203,86.164,32.203,152.475
			s53.948,120.259,120.259,120.259s120.259-53.949,120.259-120.259C272.722,117.678,257.657,84.606,231.392,61.74z"/>
	</g>
</g>
<g>
	<g>
		<path d="M194.776,151.217c4.693-5.327,11.785-13.376,11.785-32.26c0-18.103-15.252-31.755-35.479-31.755
			c-6.605,0-13.083,2.298-18.567,6.467c-5.502-4.169-12.016-6.467-18.675-6.467c-20.227,0-35.479,13.651-35.479,31.755
			c0,18.883,7.093,26.933,11.786,32.26c2.944,3.34,2.944,3.34,1.925,5.583c-8.492,18.681-3.695,43.102,3.031,53.549
			c3.938,6.115,8.311,7.399,11.288,7.399c8.66,0,10.986-9.085,13.45-18.705c3.004-11.73,6.229-22.26,12.62-22.26
			c6.39,0,9.616,10.53,12.62,22.26c2.463,9.62,4.789,18.705,13.45,18.705c2.977,0,7.351-1.283,11.288-7.399
			c6.726-10.447,11.523-34.868,3.031-53.549C191.832,154.557,191.832,154.557,194.776,151.217z M183.45,141.237
			c-3.968,4.503-9.403,10.671-4.34,21.81c4.933,10.852,3.378,24.535,0.769,32.924c-0.059-0.228-0.117-0.453-0.172-0.672
			c-3.219-12.571-8.606-33.611-27.243-33.611s-24.024,21.04-27.243,33.611c-0.056,0.219-0.114,0.444-0.172,0.672
			c-2.609-8.389-4.164-22.071,0.769-32.924c5.062-11.137-0.372-17.306-4.34-21.81c-3.758-4.265-8.018-9.098-8.018-22.28
			c0-9.654,8.573-16.66,20.384-16.66c4.631,0,9.445,2.463,12.875,6.59c2.972,3.573,8.634,3.573,11.606,0
			c3.483-4.187,8.134-6.59,12.76-6.59c11.811,0,20.384,7.006,20.384,16.66C191.467,132.139,187.208,136.971,183.45,141.237z"/>
	</g>
</g>
<g>
</g>
<g>
</g>
<g>
</g>
<g>
</g>
<g>
</g>
<g>
</g>
<g>
</g>
<g>
</g>
<g>
</g>
<g>
</g>
<g>
</g>
<g>
</g>
<g>
</g>
<g>
</g>
<g>
</g>
</svg>
