<?xml version="1.0" encoding="iso-8859-1"?>
<!-- Generator: Adobe Illustrator 19.0.0, SVG Export Plug-In . SVG Version: 6.00 Build 0)  -->
<svg version="1.1" id="Capa_1" xmlns="http://www.w3.org/2000/svg" xmlns:xlink="http://www.w3.org/1999/xlink" x="0px" y="0px"
	 viewBox="0 0 512 512" style="enable-background:new 0 0 512 512;" xml:space="preserve">
<g>
	<g>
		<path d="M419.405,234.07c18.781-21.313,44.501-50.504,44.501-122.352c0-30.537-12.68-58.694-35.705-79.285
			C404.814,11.518,372.125,0,336.157,0c-29.216,0-57.916,13.129-79.917,36.299C234.367,13.434,204.881,0,175.843,0
			c-13.808,0-27.129,1.704-39.629,4.979c-0.547,0.082-1.081,0.228-1.597,0.427c-19.418,5.326-36.792,14.485-50.818,27.029
			c-23.025,20.59-35.705,48.747-35.705,79.284c0,71.848,25.72,101.039,44.501,122.352c15.552,17.65,23.359,26.51,12.285,50.877
			c-0.001,0.001-0.001,0.002-0.002,0.003c-0.031,0.069-0.061,0.139-0.091,0.208c-32.313,71.35-13.79,167.329,11.401,206.45
			C124.9,505.14,134.183,512,143.781,512c17.894,0,24.526-25.898,33.703-61.74c6.597-25.763,14.073-54.963,26.542-77.746
			c13.573-24.802,30.575-36.859,51.974-36.859s38.401,12.057,51.974,36.859c12.467,22.781,19.945,51.983,26.542,77.746
			c9.177,35.842,15.809,61.74,33.703,61.74c24.905,0,44.447-46.892,52.065-90.459c0.714-4.088-2.02-7.983-6.109-8.697
			c-4.083-0.724-7.982,2.021-8.697,6.108c-8.451,48.337-27.397,78.018-37.259,78.018c-0.03,0-3.107-0.133-7.78-11.674
			c-3.912-9.664-7.532-23.798-11.363-38.764C335.47,393.397,316.837,320.626,256,320.626s-79.47,72.771-93.076,125.906
			c-3.831,14.966-7.452,29.101-11.363,38.764c-4.673,11.542-7.75,11.675-7.78,11.675c-3.029,0-8.549-3.546-14.956-13.497
			c-12.206-18.956-21.807-51.443-25.056-84.787c-3.722-38.191,0.982-74.86,13.214-103.844c18.337-8.015,38.239-21.555,42.104-37.02
			c5.787-23.15-1.769-35.327-8.436-46.069c-5.844-9.418-10.893-17.553-7.516-34.436c6.007-30.032-4.649-38.094-19.204-45.514
			c-8.443-4.305-16.418-8.37-21.115-22.462c-6.49-19.469,5.996-28.277,27.331-40.468c15.882-9.076,33.882-19.362,28.94-39.135
			c-1.192-4.768-3.227-9.122-6.014-12.977c7.297-1.135,14.902-1.731,22.77-1.731c25.496,0,51.537,12.211,70.718,32.916
			c-0.373,0.535-0.75,1.076-1.118,1.604c-12.814,18.431-21.28,30.607-53.569,30.607c-4.095,0-7.515,3.42-7.515,7.515
			c0,4.095,3.42,7.515,7.515,7.515c40.144,0,52.084-17.173,65.909-37.056c3.641-5.235,7.762-10.029,12.323-14.487
			c1.58,36.81,10.071,46.686,16.685,50.814c6.43,4.017,14.116,3.211,20.664-0.063c9.974-4.987,16.658-16.128,23.122-26.903
			c5.357-8.928,10.897-18.162,16.956-21.191c11.396-5.701,27.502,3.213,38.29,21.191c13.666,22.777,40.016,31.311,61.826,28.878
			c0.811,4.968,1.228,10.091,1.228,15.349c0,66.171-22.594,91.813-40.748,112.417c-15.986,18.141-29.791,33.81-14.688,67.037
			c11.805,25.971,17.275,58.048,15.82,92.763c-0.173,4.147,3.047,7.65,7.194,7.823c4.149,0.186,7.649-3.046,7.823-7.193
			c1.553-37.06-4.379-71.506-17.155-99.613C396.046,260.582,403.852,251.722,419.405,234.07z M122.691,55.824
			c-18.986,10.849-44.987,25.707-34.133,58.271c6.644,19.931,19.304,26.385,28.547,31.098c4.964,2.53,8.884,4.53,10.83,7.873
			c2.365,4.065,2.516,11.034,0.462,21.304c-4.542,22.709,2.91,34.715,9.484,45.308c6.074,9.787,10.871,17.517,6.626,34.499
			c-1.294,5.174-8.103,12.854-20.357,20.176c4.307-22.31-7.261-35.445-20.279-50.218c-18.153-20.604-40.748-46.246-40.748-112.418
			c0-43.806,28.983-78.219,72.846-91.147c4.398,3.309,7.213,7.52,8.537,12.813C146.472,41.251,139.003,46.503,122.691,55.824z
			 M398.71,59.759c-15.177-25.295-38.987-36.358-57.898-26.903c-9.974,4.987-16.658,16.127-23.122,26.903
			c-5.357,8.928-10.897,18.162-16.956,21.191c-3.998,1.998-5.44,1.098-5.985,0.757c-1.669-1.043-9.789-8.296-9.875-50.191
			c15.659-10.664,33.397-16.487,51.283-16.487c52.899,0,94.047,26.676,107.779,66.581C427.821,82.695,408.51,76.092,398.71,59.759z"
			/>
	</g>
</g>
<g>
	<g>
		<path d="M337.425,191.636c-13.955-6.752-29.04-7.276-33.331-7.276c-17.286,0-18.801-7.874-20.357-24.258
			c-1.123-11.817-2.52-26.525-17.345-31.465c-19.151-6.379-43.656,14.117-51.173,35.348c-5.714,16.14-0.314,29.524,14.096,34.926
			c33.267,12.475,34.55,30.424,36.035,51.208c1.073,15.008,2.289,32.018,18.204,43.955c4.651,3.488,10.081,5.991,15.893,6.652
			c6.153,0.7,12.311-0.716,17.816-3.469c24.216-12.106,42.44-52.824,42.44-73.319C359.703,209.856,352,198.687,337.425,191.636z
			 M310.542,283.816c-6.392,3.195-12.104,2.635-17.97-1.765c-10.43-7.823-11.224-18.934-12.23-33.003
			c-1.54-21.541-3.456-48.349-45.75-64.209c-2.61-0.979-9.545-3.579-5.205-15.839c5.344-15.095,22.829-29.249,32.253-26.106
			c5.017,1.672,6.027,6.961,7.135,18.629c1.434,15.078,3.598,37.866,35.32,37.866c11.287,0,40.579,4.41,40.579,24.548
			C344.673,238.404,329.22,274.476,310.542,283.816z"/>
	</g>
</g>
<g>
</g>
<g>
</g>
<g>
</g>
<g>
</g>
<g>
</g>
<g>
</g>
<g>
</g>
<g>
</g>
<g>
</g>
<g>
</g>
<g>
</g>
<g>
</g>
<g>
</g>
<g>
</g>
<g>
</g>
</svg>
